<mxfile host="Electron" agent="Mozilla/5.0 (Macintosh; Intel Mac OS X 10_15_7) AppleWebKit/537.36 (KHTML, like Gecko) draw.io/25.0.2 Chrome/128.0.6613.186 Electron/32.2.5 Safari/537.36" version="25.0.2">
  <diagram name="Page-1" id="7nGPOmVnHEvBqKiO8MUv">
    <mxGraphModel dx="3400" dy="2977" grid="1" gridSize="10" guides="1" tooltips="1" connect="1" arrows="1" fold="1" page="1" pageScale="1" pageWidth="1169" pageHeight="827" background="none" math="0" shadow="0">
      <root>
        <mxCell id="0" />
        <mxCell id="1" parent="0" />
        <mxCell id="OsJ4YcX7az4B2sDPAUP7-6" value="" style="rounded=1;whiteSpace=wrap;html=1;fillColor=#e1d5e7;strokeColor=#9673a6;" parent="1" vertex="1">
          <mxGeometry x="1630" y="-190.23000000000002" width="300" height="140" as="geometry" />
        </mxCell>
        <mxCell id="TpHYWn0pxvChTnbQkmgb-59" value="" style="rounded=1;whiteSpace=wrap;html=1;fillColor=none;dashed=1;dashPattern=8 8;" parent="1" vertex="1">
          <mxGeometry x="1600" y="-205.23" width="710" height="395.23" as="geometry" />
        </mxCell>
        <mxCell id="DUj9_0CVN8MQ_FfbOPjA-10" value="" style="endArrow=none;html=1;rounded=0;entryX=0.015;entryY=0.985;entryDx=0;entryDy=0;entryPerimeter=0;exitX=0;exitY=0;exitDx=0;exitDy=0;" edge="1" parent="1" source="DUj9_0CVN8MQ_FfbOPjA-9" target="MWJ0W-gvaDlnfUPghBey-5">
          <mxGeometry width="50" height="50" relative="1" as="geometry">
            <mxPoint x="1470" y="270" as="sourcePoint" />
            <mxPoint x="1520" y="220" as="targetPoint" />
          </mxGeometry>
        </mxCell>
        <mxCell id="OsJ4YcX7az4B2sDPAUP7-2" value="" style="rounded=1;whiteSpace=wrap;html=1;fillColor=#d5e8d4;strokeColor=#82b366;" parent="1" vertex="1">
          <mxGeometry x="60" y="-190.23" width="300" height="140" as="geometry" />
        </mxCell>
        <mxCell id="TpHYWn0pxvChTnbQkmgb-56" value="" style="rounded=1;whiteSpace=wrap;html=1;fillColor=none;dashed=1;dashPattern=8 8;" parent="1" vertex="1">
          <mxGeometry x="25" y="-205.23" width="710" height="395.23" as="geometry" />
        </mxCell>
        <mxCell id="DUj9_0CVN8MQ_FfbOPjA-13" value="" style="endArrow=none;html=1;rounded=0;entryX=0.985;entryY=0.985;entryDx=0;entryDy=0;entryPerimeter=0;exitX=1;exitY=0;exitDx=0;exitDy=0;" edge="1" parent="1" source="DUj9_0CVN8MQ_FfbOPjA-8" target="MWJ0W-gvaDlnfUPghBey-3">
          <mxGeometry width="50" height="50" relative="1" as="geometry">
            <mxPoint x="160" y="290" as="sourcePoint" />
            <mxPoint x="210" y="240" as="targetPoint" />
          </mxGeometry>
        </mxCell>
        <mxCell id="DUj9_0CVN8MQ_FfbOPjA-12" value="" style="endArrow=none;html=1;rounded=0;entryX=0.015;entryY=0.985;entryDx=0;entryDy=0;entryPerimeter=0;exitX=0;exitY=0;exitDx=0;exitDy=0;" edge="1" parent="1" source="DUj9_0CVN8MQ_FfbOPjA-8" target="MWJ0W-gvaDlnfUPghBey-3">
          <mxGeometry width="50" height="50" relative="1" as="geometry">
            <mxPoint x="-30" y="220" as="sourcePoint" />
            <mxPoint x="20" y="170" as="targetPoint" />
          </mxGeometry>
        </mxCell>
        <mxCell id="DUj9_0CVN8MQ_FfbOPjA-11" value="" style="endArrow=none;html=1;rounded=0;entryX=0.985;entryY=0.985;entryDx=0;entryDy=0;entryPerimeter=0;exitX=1;exitY=0;exitDx=0;exitDy=0;" edge="1" parent="1" source="DUj9_0CVN8MQ_FfbOPjA-9" target="MWJ0W-gvaDlnfUPghBey-5">
          <mxGeometry width="50" height="50" relative="1" as="geometry">
            <mxPoint x="1770" y="630" as="sourcePoint" />
            <mxPoint x="1820" y="580" as="targetPoint" />
          </mxGeometry>
        </mxCell>
        <mxCell id="TpHYWn0pxvChTnbQkmgb-57" value="" style="rounded=1;whiteSpace=wrap;html=1;fillColor=none;dashed=1;dashPattern=8 8;" parent="1" vertex="1">
          <mxGeometry x="810" y="-205.23" width="710" height="395.23" as="geometry" />
        </mxCell>
        <mxCell id="OsJ4YcX7az4B2sDPAUP7-4" value="" style="rounded=1;whiteSpace=wrap;html=1;fillColor=#dae8fc;strokeColor=#6c8ebf;" parent="1" vertex="1">
          <mxGeometry x="845" y="-190.23" width="300" height="140" as="geometry" />
        </mxCell>
        <mxCell id="n6CQzrZy_rfwwoYkGh-N-1" value="" style="rounded=1;whiteSpace=wrap;html=1;fillColor=#fff2cc;strokeColor=#d6b656;" parent="1" vertex="1">
          <mxGeometry x="295" y="-810" width="1740" height="130" as="geometry" />
        </mxCell>
        <mxCell id="MWJ0W-gvaDlnfUPghBey-1" value="" style="sketch=0;points=[[0.015,0.015,0],[0.985,0.015,0],[0.985,0.985,0],[0.015,0.985,0],[0.25,0,0],[0.5,0,0],[0.75,0,0],[1,0.25,0],[1,0.5,0],[1,0.75,0],[0.75,1,0],[0.5,1,0],[0.25,1,0],[0,0.75,0],[0,0.5,0],[0,0.25,0]];verticalLabelPosition=bottom;html=1;verticalAlign=top;aspect=fixed;align=center;pointerEvents=1;shape=mxgraph.cisco19.rect;prIcon=layer3_nexus_5k_switch;fillColor=#FAFAFA;strokeColor=#005073;" parent="1" vertex="1">
          <mxGeometry x="355" y="-770" width="50" height="50" as="geometry" />
        </mxCell>
        <mxCell id="MWJ0W-gvaDlnfUPghBey-2" value="" style="sketch=0;points=[[0.015,0.015,0],[0.985,0.015,0],[0.985,0.985,0],[0.015,0.985,0],[0.25,0,0],[0.5,0,0],[0.75,0,0],[1,0.25,0],[1,0.5,0],[1,0.75,0],[0.75,1,0],[0.5,1,0],[0.25,1,0],[0,0.75,0],[0,0.5,0],[0,0.25,0]];verticalLabelPosition=bottom;html=1;verticalAlign=top;aspect=fixed;align=center;pointerEvents=1;shape=mxgraph.cisco19.rect;prIcon=layer3_nexus_5k_switch;fillColor=#FAFAFA;strokeColor=#005073;" parent="1" vertex="1">
          <mxGeometry x="1940" y="-770" width="50" height="50" as="geometry" />
        </mxCell>
        <mxCell id="MWJ0W-gvaDlnfUPghBey-3" value="" style="sketch=0;points=[[0.015,0.015,0],[0.985,0.015,0],[0.985,0.985,0],[0.015,0.985,0],[0.25,0,0],[0.5,0,0],[0.75,0,0],[1,0.25,0],[1,0.5,0],[1,0.75,0],[0.75,1,0],[0.5,1,0],[0.25,1,0],[0,0.75,0],[0,0.5,0],[0,0.25,0]];verticalLabelPosition=bottom;html=1;verticalAlign=top;aspect=fixed;align=center;pointerEvents=1;shape=mxgraph.cisco19.rect;prIcon=l3_switch;fillColor=#FAFAFA;strokeColor=#005073;" parent="1" vertex="1">
          <mxGeometry x="255" y="-170.23" width="50" height="50" as="geometry" />
        </mxCell>
        <mxCell id="MWJ0W-gvaDlnfUPghBey-4" value="" style="sketch=0;points=[[0.015,0.015,0],[0.985,0.015,0],[0.985,0.985,0],[0.015,0.985,0],[0.25,0,0],[0.5,0,0],[0.75,0,0],[1,0.25,0],[1,0.5,0],[1,0.75,0],[0.75,1,0],[0.5,1,0],[0.25,1,0],[0,0.75,0],[0,0.5,0],[0,0.25,0]];verticalLabelPosition=bottom;html=1;verticalAlign=top;aspect=fixed;align=center;pointerEvents=1;shape=mxgraph.cisco19.rect;prIcon=l3_switch;fillColor=#FAFAFA;strokeColor=#005073;" parent="1" vertex="1">
          <mxGeometry x="1040" y="-170.23" width="50" height="50" as="geometry" />
        </mxCell>
        <mxCell id="MWJ0W-gvaDlnfUPghBey-5" value="" style="sketch=0;points=[[0.015,0.015,0],[0.985,0.015,0],[0.985,0.985,0],[0.015,0.985,0],[0.25,0,0],[0.5,0,0],[0.75,0,0],[1,0.25,0],[1,0.5,0],[1,0.75,0],[0.75,1,0],[0.5,1,0],[0.25,1,0],[0,0.75,0],[0,0.5,0],[0,0.25,0]];verticalLabelPosition=bottom;html=1;verticalAlign=top;aspect=fixed;align=center;pointerEvents=1;shape=mxgraph.cisco19.rect;prIcon=l3_switch;fillColor=#FAFAFA;strokeColor=#005073;" parent="1" vertex="1">
          <mxGeometry x="1825" y="-170.23000000000002" width="50" height="50" as="geometry" />
        </mxCell>
        <mxCell id="MWJ0W-gvaDlnfUPghBey-12" value="" style="sketch=0;points=[[0.015,0.015,0],[0.985,0.015,0],[0.985,0.985,0],[0.015,0.985,0],[0.25,0,0],[0.5,0,0],[0.75,0,0],[1,0.25,0],[1,0.5,0],[1,0.75,0],[0.75,1,0],[0.5,1,0],[0.25,1,0],[0,0.75,0],[0,0.5,0],[0,0.25,0]];verticalLabelPosition=bottom;html=1;verticalAlign=top;aspect=fixed;align=center;pointerEvents=1;shape=mxgraph.cisco19.server;fillColor=#005073;strokeColor=none;" parent="1" vertex="1">
          <mxGeometry x="446.25" y="110" width="27.500000000000004" height="50" as="geometry" />
        </mxCell>
        <mxCell id="MWJ0W-gvaDlnfUPghBey-13" value="" style="sketch=0;points=[[0.015,0.015,0],[0.985,0.015,0],[0.985,0.985,0],[0.015,0.985,0],[0.25,0,0],[0.5,0,0],[0.75,0,0],[1,0.25,0],[1,0.5,0],[1,0.75,0],[0.75,1,0],[0.5,1,0],[0.25,1,0],[0,0.75,0],[0,0.5,0],[0,0.25,0]];verticalLabelPosition=bottom;html=1;verticalAlign=top;aspect=fixed;align=center;pointerEvents=1;shape=mxgraph.cisco19.server;fillColor=#005073;strokeColor=none;" parent="1" vertex="1">
          <mxGeometry x="1220" y="109.99999999999997" width="27.500000000000004" height="50" as="geometry" />
        </mxCell>
        <mxCell id="MWJ0W-gvaDlnfUPghBey-16" style="rounded=0;orthogonalLoop=1;jettySize=auto;html=1;exitX=0.5;exitY=1;exitDx=0;exitDy=0;exitPerimeter=0;entryX=0.5;entryY=0;entryDx=0;entryDy=0;entryPerimeter=0;endArrow=none;endFill=0;fillColor=#dae8fc;gradientColor=#7ea6e0;strokeColor=#6c8ebf;" parent="1" source="MWJ0W-gvaDlnfUPghBey-3" target="MWJ0W-gvaDlnfUPghBey-12" edge="1">
          <mxGeometry relative="1" as="geometry" />
        </mxCell>
        <mxCell id="eH8izVKV5pcjw1C5jCsK-1" value="Ethernet 3&lt;div&gt;access vlan 10&lt;/div&gt;" style="edgeLabel;html=1;align=center;verticalAlign=middle;resizable=0;points=[];labelBorderColor=default;" parent="MWJ0W-gvaDlnfUPghBey-16" vertex="1" connectable="0">
          <mxGeometry x="-0.3405" y="-1" relative="1" as="geometry">
            <mxPoint x="22" y="24" as="offset" />
          </mxGeometry>
        </mxCell>
        <mxCell id="MWJ0W-gvaDlnfUPghBey-17" style="rounded=0;orthogonalLoop=1;jettySize=auto;html=1;exitX=0.5;exitY=1;exitDx=0;exitDy=0;exitPerimeter=0;entryX=0.5;entryY=0;entryDx=0;entryDy=0;entryPerimeter=0;endArrow=none;endFill=0;fillColor=#dae8fc;gradientColor=#7ea6e0;strokeColor=#6c8ebf;" parent="1" source="MWJ0W-gvaDlnfUPghBey-4" target="MWJ0W-gvaDlnfUPghBey-13" edge="1">
          <mxGeometry relative="1" as="geometry" />
        </mxCell>
        <mxCell id="MWJ0W-gvaDlnfUPghBey-24" value="Норвегия / Norway&lt;div&gt;Осло / Oslo&lt;/div&gt;&lt;div&gt;ДЦ &quot;Мидгард&quot; / DC1&lt;/div&gt;" style="text;html=1;align=center;verticalAlign=middle;resizable=0;points=[];autosize=1;strokeColor=default;fillColor=default;" parent="1" vertex="1">
          <mxGeometry x="1095" y="-1010" width="140" height="60" as="geometry" />
        </mxCell>
        <mxCell id="MWJ0W-gvaDlnfUPghBey-26" value="NO-OSL-DC1" style="text;html=1;align=center;verticalAlign=middle;resizable=0;points=[];autosize=1;strokeColor=default;fillColor=default;" parent="1" vertex="1">
          <mxGeometry x="1115" y="-930" width="100" height="30" as="geometry" />
        </mxCell>
        <mxCell id="MWJ0W-gvaDlnfUPghBey-27" value="no-osl-dc1-f1-r01k01-spn01" style="text;html=1;align=center;verticalAlign=middle;resizable=0;points=[];autosize=1;strokeColor=default;fillColor=default;" parent="1" vertex="1">
          <mxGeometry x="430" y="-790" width="170" height="30" as="geometry" />
        </mxCell>
        <mxCell id="MWJ0W-gvaDlnfUPghBey-28" value="no-osl-dc1-f1-r02k01-spn01" style="text;html=1;align=center;verticalAlign=middle;resizable=0;points=[];autosize=1;strokeColor=default;fillColor=default;" parent="1" vertex="1">
          <mxGeometry x="1750" y="-790" width="170" height="30" as="geometry" />
        </mxCell>
        <mxCell id="MWJ0W-gvaDlnfUPghBey-29" value="no-osl-dc1-f1-r03k01-lf01" style="text;html=1;align=center;verticalAlign=middle;resizable=0;points=[];autosize=1;strokeColor=default;fillColor=default;" parent="1" vertex="1">
          <mxGeometry x="75" y="-140.23" width="160" height="30" as="geometry" />
        </mxCell>
        <mxCell id="MWJ0W-gvaDlnfUPghBey-30" value="no-osl-dc1-f1-r03k02-lf01" style="text;html=1;align=center;verticalAlign=middle;resizable=0;points=[];autosize=1;strokeColor=default;fillColor=default;" parent="1" vertex="1">
          <mxGeometry x="865" y="-140.23" width="160" height="30" as="geometry" />
        </mxCell>
        <mxCell id="MWJ0W-gvaDlnfUPghBey-31" value="no-osl-dc1-f1-r03k03-lf01" style="text;html=1;align=center;verticalAlign=middle;resizable=0;points=[];autosize=1;strokeColor=default;fillColor=default;" parent="1" vertex="1">
          <mxGeometry x="1645" y="-140.23000000000002" width="160" height="30" as="geometry" />
        </mxCell>
        <mxCell id="MWJ0W-gvaDlnfUPghBey-32" value="Spine: 10.16.0.0/24" style="text;html=1;align=center;verticalAlign=middle;resizable=0;points=[];autosize=1;strokeColor=default;fillColor=default;" parent="1" vertex="1">
          <mxGeometry x="-180" y="-760" width="130" height="30" as="geometry" />
        </mxCell>
        <mxCell id="MWJ0W-gvaDlnfUPghBey-33" value="Leaf: 10.16.1.0/24&lt;div&gt;VTEP: 10.16.4.0/24&lt;/div&gt;" style="text;html=1;align=center;verticalAlign=middle;resizable=0;points=[];autosize=1;strokeColor=default;fillColor=default;" parent="1" vertex="1">
          <mxGeometry x="-180" y="-140.23" width="130" height="40" as="geometry" />
        </mxCell>
        <mxCell id="MWJ0W-gvaDlnfUPghBey-34" value="Lo: 10.16.0.1/32" style="text;html=1;align=center;verticalAlign=middle;resizable=0;points=[];autosize=1;strokeColor=none;fillColor=none;" parent="1" vertex="1">
          <mxGeometry x="460" y="-760" width="110" height="30" as="geometry" />
        </mxCell>
        <mxCell id="MWJ0W-gvaDlnfUPghBey-35" value="Lo: 10.16.0.2/32" style="text;html=1;align=center;verticalAlign=middle;resizable=0;points=[];autosize=1;strokeColor=none;fillColor=none;" parent="1" vertex="1">
          <mxGeometry x="1780" y="-760" width="110" height="30" as="geometry" />
        </mxCell>
        <mxCell id="MWJ0W-gvaDlnfUPghBey-36" value="&lt;div&gt;&lt;span style=&quot;background-color: initial;&quot;&gt;Lo: 10.16.1.1/32&lt;/span&gt;&lt;br&gt;&lt;/div&gt;&lt;div&gt;VTEP: 10.16.4.1/32&lt;/div&gt;&lt;div&gt;&lt;font color=&quot;#b20000&quot;&gt;Vlan11: 192.168.11.254/24&lt;/font&gt;&lt;/div&gt;" style="text;html=1;align=center;verticalAlign=middle;resizable=0;points=[];autosize=1;strokeColor=none;fillColor=none;labelBorderColor=default;fontSize=11;" parent="1" vertex="1">
          <mxGeometry x="70.09" y="-105.22999999999999" width="150" height="50" as="geometry" />
        </mxCell>
        <mxCell id="MWJ0W-gvaDlnfUPghBey-37" value="&lt;div&gt;&lt;span style=&quot;background-color: initial;&quot;&gt;Lo: 10.16.1.3/32&lt;/span&gt;&lt;br&gt;&lt;/div&gt;&lt;div&gt;VTEP: 10.16.4.3/32&lt;/div&gt;" style="text;html=1;align=center;verticalAlign=middle;resizable=0;points=[];autosize=1;strokeColor=none;fillColor=none;labelBorderColor=default;" parent="1" vertex="1">
          <mxGeometry x="880" y="-100.23000000000002" width="130" height="40" as="geometry" />
        </mxCell>
        <mxCell id="MWJ0W-gvaDlnfUPghBey-39" value="Point-to-Point: 10.16.2.0/23" style="text;html=1;align=center;verticalAlign=middle;resizable=0;points=[];autosize=1;strokeColor=default;fillColor=default;gradientColor=none;" parent="1" vertex="1">
          <mxGeometry x="-180" y="-450" width="170" height="30" as="geometry" />
        </mxCell>
        <mxCell id="MWJ0W-gvaDlnfUPghBey-59" value="" style="edgeStyle=orthogonalEdgeStyle;rounded=0;orthogonalLoop=1;jettySize=auto;html=1;" parent="1" source="MWJ0W-gvaDlnfUPghBey-47" target="MWJ0W-gvaDlnfUPghBey-58" edge="1">
          <mxGeometry relative="1" as="geometry">
            <Array as="points">
              <mxPoint x="-685" y="-460" />
              <mxPoint x="-815" y="-460" />
            </Array>
          </mxGeometry>
        </mxCell>
        <mxCell id="MWJ0W-gvaDlnfUPghBey-61" value="" style="edgeStyle=orthogonalEdgeStyle;rounded=0;orthogonalLoop=1;jettySize=auto;html=1;" parent="1" source="MWJ0W-gvaDlnfUPghBey-47" target="MWJ0W-gvaDlnfUPghBey-60" edge="1">
          <mxGeometry relative="1" as="geometry" />
        </mxCell>
        <mxCell id="MWJ0W-gvaDlnfUPghBey-64" value="" style="edgeStyle=orthogonalEdgeStyle;rounded=0;orthogonalLoop=1;jettySize=auto;html=1;" parent="1" source="MWJ0W-gvaDlnfUPghBey-47" target="MWJ0W-gvaDlnfUPghBey-62" edge="1">
          <mxGeometry relative="1" as="geometry">
            <Array as="points">
              <mxPoint x="-685" y="-460" />
              <mxPoint x="-575" y="-460" />
            </Array>
          </mxGeometry>
        </mxCell>
        <mxCell id="MWJ0W-gvaDlnfUPghBey-66" value="" style="edgeStyle=orthogonalEdgeStyle;rounded=0;orthogonalLoop=1;jettySize=auto;html=1;" parent="1" source="MWJ0W-gvaDlnfUPghBey-47" target="MWJ0W-gvaDlnfUPghBey-65" edge="1">
          <mxGeometry relative="1" as="geometry">
            <Array as="points">
              <mxPoint x="-685" y="-460" />
              <mxPoint x="-415" y="-460" />
            </Array>
          </mxGeometry>
        </mxCell>
        <mxCell id="MWJ0W-gvaDlnfUPghBey-67" style="edgeStyle=orthogonalEdgeStyle;rounded=0;orthogonalLoop=1;jettySize=auto;html=1;entryX=0.5;entryY=0;entryDx=0;entryDy=0;" parent="1" source="MWJ0W-gvaDlnfUPghBey-47" target="MWJ0W-gvaDlnfUPghBey-56" edge="1">
          <mxGeometry relative="1" as="geometry">
            <Array as="points">
              <mxPoint x="-685" y="-460" />
              <mxPoint x="-945" y="-460" />
            </Array>
          </mxGeometry>
        </mxCell>
        <mxCell id="MWJ0W-gvaDlnfUPghBey-47" value="&lt;div&gt;&lt;span style=&quot;background-color: initial;&quot;&gt;ДЦ Мидгард&lt;/span&gt;&lt;/div&gt;&lt;div&gt;&lt;span style=&quot;background-color: initial;&quot;&gt;DC1&lt;/span&gt;&lt;/div&gt;&lt;div&gt;&lt;span style=&quot;background-color: initial;&quot;&gt;10.16.0.0/20&lt;/span&gt;&lt;br&gt;&lt;/div&gt;" style="text;html=1;align=center;verticalAlign=middle;resizable=0;points=[];autosize=1;strokeColor=#006EAF;fillColor=#1ba1e2;fontColor=#ffffff;" parent="1" vertex="1">
          <mxGeometry x="-730" y="-570" width="90" height="60" as="geometry" />
        </mxCell>
        <mxCell id="MWJ0W-gvaDlnfUPghBey-56" value="Spine&lt;div&gt;10.16.0.0/24&lt;/div&gt;" style="whiteSpace=wrap;html=1;resizable=0;autosize=1;fillColor=#e3c800;fontColor=#000000;strokeColor=#B09500;" parent="1" vertex="1">
          <mxGeometry x="-990" y="-380" width="90" height="40" as="geometry" />
        </mxCell>
        <mxCell id="MWJ0W-gvaDlnfUPghBey-58" value="Leaf&lt;div&gt;10.16.1.0/24&lt;/div&gt;" style="whiteSpace=wrap;html=1;resizable=0;autosize=1;fillColor=#e3c800;fontColor=#000000;strokeColor=#B09500;" parent="1" vertex="1">
          <mxGeometry x="-860" y="-380" width="90" height="40" as="geometry" />
        </mxCell>
        <mxCell id="MWJ0W-gvaDlnfUPghBey-60" value="Point-to-Point&lt;div&gt;10.16.2.0/23&lt;/div&gt;" style="whiteSpace=wrap;html=1;resizable=0;autosize=1;fillColor=#e3c800;fontColor=#000000;strokeColor=#B09500;" parent="1" vertex="1">
          <mxGeometry x="-735" y="-380" width="100" height="40" as="geometry" />
        </mxCell>
        <mxCell id="MWJ0W-gvaDlnfUPghBey-62" value="VTEP&lt;div&gt;10.16.4.0/24&lt;/div&gt;" style="whiteSpace=wrap;html=1;resizable=0;autosize=1;fillColor=#e3c800;fontColor=#000000;strokeColor=#B09500;" parent="1" vertex="1">
          <mxGeometry x="-610" y="-380" width="90" height="40" as="geometry" />
        </mxCell>
        <mxCell id="MWJ0W-gvaDlnfUPghBey-65" value="Reserved&lt;div&gt;10.16.5.0/24 - 10.16.15.0/24&lt;/div&gt;" style="whiteSpace=wrap;html=1;resizable=0;autosize=1;fillColor=#0050ef;fontColor=#ffffff;strokeColor=#001DBC;" parent="1" vertex="1">
          <mxGeometry x="-500" y="-380" width="170" height="40" as="geometry" />
        </mxCell>
        <mxCell id="OsJ4YcX7az4B2sDPAUP7-1" value="&lt;font style=&quot;font-size: 12px;&quot;&gt;AS&amp;nbsp;&lt;span style=&quot;font-family: -apple-system, &amp;quot;system-ui&amp;quot;, &amp;quot;Segoe UI&amp;quot;, &amp;quot;Noto Sans&amp;quot;, Helvetica, Arial, sans-serif, &amp;quot;Apple Color Emoji&amp;quot;, &amp;quot;Segoe UI Emoji&amp;quot;; text-align: start; text-wrap: wrap;&quot;&gt;4200131329&lt;/span&gt;&lt;/font&gt;" style="text;html=1;align=center;verticalAlign=middle;resizable=0;points=[];autosize=1;strokeColor=none;fillColor=none;labelBorderColor=default;labelBackgroundColor=default;" parent="1" vertex="1">
          <mxGeometry x="1110" y="-800" width="110" height="30" as="geometry" />
        </mxCell>
        <mxCell id="OsJ4YcX7az4B2sDPAUP7-3" value="AS: 4200131331" style="text;html=1;align=center;verticalAlign=middle;resizable=0;points=[];autosize=1;strokeColor=default;fillColor=default;" parent="1" vertex="1">
          <mxGeometry x="75" y="-180.23" width="110" height="30" as="geometry" />
        </mxCell>
        <mxCell id="OsJ4YcX7az4B2sDPAUP7-5" value="AS: 4200131333" style="text;html=1;align=center;verticalAlign=middle;resizable=0;points=[];autosize=1;strokeColor=default;fillColor=default;" parent="1" vertex="1">
          <mxGeometry x="865" y="-180.23" width="110" height="30" as="geometry" />
        </mxCell>
        <mxCell id="OsJ4YcX7az4B2sDPAUP7-7" value="AS: 4200131335" style="text;html=1;align=center;verticalAlign=middle;resizable=0;points=[];autosize=1;strokeColor=default;fillColor=default;" parent="1" vertex="1">
          <mxGeometry x="1645" y="-180.23000000000002" width="110" height="30" as="geometry" />
        </mxCell>
        <mxCell id="TpHYWn0pxvChTnbQkmgb-1" value="" style="rounded=1;whiteSpace=wrap;html=1;fillColor=#d5e8d4;strokeColor=#82b366;" parent="1" vertex="1">
          <mxGeometry x="405" y="-190.23" width="300" height="140" as="geometry" />
        </mxCell>
        <mxCell id="TpHYWn0pxvChTnbQkmgb-2" value="" style="sketch=0;points=[[0.015,0.015,0],[0.985,0.015,0],[0.985,0.985,0],[0.015,0.985,0],[0.25,0,0],[0.5,0,0],[0.75,0,0],[1,0.25,0],[1,0.5,0],[1,0.75,0],[0.75,1,0],[0.5,1,0],[0.25,1,0],[0,0.75,0],[0,0.5,0],[0,0.25,0]];verticalLabelPosition=bottom;html=1;verticalAlign=top;aspect=fixed;align=center;pointerEvents=1;shape=mxgraph.cisco19.rect;prIcon=l3_switch;fillColor=#FAFAFA;strokeColor=#005073;" parent="1" vertex="1">
          <mxGeometry x="600" y="-170.23" width="50" height="50" as="geometry" />
        </mxCell>
        <mxCell id="TpHYWn0pxvChTnbQkmgb-5" value="no-osl-dc1-f1-r03k01-lf02" style="text;html=1;align=center;verticalAlign=middle;resizable=0;points=[];autosize=1;strokeColor=default;fillColor=default;" parent="1" vertex="1">
          <mxGeometry x="420" y="-140.23" width="160" height="30" as="geometry" />
        </mxCell>
        <mxCell id="TpHYWn0pxvChTnbQkmgb-6" value="&lt;div&gt;&lt;span style=&quot;background-color: initial;&quot;&gt;Lo: 10.16.1.2/32&lt;/span&gt;&lt;br&gt;&lt;/div&gt;&lt;div&gt;VTEP: 10.16.4.2/32&lt;/div&gt;" style="text;html=1;align=center;verticalAlign=middle;resizable=0;points=[];autosize=1;strokeColor=none;fillColor=none;labelBorderColor=default;" parent="1" vertex="1">
          <mxGeometry x="435" y="-100.22999999999999" width="130" height="40" as="geometry" />
        </mxCell>
        <mxCell id="TpHYWn0pxvChTnbQkmgb-7" value="AS: 4200131332" style="text;html=1;align=center;verticalAlign=middle;resizable=0;points=[];autosize=1;strokeColor=default;fillColor=default;" parent="1" vertex="1">
          <mxGeometry x="420" y="-180.23" width="110" height="30" as="geometry" />
        </mxCell>
        <mxCell id="TpHYWn0pxvChTnbQkmgb-8" style="rounded=0;orthogonalLoop=1;jettySize=auto;html=1;exitX=0.5;exitY=1;exitDx=0;exitDy=0;exitPerimeter=0;entryX=0.5;entryY=0;entryDx=0;entryDy=0;entryPerimeter=0;endArrow=none;endFill=0;fillColor=#dae8fc;gradientColor=#7ea6e0;strokeColor=#6c8ebf;" parent="1" source="TpHYWn0pxvChTnbQkmgb-2" target="MWJ0W-gvaDlnfUPghBey-12" edge="1">
          <mxGeometry relative="1" as="geometry" />
        </mxCell>
        <mxCell id="TpHYWn0pxvChTnbQkmgb-9" value="" style="rounded=1;whiteSpace=wrap;html=1;fillColor=#dae8fc;strokeColor=#6c8ebf;" parent="1" vertex="1">
          <mxGeometry x="1185" y="-190.23" width="300" height="140" as="geometry" />
        </mxCell>
        <mxCell id="TpHYWn0pxvChTnbQkmgb-10" value="" style="sketch=0;points=[[0.015,0.015,0],[0.985,0.015,0],[0.985,0.985,0],[0.015,0.985,0],[0.25,0,0],[0.5,0,0],[0.75,0,0],[1,0.25,0],[1,0.5,0],[1,0.75,0],[0.75,1,0],[0.5,1,0],[0.25,1,0],[0,0.75,0],[0,0.5,0],[0,0.25,0]];verticalLabelPosition=bottom;html=1;verticalAlign=top;aspect=fixed;align=center;pointerEvents=1;shape=mxgraph.cisco19.rect;prIcon=l3_switch;fillColor=#FAFAFA;strokeColor=#005073;" parent="1" vertex="1">
          <mxGeometry x="1380" y="-170.23" width="50" height="50" as="geometry" />
        </mxCell>
        <mxCell id="TpHYWn0pxvChTnbQkmgb-12" style="rounded=0;orthogonalLoop=1;jettySize=auto;html=1;exitX=0.5;exitY=1;exitDx=0;exitDy=0;exitPerimeter=0;entryX=0.5;entryY=0;entryDx=0;entryDy=0;entryPerimeter=0;endArrow=none;endFill=0;fillColor=#dae8fc;gradientColor=#7ea6e0;strokeColor=#6c8ebf;" parent="1" source="TpHYWn0pxvChTnbQkmgb-10" target="MWJ0W-gvaDlnfUPghBey-13" edge="1">
          <mxGeometry relative="1" as="geometry">
            <mxPoint x="1405" y="-30.230000000000246" as="targetPoint" />
          </mxGeometry>
        </mxCell>
        <mxCell id="TpHYWn0pxvChTnbQkmgb-13" value="no-osl-dc1-f1-r03k02-lf02" style="text;html=1;align=center;verticalAlign=middle;resizable=0;points=[];autosize=1;strokeColor=default;fillColor=default;" parent="1" vertex="1">
          <mxGeometry x="1205" y="-140.23" width="160" height="30" as="geometry" />
        </mxCell>
        <mxCell id="TpHYWn0pxvChTnbQkmgb-14" value="&lt;div&gt;&lt;span style=&quot;background-color: initial;&quot;&gt;Lo: 10.16.1.4/32&lt;/span&gt;&lt;br&gt;&lt;/div&gt;&lt;div&gt;VTEP: 10.16.4.4/32&lt;/div&gt;" style="text;html=1;align=center;verticalAlign=middle;resizable=0;points=[];autosize=1;strokeColor=none;fillColor=none;labelBorderColor=default;" parent="1" vertex="1">
          <mxGeometry x="1220" y="-100.23000000000002" width="130" height="40" as="geometry" />
        </mxCell>
        <mxCell id="TpHYWn0pxvChTnbQkmgb-15" value="AS: 4200131334" style="text;html=1;align=center;verticalAlign=middle;resizable=0;points=[];autosize=1;strokeColor=default;fillColor=default;" parent="1" vertex="1">
          <mxGeometry x="1205" y="-180.23" width="110" height="30" as="geometry" />
        </mxCell>
        <mxCell id="TpHYWn0pxvChTnbQkmgb-16" value="" style="rounded=1;whiteSpace=wrap;html=1;fillColor=#e1d5e7;strokeColor=#9673a6;" parent="1" vertex="1">
          <mxGeometry x="1980" y="-190.23000000000002" width="300" height="140" as="geometry" />
        </mxCell>
        <mxCell id="TpHYWn0pxvChTnbQkmgb-17" value="" style="sketch=0;points=[[0.015,0.015,0],[0.985,0.015,0],[0.985,0.985,0],[0.015,0.985,0],[0.25,0,0],[0.5,0,0],[0.75,0,0],[1,0.25,0],[1,0.5,0],[1,0.75,0],[0.75,1,0],[0.5,1,0],[0.25,1,0],[0,0.75,0],[0,0.5,0],[0,0.25,0]];verticalLabelPosition=bottom;html=1;verticalAlign=top;aspect=fixed;align=center;pointerEvents=1;shape=mxgraph.cisco19.rect;prIcon=l3_switch;fillColor=#FAFAFA;strokeColor=#005073;" parent="1" vertex="1">
          <mxGeometry x="2175" y="-170.23000000000002" width="50" height="50" as="geometry" />
        </mxCell>
        <mxCell id="TpHYWn0pxvChTnbQkmgb-22" value="no-osl-dc1-f1-r03k03-lf02" style="text;html=1;align=center;verticalAlign=middle;resizable=0;points=[];autosize=1;strokeColor=default;fillColor=default;" parent="1" vertex="1">
          <mxGeometry x="1995" y="-140.23000000000002" width="160" height="30" as="geometry" />
        </mxCell>
        <mxCell id="TpHYWn0pxvChTnbQkmgb-23" value="&lt;div&gt;&lt;span style=&quot;background-color: initial;&quot;&gt;Lo: 10.16.1.6/32&lt;/span&gt;&lt;br&gt;&lt;/div&gt;&lt;div&gt;VTEP: 10.16.4.6/32&lt;/div&gt;" style="text;html=1;align=center;verticalAlign=middle;resizable=0;points=[];autosize=1;strokeColor=none;fillColor=none;labelBorderColor=default;" parent="1" vertex="1">
          <mxGeometry x="2010" y="-100.23000000000002" width="130" height="40" as="geometry" />
        </mxCell>
        <mxCell id="TpHYWn0pxvChTnbQkmgb-24" value="AS: 4200131336" style="text;html=1;align=center;verticalAlign=middle;resizable=0;points=[];autosize=1;strokeColor=default;fillColor=default;" parent="1" vertex="1">
          <mxGeometry x="1995" y="-180.23000000000002" width="110" height="30" as="geometry" />
        </mxCell>
        <mxCell id="TpHYWn0pxvChTnbQkmgb-25" style="rounded=0;orthogonalLoop=1;jettySize=auto;html=1;exitX=0.5;exitY=1;exitDx=0;exitDy=0;exitPerimeter=0;entryX=0.5;entryY=0;entryDx=0;entryDy=0;entryPerimeter=0;endArrow=none;endFill=0;fillColor=#dae8fc;gradientColor=#7ea6e0;strokeColor=#6c8ebf;" parent="1" source="MWJ0W-gvaDlnfUPghBey-1" target="MWJ0W-gvaDlnfUPghBey-3" edge="1">
          <mxGeometry relative="1" as="geometry" />
        </mxCell>
        <mxCell id="TpHYWn0pxvChTnbQkmgb-38" value="Ethernet 1&lt;div&gt;10.16.2.0/31&lt;/div&gt;" style="edgeLabel;html=1;align=center;verticalAlign=middle;resizable=0;points=[];labelBorderColor=default;" parent="TpHYWn0pxvChTnbQkmgb-25" vertex="1" connectable="0">
          <mxGeometry x="-0.1609" y="1" relative="1" as="geometry">
            <mxPoint as="offset" />
          </mxGeometry>
        </mxCell>
        <mxCell id="TpHYWn0pxvChTnbQkmgb-44" value="Ethernet 1&lt;div&gt;10.16.2.1/31&lt;/div&gt;" style="edgeLabel;html=1;align=center;verticalAlign=middle;resizable=0;points=[];labelBorderColor=default;" parent="TpHYWn0pxvChTnbQkmgb-25" vertex="1" connectable="0">
          <mxGeometry x="0.765" y="-1" relative="1" as="geometry">
            <mxPoint y="-5" as="offset" />
          </mxGeometry>
        </mxCell>
        <mxCell id="TpHYWn0pxvChTnbQkmgb-26" style="rounded=0;orthogonalLoop=1;jettySize=auto;html=1;exitX=0.5;exitY=1;exitDx=0;exitDy=0;exitPerimeter=0;endArrow=none;endFill=0;fillColor=#dae8fc;gradientColor=#7ea6e0;strokeColor=#6c8ebf;entryX=0.5;entryY=0;entryDx=0;entryDy=0;entryPerimeter=0;" parent="1" source="MWJ0W-gvaDlnfUPghBey-1" target="TpHYWn0pxvChTnbQkmgb-2" edge="1">
          <mxGeometry relative="1" as="geometry">
            <mxPoint x="1010" y="-690" as="sourcePoint" />
            <mxPoint x="730" y="-240" as="targetPoint" />
          </mxGeometry>
        </mxCell>
        <mxCell id="TpHYWn0pxvChTnbQkmgb-39" value="Ethernet 2&lt;div&gt;10.16.2.2/31&lt;/div&gt;" style="edgeLabel;html=1;align=center;verticalAlign=middle;resizable=0;points=[];labelBorderColor=default;" parent="TpHYWn0pxvChTnbQkmgb-26" vertex="1" connectable="0">
          <mxGeometry x="-0.1655" y="1" relative="1" as="geometry">
            <mxPoint as="offset" />
          </mxGeometry>
        </mxCell>
        <mxCell id="TpHYWn0pxvChTnbQkmgb-46" value="Ethernet 1&lt;div&gt;10.16.2.3/31&lt;/div&gt;" style="edgeLabel;html=1;align=center;verticalAlign=middle;resizable=0;points=[];labelBorderColor=default;" parent="TpHYWn0pxvChTnbQkmgb-26" vertex="1" connectable="0">
          <mxGeometry x="0.73" relative="1" as="geometry">
            <mxPoint y="4" as="offset" />
          </mxGeometry>
        </mxCell>
        <mxCell id="TpHYWn0pxvChTnbQkmgb-27" style="rounded=0;orthogonalLoop=1;jettySize=auto;html=1;exitX=0.5;exitY=1;exitDx=0;exitDy=0;exitPerimeter=0;entryX=0.5;entryY=0;entryDx=0;entryDy=0;entryPerimeter=0;endArrow=none;endFill=0;fillColor=#dae8fc;gradientColor=#7ea6e0;strokeColor=#6c8ebf;" parent="1" source="MWJ0W-gvaDlnfUPghBey-1" target="MWJ0W-gvaDlnfUPghBey-4" edge="1">
          <mxGeometry relative="1" as="geometry">
            <mxPoint x="1365" y="-850" as="sourcePoint" />
            <mxPoint x="990" y="-320" as="targetPoint" />
          </mxGeometry>
        </mxCell>
        <mxCell id="TpHYWn0pxvChTnbQkmgb-40" value="Ethernet 3&lt;div&gt;10.16.2.4/31&lt;/div&gt;" style="edgeLabel;html=1;align=center;verticalAlign=middle;resizable=0;points=[];labelBorderColor=default;" parent="TpHYWn0pxvChTnbQkmgb-27" vertex="1" connectable="0">
          <mxGeometry x="-0.1641" relative="1" as="geometry">
            <mxPoint as="offset" />
          </mxGeometry>
        </mxCell>
        <mxCell id="TpHYWn0pxvChTnbQkmgb-48" value="Ethernet 1&lt;div&gt;10.16.2.5/31&lt;/div&gt;" style="edgeLabel;html=1;align=center;verticalAlign=middle;resizable=0;points=[];labelBorderColor=default;" parent="TpHYWn0pxvChTnbQkmgb-27" vertex="1" connectable="0">
          <mxGeometry x="0.7241" y="2" relative="1" as="geometry">
            <mxPoint y="8" as="offset" />
          </mxGeometry>
        </mxCell>
        <mxCell id="TpHYWn0pxvChTnbQkmgb-28" style="rounded=0;orthogonalLoop=1;jettySize=auto;html=1;exitX=0.5;exitY=1;exitDx=0;exitDy=0;exitPerimeter=0;entryX=0.5;entryY=0;entryDx=0;entryDy=0;entryPerimeter=0;endArrow=none;endFill=0;fillColor=#dae8fc;gradientColor=#7ea6e0;strokeColor=#6c8ebf;" parent="1" source="MWJ0W-gvaDlnfUPghBey-1" target="TpHYWn0pxvChTnbQkmgb-10" edge="1">
          <mxGeometry relative="1" as="geometry">
            <mxPoint x="1192.5" y="-760" as="sourcePoint" />
            <mxPoint x="1257.5" y="-230" as="targetPoint" />
          </mxGeometry>
        </mxCell>
        <mxCell id="TpHYWn0pxvChTnbQkmgb-41" value="Ethernet 4&lt;div&gt;10.16.2.6/31&lt;/div&gt;" style="edgeLabel;html=1;align=center;verticalAlign=middle;resizable=0;points=[];labelBorderColor=default;" parent="TpHYWn0pxvChTnbQkmgb-28" vertex="1" connectable="0">
          <mxGeometry x="-0.1491" y="1" relative="1" as="geometry">
            <mxPoint x="-6" y="-3" as="offset" />
          </mxGeometry>
        </mxCell>
        <mxCell id="TpHYWn0pxvChTnbQkmgb-50" value="Ethernet 1&lt;div&gt;10.16.2.7/31&lt;/div&gt;" style="edgeLabel;html=1;align=center;verticalAlign=middle;resizable=0;points=[];labelBorderColor=default;" parent="TpHYWn0pxvChTnbQkmgb-28" vertex="1" connectable="0">
          <mxGeometry x="0.7382" y="2" relative="1" as="geometry">
            <mxPoint y="1" as="offset" />
          </mxGeometry>
        </mxCell>
        <mxCell id="TpHYWn0pxvChTnbQkmgb-29" style="rounded=0;orthogonalLoop=1;jettySize=auto;html=1;exitX=0.5;exitY=1;exitDx=0;exitDy=0;exitPerimeter=0;entryX=0.5;entryY=0;entryDx=0;entryDy=0;entryPerimeter=0;endArrow=none;endFill=0;fillColor=#dae8fc;gradientColor=#7ea6e0;strokeColor=#6c8ebf;" parent="1" source="MWJ0W-gvaDlnfUPghBey-1" target="MWJ0W-gvaDlnfUPghBey-5" edge="1">
          <mxGeometry relative="1" as="geometry">
            <mxPoint x="1300" y="-750" as="sourcePoint" />
            <mxPoint x="1705" y="-220" as="targetPoint" />
          </mxGeometry>
        </mxCell>
        <mxCell id="TpHYWn0pxvChTnbQkmgb-42" value="Ethernet 5&lt;div&gt;10.16.2.8/31&lt;/div&gt;" style="edgeLabel;html=1;align=center;verticalAlign=middle;resizable=0;points=[];labelBorderColor=default;" parent="TpHYWn0pxvChTnbQkmgb-29" vertex="1" connectable="0">
          <mxGeometry x="-0.1605" y="2" relative="1" as="geometry">
            <mxPoint x="2" as="offset" />
          </mxGeometry>
        </mxCell>
        <mxCell id="TpHYWn0pxvChTnbQkmgb-52" value="Ethernet 1&lt;div&gt;10.16.2.9/31&lt;/div&gt;" style="edgeLabel;html=1;align=center;verticalAlign=middle;resizable=0;points=[];labelBorderColor=default;" parent="TpHYWn0pxvChTnbQkmgb-29" vertex="1" connectable="0">
          <mxGeometry x="0.7309" relative="1" as="geometry">
            <mxPoint as="offset" />
          </mxGeometry>
        </mxCell>
        <mxCell id="TpHYWn0pxvChTnbQkmgb-30" style="rounded=0;orthogonalLoop=1;jettySize=auto;html=1;exitX=0.5;exitY=1;exitDx=0;exitDy=0;exitPerimeter=0;entryX=0.5;entryY=0;entryDx=0;entryDy=0;entryPerimeter=0;endArrow=none;endFill=0;fillColor=#dae8fc;gradientColor=#7ea6e0;strokeColor=#6c8ebf;" parent="1" source="MWJ0W-gvaDlnfUPghBey-1" target="TpHYWn0pxvChTnbQkmgb-17" edge="1">
          <mxGeometry relative="1" as="geometry">
            <mxPoint x="1600" y="-690" as="sourcePoint" />
            <mxPoint x="2005" y="-160" as="targetPoint" />
          </mxGeometry>
        </mxCell>
        <mxCell id="TpHYWn0pxvChTnbQkmgb-43" value="Ethernet 6&lt;div&gt;10.16.2.10/31&lt;/div&gt;" style="edgeLabel;html=1;align=center;verticalAlign=middle;resizable=0;points=[];labelBorderColor=default;" parent="TpHYWn0pxvChTnbQkmgb-30" vertex="1" connectable="0">
          <mxGeometry x="-0.1489" y="1" relative="1" as="geometry">
            <mxPoint x="-15" y="-3" as="offset" />
          </mxGeometry>
        </mxCell>
        <mxCell id="TpHYWn0pxvChTnbQkmgb-54" value="Ethernet 1&lt;div&gt;10.16.2.11/31&lt;/div&gt;" style="edgeLabel;html=1;align=center;verticalAlign=middle;resizable=0;points=[];labelBorderColor=default;" parent="TpHYWn0pxvChTnbQkmgb-30" vertex="1" connectable="0">
          <mxGeometry x="0.7375" y="2" relative="1" as="geometry">
            <mxPoint as="offset" />
          </mxGeometry>
        </mxCell>
        <mxCell id="TpHYWn0pxvChTnbQkmgb-34" style="rounded=0;orthogonalLoop=1;jettySize=auto;html=1;exitX=0.5;exitY=1;exitDx=0;exitDy=0;exitPerimeter=0;entryX=0.5;entryY=0;entryDx=0;entryDy=0;entryPerimeter=0;endArrow=none;endFill=0;fillColor=#008a00;strokeColor=#005700;jumpStyle=arc;" parent="1" source="MWJ0W-gvaDlnfUPghBey-2" target="TpHYWn0pxvChTnbQkmgb-2" edge="1">
          <mxGeometry relative="1" as="geometry">
            <mxPoint x="1660" y="10" as="sourcePoint" />
            <mxPoint x="940" y="540" as="targetPoint" />
          </mxGeometry>
        </mxCell>
        <mxCell id="TpHYWn0pxvChTnbQkmgb-47" value="Ethernet 2&lt;div&gt;10.16.2.103/31&lt;/div&gt;" style="edgeLabel;html=1;align=center;verticalAlign=middle;resizable=0;points=[];labelBorderColor=default;" parent="TpHYWn0pxvChTnbQkmgb-34" vertex="1" connectable="0">
          <mxGeometry x="0.7529" y="-4" relative="1" as="geometry">
            <mxPoint x="11" as="offset" />
          </mxGeometry>
        </mxCell>
        <mxCell id="TpHYWn0pxvChTnbQkmgb-66" value="Ethernet 2&lt;div&gt;10.16.2.102/31&lt;/div&gt;" style="edgeLabel;html=1;align=center;verticalAlign=middle;resizable=0;points=[];labelBorderColor=default;" parent="TpHYWn0pxvChTnbQkmgb-34" vertex="1" connectable="0">
          <mxGeometry x="-0.1396" relative="1" as="geometry">
            <mxPoint x="11" y="-6" as="offset" />
          </mxGeometry>
        </mxCell>
        <mxCell id="TpHYWn0pxvChTnbQkmgb-35" style="rounded=0;orthogonalLoop=1;jettySize=auto;html=1;exitX=0.5;exitY=1;exitDx=0;exitDy=0;exitPerimeter=0;entryX=0.5;entryY=0;entryDx=0;entryDy=0;entryPerimeter=0;endArrow=none;endFill=0;fillColor=#008a00;strokeColor=#005700;jumpStyle=arc;" parent="1" source="MWJ0W-gvaDlnfUPghBey-2" target="MWJ0W-gvaDlnfUPghBey-4" edge="1">
          <mxGeometry relative="1" as="geometry">
            <mxPoint x="1660" y="10" as="sourcePoint" />
            <mxPoint x="940" y="540" as="targetPoint" />
          </mxGeometry>
        </mxCell>
        <mxCell id="TpHYWn0pxvChTnbQkmgb-49" value="Ethernet 2&lt;div&gt;10.16.2.105/31&lt;/div&gt;" style="edgeLabel;html=1;align=center;verticalAlign=middle;resizable=0;points=[];labelBorderColor=default;" parent="TpHYWn0pxvChTnbQkmgb-35" vertex="1" connectable="0">
          <mxGeometry x="0.7428" y="-3" relative="1" as="geometry">
            <mxPoint as="offset" />
          </mxGeometry>
        </mxCell>
        <mxCell id="TpHYWn0pxvChTnbQkmgb-67" value="Ethernet 3&lt;div&gt;10.16.2.104/31&lt;/div&gt;" style="edgeLabel;html=1;align=center;verticalAlign=middle;resizable=0;points=[];labelBorderColor=default;" parent="TpHYWn0pxvChTnbQkmgb-35" vertex="1" connectable="0">
          <mxGeometry x="-0.1437" y="-2" relative="1" as="geometry">
            <mxPoint x="1" y="-3" as="offset" />
          </mxGeometry>
        </mxCell>
        <mxCell id="TpHYWn0pxvChTnbQkmgb-36" style="rounded=0;orthogonalLoop=1;jettySize=auto;html=1;exitX=0.5;exitY=1;exitDx=0;exitDy=0;exitPerimeter=0;entryX=0.5;entryY=0;entryDx=0;entryDy=0;entryPerimeter=0;endArrow=none;endFill=0;fillColor=#008a00;strokeColor=#005700;jumpStyle=arc;" parent="1" source="MWJ0W-gvaDlnfUPghBey-2" target="TpHYWn0pxvChTnbQkmgb-10" edge="1">
          <mxGeometry relative="1" as="geometry">
            <mxPoint x="1660" y="10" as="sourcePoint" />
            <mxPoint x="940" y="540" as="targetPoint" />
          </mxGeometry>
        </mxCell>
        <mxCell id="TpHYWn0pxvChTnbQkmgb-51" value="Ethernet 2&lt;div&gt;10.16.2.107/31&lt;/div&gt;" style="edgeLabel;html=1;align=center;verticalAlign=middle;resizable=0;points=[];labelBorderColor=default;" parent="TpHYWn0pxvChTnbQkmgb-36" vertex="1" connectable="0">
          <mxGeometry x="0.7317" y="-1" relative="1" as="geometry">
            <mxPoint y="1" as="offset" />
          </mxGeometry>
        </mxCell>
        <mxCell id="TpHYWn0pxvChTnbQkmgb-68" value="Ethernet 4&lt;div&gt;10.16.2.106/31&lt;/div&gt;" style="edgeLabel;html=1;align=center;verticalAlign=middle;resizable=0;points=[];labelBorderColor=default;" parent="TpHYWn0pxvChTnbQkmgb-36" vertex="1" connectable="0">
          <mxGeometry x="-0.1439" y="-3" relative="1" as="geometry">
            <mxPoint y="-3" as="offset" />
          </mxGeometry>
        </mxCell>
        <mxCell id="TpHYWn0pxvChTnbQkmgb-37" style="rounded=0;orthogonalLoop=1;jettySize=auto;html=1;exitX=0.5;exitY=1;exitDx=0;exitDy=0;exitPerimeter=0;endArrow=none;endFill=0;fillColor=#008a00;strokeColor=#005700;jumpStyle=arc;" parent="1" source="MWJ0W-gvaDlnfUPghBey-2" edge="1">
          <mxGeometry relative="1" as="geometry">
            <mxPoint x="1660" y="10" as="sourcePoint" />
            <mxPoint x="2200" y="-170" as="targetPoint" />
          </mxGeometry>
        </mxCell>
        <mxCell id="TpHYWn0pxvChTnbQkmgb-55" value="Ethernet 2&lt;div&gt;10.16.2.111/31&lt;/div&gt;" style="edgeLabel;html=1;align=center;verticalAlign=middle;resizable=0;points=[];labelBorderColor=default;" parent="TpHYWn0pxvChTnbQkmgb-37" vertex="1" connectable="0">
          <mxGeometry x="0.7328" y="2" relative="1" as="geometry">
            <mxPoint as="offset" />
          </mxGeometry>
        </mxCell>
        <mxCell id="TpHYWn0pxvChTnbQkmgb-70" value="Ethernet 6&lt;div&gt;10.16.2.110/31&lt;/div&gt;" style="edgeLabel;html=1;align=center;verticalAlign=middle;resizable=0;points=[];labelBorderColor=default;" parent="TpHYWn0pxvChTnbQkmgb-37" vertex="1" connectable="0">
          <mxGeometry x="-0.1506" relative="1" as="geometry">
            <mxPoint y="-4" as="offset" />
          </mxGeometry>
        </mxCell>
        <mxCell id="TpHYWn0pxvChTnbQkmgb-61" value="Rack 1" style="text;html=1;align=center;verticalAlign=middle;resizable=0;points=[];autosize=1;strokeColor=default;fillColor=default;" parent="1" vertex="1">
          <mxGeometry x="80" y="60" width="60" height="30" as="geometry" />
        </mxCell>
        <mxCell id="TpHYWn0pxvChTnbQkmgb-62" value="Rack 2" style="text;html=1;align=center;verticalAlign=middle;resizable=0;points=[];autosize=1;strokeColor=default;fillColor=default;" parent="1" vertex="1">
          <mxGeometry x="870" y="60" width="60" height="30" as="geometry" />
        </mxCell>
        <mxCell id="TpHYWn0pxvChTnbQkmgb-63" value="Rack 3" style="text;html=1;align=center;verticalAlign=middle;resizable=0;points=[];autosize=1;strokeColor=default;fillColor=default;" parent="1" vertex="1">
          <mxGeometry x="1660" y="60" width="60" height="30" as="geometry" />
        </mxCell>
        <mxCell id="TpHYWn0pxvChTnbQkmgb-64" value="Border Leaf&lt;div&gt;Service Leaf&lt;/div&gt;" style="text;html=1;align=center;verticalAlign=middle;resizable=0;points=[];autosize=1;strokeColor=default;fillColor=default;" parent="1" vertex="1">
          <mxGeometry x="1645" y="110" width="90" height="40" as="geometry" />
        </mxCell>
        <mxCell id="TpHYWn0pxvChTnbQkmgb-72" value="" style="fillColor=#28A8E0;verticalLabelPosition=bottom;sketch=0;html=1;strokeColor=#ffffff;verticalAlign=top;align=center;points=[[0.145,0.145,0],[0.5,0,0],[0.855,0.145,0],[1,0.5,0],[0.855,0.855,0],[0.5,1,0],[0.145,0.855,0],[0,0.5,0]];pointerEvents=1;shape=mxgraph.cisco_safe.compositeIcon;bgIcon=ellipse;resIcon=mxgraph.cisco_safe.capability.firewall;" parent="1" vertex="1">
          <mxGeometry x="1907" y="210" width="73" height="73" as="geometry" />
        </mxCell>
        <mxCell id="TpHYWn0pxvChTnbQkmgb-73" style="rounded=0;orthogonalLoop=1;jettySize=auto;html=1;entryX=0.5;entryY=1;entryDx=0;entryDy=0;entryPerimeter=0;endArrow=none;endFill=0;exitX=0.5;exitY=0;exitDx=0;exitDy=0;exitPerimeter=0;" parent="1" source="eH8izVKV5pcjw1C5jCsK-7" target="MWJ0W-gvaDlnfUPghBey-5" edge="1">
          <mxGeometry relative="1" as="geometry" />
        </mxCell>
        <mxCell id="TpHYWn0pxvChTnbQkmgb-74" style="rounded=0;orthogonalLoop=1;jettySize=auto;html=1;exitX=0.5;exitY=0.07;exitDx=0;exitDy=0;exitPerimeter=0;entryX=0.5;entryY=1;entryDx=0;entryDy=0;entryPerimeter=0;endArrow=none;endFill=0;" parent="1" source="eH8izVKV5pcjw1C5jCsK-8" target="TpHYWn0pxvChTnbQkmgb-17" edge="1">
          <mxGeometry relative="1" as="geometry" />
        </mxCell>
        <mxCell id="eH8izVKV5pcjw1C5jCsK-2" value="Ethernet 3&lt;div&gt;access vlan 10&lt;/div&gt;" style="edgeLabel;html=1;align=center;verticalAlign=middle;resizable=0;points=[];labelBorderColor=default;" parent="1" vertex="1" connectable="0">
          <mxGeometry x="368.0011126808051" y="-12.984904609111709" as="geometry">
            <mxPoint x="183" y="-6" as="offset" />
          </mxGeometry>
        </mxCell>
        <mxCell id="eH8izVKV5pcjw1C5jCsK-3" value="Ethernet 3&lt;div&gt;access vlan 10&lt;/div&gt;" style="edgeLabel;html=1;align=center;verticalAlign=middle;resizable=0;points=[];labelBorderColor=default;" parent="1" vertex="1" connectable="0">
          <mxGeometry x="950.0011126808051" y="-12.984904609111709" as="geometry">
            <mxPoint x="183" y="-6" as="offset" />
          </mxGeometry>
        </mxCell>
        <mxCell id="eH8izVKV5pcjw1C5jCsK-4" value="Ethernet 3&lt;div&gt;access vlan 10&lt;/div&gt;" style="edgeLabel;html=1;align=center;verticalAlign=middle;resizable=0;points=[];labelBorderColor=default;" parent="1" vertex="1" connectable="0">
          <mxGeometry x="1145.0011126808051" y="-12.984904609111709" as="geometry">
            <mxPoint x="183" y="-6" as="offset" />
          </mxGeometry>
        </mxCell>
        <mxCell id="eH8izVKV5pcjw1C5jCsK-5" value="Ethernet 3&lt;div&gt;access vlan 10&lt;/div&gt;" style="edgeLabel;html=1;align=center;verticalAlign=middle;resizable=0;points=[];labelBorderColor=default;" parent="1" vertex="1" connectable="0">
          <mxGeometry x="1670.0011126808051" y="-12.984904609111709" as="geometry">
            <mxPoint x="183" y="-6" as="offset" />
          </mxGeometry>
        </mxCell>
        <mxCell id="eH8izVKV5pcjw1C5jCsK-6" value="Ethernet 3&lt;div&gt;access vlan 10&lt;/div&gt;" style="edgeLabel;html=1;align=center;verticalAlign=middle;resizable=0;points=[];labelBorderColor=default;" parent="1" vertex="1" connectable="0">
          <mxGeometry x="2020.0011126808051" y="-12.984904609111709" as="geometry">
            <mxPoint x="183" y="-6" as="offset" />
          </mxGeometry>
        </mxCell>
        <mxCell id="eH8izVKV5pcjw1C5jCsK-7" value="" style="sketch=0;points=[[0.015,0.015,0],[0.985,0.015,0],[0.985,0.985,0],[0.015,0.985,0],[0.25,0,0],[0.5,0,0],[0.75,0,0],[1,0.25,0],[1,0.5,0],[1,0.75,0],[0.75,1,0],[0.5,1,0],[0.25,1,0],[0,0.75,0],[0,0.5,0],[0,0.25,0]];verticalLabelPosition=bottom;html=1;verticalAlign=top;aspect=fixed;align=center;pointerEvents=1;shape=mxgraph.cisco19.server;fillColor=#005073;strokeColor=none;" parent="1" vertex="1">
          <mxGeometry x="1836.25" y="104.99999999999997" width="27.500000000000004" height="50" as="geometry" />
        </mxCell>
        <mxCell id="eH8izVKV5pcjw1C5jCsK-8" value="" style="fontColor=#0066CC;verticalAlign=top;verticalLabelPosition=bottom;labelPosition=center;align=center;html=1;outlineConnect=0;fillColor=#CCCCCC;strokeColor=#6881B3;gradientColor=none;gradientDirection=north;strokeWidth=2;shape=mxgraph.networks.pc;" parent="1" vertex="1">
          <mxGeometry x="2180" y="110" width="40" height="40" as="geometry" />
        </mxCell>
        <mxCell id="eH8izVKV5pcjw1C5jCsK-9" value="192.168.10.1/24" style="text;html=1;align=center;verticalAlign=middle;resizable=0;points=[];autosize=1;strokeColor=default;fillColor=none;" parent="1" vertex="1">
          <mxGeometry x="490" y="120" width="110" height="30" as="geometry" />
        </mxCell>
        <mxCell id="eH8izVKV5pcjw1C5jCsK-10" value="192.168.10.2/24" style="text;html=1;align=center;verticalAlign=middle;resizable=0;points=[];autosize=1;strokeColor=default;fillColor=none;" parent="1" vertex="1">
          <mxGeometry x="1270" y="120" width="110" height="30" as="geometry" />
        </mxCell>
        <mxCell id="eH8izVKV5pcjw1C5jCsK-11" value="192.168.10.3/24" style="text;html=1;align=center;verticalAlign=middle;resizable=0;points=[];autosize=1;strokeColor=default;fillColor=none;" parent="1" vertex="1">
          <mxGeometry x="1880" y="115" width="110" height="30" as="geometry" />
        </mxCell>
        <mxCell id="eH8izVKV5pcjw1C5jCsK-12" value="192.168.10.250/24" style="text;html=1;align=center;verticalAlign=middle;resizable=0;points=[];autosize=1;strokeColor=default;fillColor=none;" parent="1" vertex="1">
          <mxGeometry x="2070" y="70" width="120" height="30" as="geometry" />
        </mxCell>
        <mxCell id="DUj9_0CVN8MQ_FfbOPjA-1" value="" style="fontColor=#ffffff;verticalAlign=top;verticalLabelPosition=bottom;labelPosition=center;align=center;html=1;outlineConnect=0;fillColor=#e51400;strokeColor=#B20000;gradientDirection=north;strokeWidth=2;shape=mxgraph.networks.pc;gradientColor=default;" vertex="1" parent="1">
          <mxGeometry x="260" y="115" width="40" height="40" as="geometry" />
        </mxCell>
        <mxCell id="DUj9_0CVN8MQ_FfbOPjA-4" value="" style="fontColor=#ffffff;verticalAlign=top;verticalLabelPosition=bottom;labelPosition=center;align=center;html=1;outlineConnect=0;fillColor=#e51400;strokeColor=#B20000;gradientDirection=north;strokeWidth=2;shape=mxgraph.networks.pc;" vertex="1" parent="1">
          <mxGeometry x="1960" y="55" width="40" height="40" as="geometry" />
        </mxCell>
        <mxCell id="DUj9_0CVN8MQ_FfbOPjA-8" value="" style="shape=image;verticalLabelPosition=bottom;labelBackgroundColor=default;verticalAlign=top;aspect=fixed;imageAspect=0;image=data:image/png,iVBORw0KGgoAAAANSUhEUgAAAcwAAADaCAYAAAArI3K0AAAMTGlDQ1BJQ0MgUHJvZmlsZQAASImVVwdck0cbv3dkkhAgEAEZYS9BREYAGSGsALKHICohCRBGjAlBxY0WFaxbRHCiVRCLVisgxYVbKYrbOooDhUot1uJWvgsBtPQbv+/yu/f++d9z/3ue5+4dBwCjQyCT5aJaAORJ8+WxIQHsSckpbFIXoMEfHbAAUSBUyLjR0REAlqH27+X1TYCo2muOKq1/9v/Xoi0SK4QAINEQp4sUwjyIfwQAbxbK5PkAEGWQt5iZL1Ph9RDryqGDEFercKYaN6twuhpfGbCJj+VB/AQAMk0gkGcCoNkLeXaBMBPqMGC0wFkqkkgh9ofYNy9vugjihRDbQhs4J0Olz0n/Sifzb5rpw5oCQeYwVscyUMiBEoUsVzD7/0zH/y55ucqhOWxgpWXJQ2NVMcO8PcmZHq7CNIjfStMjoyDWAQDFJaIBexVmZSlDE9T2qK1QwYM5g6sM0AmK3Dj+IB8rEgSGQ2wEcYY0NzJi0KYoQxKssoH5Q8sl+fx4iPUhrhYrguIGbU7Ip8cOzXszQ87jDvJdAvmADyr9z8qcBK5aH9PJEvMH9TGnwqz4JIipEAcWSBIjIdaEOFKRExc+aJNamMWLHLKRK2NVsVhCLBdLQwLU+lhZhjw4dtB+b55iKHbsRJaEHzmIr+ZnxYeqc4U9EQoG/IexYL1iKTdhSEesmBQxFItIHBikjh0ni6UJcWoe15flB8Sqx+L2stzoQXs8QJwbouLNIY5XFMQNjS3Ih5tTrY8Xy/Kj49V+4hXZgrBotT/4ARABeCAQsIES1nQwHWQDSVtPQw/8p+4JBgIgB5lADBwHmaERSQM9UniNA4Xgd4jEQDE8LmCgVwwKIP9pBKviJMOc+uoIMgb7VCo54CnEeSAc5ML/ygEl6bAHieAJZCT/8EgAqxDGkAurqv/f80PsF4YLmYhBRjk0I5sxZEkMIgYSQ4nBRDvcEPfFvfEIePWH1QXn4J5DcXyxJzwltBMeEW4QOgh3pkmK5CO8nAg6oH7wYH7Sv84Pbg013fAA3AeqQ2WchRsCR9wVzsPF/eDMbpDlDfqtygp7hPbfIvhqhQbtKM4UlDKK4k+xHTlS017TbVhFleuv86P2NX0437zhnpHz877Kvgi24SMtsWXYIewcdhK7gDVjDYCNHccasVbsqAoP77gnAztuaLbYAX9yoM7IPfNlZVWZVDjXOnc7f1T35Ytn5atuRt502Wy5JDMrn82Fbwwxmy8VOo1huzi7uAKgev+oH2+vYgbeKwir9Qu3+FcAfI739/f/9IULOw7ADx7wkXDkC2fLga8WDQDOHxEq5QVqDlddCPDJwYB3nwEwARbAFsbjAtyBN/AHQSAMRIF4kAymQu+z4D6Xg5lgLlgEikEpWA02gAqwDewE1eB7cBA0gGZwEpwFl8AVcAPchbunEzwHveA1+IAgCAmhI0zEADFFrBAHxAXhIL5IEBKBxCLJSBqSiUgRJTIXWYyUImuRCmQHUoP8gBxBTiIXkHbkDvIQ6Ub+RN6jGEpDdVFj1Bodi3JQLhqOxqNT0Ex0BlqILkFXouVoFboPrUdPopfQG2gH+hztwwCmgbEwM8wR42A8LApLwTIwOTYfK8HKsCqsDmuC63wN68B6sHc4EWfibNwR7uBQPAEX4jPw+fgKvAKvxuvx0/g1/CHei38m0AlGBAeCF4FPmETIJMwkFBPKCLsJhwln4L3USXhNJBJZRBuiB7wXk4nZxDnEFcQtxP3EE8R24mNiH4lEMiA5kHxIUSQBKZ9UTNpE2kc6TrpK6iS9JWuQTcku5GByCllKLiKXkfeSj5Gvkp+RP1C0KFYUL0oURUSZTVlF2UVpolymdFI+ULWpNlQfajw1m7qIWk6to56h3qO+0tDQMNfw1IjRkGgs1CjXOKBxXuOhxjuaDs2exqOl0pS0lbQ9tBO0O7RXdDrdmu5PT6Hn01fSa+in6A/obzWZmk6afE2R5gLNSs16zauaLxgUhhWDy5jKKGSUMQ4xLjN6tCha1lo8LYHWfK1KrSNat7T6tJna47SjtPO0V2jv1b6g3aVD0rHWCdIR6SzR2alzSucxE2NaMHlMIXMxcxfzDLNTl6hro8vXzdYt1f1et023V09Hz1UvUW+WXqXeUb0OFsayZvFZuaxVrIOsm6z3o4xHcUeJRy0fVTfq6qg3+qP1/fXF+iX6+/Vv6L83YBsEGeQYrDFoMLhviBvaG8YYzjTcanjGsGe07mjv0cLRJaMPjv7FCDWyN4o1mmO006jVqM/YxDjEWGa8yfiUcY8Jy8TfJNtkvckxk25TpqmvqcR0velx09/YemwuO5ddzj7N7jUzMgs1U5rtMGsz+2BuY55gXmS+3/y+BdWCY5Fhsd6ixaLX0tRyouVcy1rLX6woVhyrLKuNVues3ljbWCdZL7VusO6y0bfh2xTa1Nrcs6Xb+tnOsK2yvW5HtOPY5dhtsbtij9q72WfZV9pfdkAd3B0kDlsc2scQxniOkY6pGnPLkebIdSxwrHV86MRyinAqcmpwejHWcmzK2DVjz4397OzmnOu8y/nuOJ1xYeOKxjWN+9PF3kXoUulyfTx9fPD4BeMbx790dXAVu251ve3GdJvottStxe2Tu4e73L3OvdvD0iPNY7PHLY4uJ5qzgnPek+AZ4LnAs9nznZe7V77XQa8/vB29c7z3endNsJkgnrBrwmMfcx+Bzw6fDl+2b5rvdt8OPzM/gV+V3yN/C3+R/27/Z1w7bjZ3H/dFgHOAPOBwwBueF28e70QgFhgSWBLYFqQTlBBUEfQg2Dw4M7g2uDfELWROyIlQQmh46JrQW3xjvpBfw+8N8wibF3Y6nBYeF14R/ijCPkIe0TQRnRg2cd3Ee5FWkdLIhigQxY9aF3U/2iZ6RvRPMcSY6JjKmKex42Lnxp6LY8ZNi9sb9zo+IH5V/N0E2wRlQksiIzE1sSbxTVJg0tqkjkljJ82bdCnZMFmS3JhCSklM2Z3SNzlo8obJnaluqcWpN6fYTJk15cJUw6m5U49OY0wTTDuURkhLStub9lEQJagS9KXz0zen9wp5wo3C5yJ/0XpRt9hHvFb8LMMnY21GV6ZP5rrM7iy/rLKsHglPUiF5mR2avS37TU5Uzp6c/tyk3P155Ly0vCNSHWmO9PR0k+mzprfLHGTFso4ZXjM2zOiVh8t3KxDFFEVjvi780G9V2iq/UT4s8C2oLHg7M3HmoVnas6SzWmfbz14++1lhcOF3c/A5wjktc83mLpr7cB533o75yPz0+S0LLBYsWdC5MGRh9SLqopxFPxc5F60t+mtx0uKmJcZLFi55/E3IN7XFmsXy4ltLvZduW4YvkyxrWz5++abln0tEJRdLnUvLSj+uEK64+O24b8u/7V+ZsbJtlfuqrauJq6Wrb67xW1O9Vntt4drH6yauq1/PXl+y/q8N0zZcKHMt27aRulG5saM8orxxk+Wm1Zs+VmRV3KgMqNy/2Wjz8s1vtoi2XN3qv7Vum/G20m3vt0u2394RsqO+yrqqbCdxZ8HOp7sSd537jvNdzW7D3aW7P+2R7umojq0+XeNRU7PXaO+qWrRWWdu9L3Xfle8Dv2+sc6zbsZ+1v/QAOKA88NsPaT/cPBh+sOUQ51Ddj1Y/bj7MPFxSj9TPru9tyGroaExubD8SdqSlybvp8E9OP+1pNmuuPKp3dNUx6rElx/qPFx7vOyE70XMy8+Tjlmktd09NOnX9dMzptjPhZ86fDT576hz33PHzPuebL3hdOHKRc7Hhkvul+la31sM/u/18uM29rf6yx+XGK55XmtontB+76nf15LXAa2ev869fuhF5o/1mws3bt1JvddwW3e66k3vn5S8Fv3y4u/Ae4V7Jfa37ZQ+MHlT9avfr/g73jqMPAx+2Pop7dPex8PHzJ4onHzuXPKU/LXtm+qymy6WruTu4+8pvk3/rfC57/qGn+Hft3ze/sH3x4x/+f7T2TurtfCl/2f/nilcGr/b85fpXS19034PXea8/vCl5a/C2+h3n3bn3Se+ffZj5kfSx/JPdp6bP4Z/v9ef198sEcsHApwAGVEebDAD+3AMAPRkAJjw3Uierz4cDBVGfaQcQ+E9YfYYcKO4A1MFv+pge+HVzC4ADuwCwhvqMVACi6QDEewJ0/PjhOnSWGzh3qgoRng22R35Kz0sH/6aoz6Rf+T2yBSpVVzCy/ReRgoLx60iPSQAAAJZlWElmTU0AKgAAAAgABQESAAMAAAABAAEAAAEaAAUAAAABAAAASgEbAAUAAAABAAAAUgEoAAMAAAABAAIAAIdpAAQAAAABAAAAWgAAAAAAAACQAAAAAQAAAJAAAAABAAOShgAHAAAAEgAAAISgAgAEAAAAAQAAAcygAwAEAAAAAQAAANoAAAAAQVNDSUkAAABTY3JlZW5zaG90qCwk5QAAAAlwSFlzAAAWJQAAFiUBSVIk8AAAAttpVFh0WE1MOmNvbS5hZG9iZS54bXAAAAAAADx4OnhtcG1ldGEgeG1sbnM6eD0iYWRvYmU6bnM6bWV0YS8iIHg6eG1wdGs9IlhNUCBDb3JlIDYuMC4wIj4KICAgPHJkZjpSREYgeG1sbnM6cmRmPSJodHRwOi8vd3d3LnczLm9yZy8xOTk5LzAyLzIyLXJkZi1zeW50YXgtbnMjIj4KICAgICAgPHJkZjpEZXNjcmlwdGlvbiByZGY6YWJvdXQ9IiIKICAgICAgICAgICAgeG1sbnM6ZXhpZj0iaHR0cDovL25zLmFkb2JlLmNvbS9leGlmLzEuMC8iCiAgICAgICAgICAgIHhtbG5zOnRpZmY9Imh0dHA6Ly9ucy5hZG9iZS5jb20vdGlmZi8xLjAvIj4KICAgICAgICAgPGV4aWY6VXNlckNvbW1lbnQ+U2NyZWVuc2hvdDwvZXhpZjpVc2VyQ29tbWVudD4KICAgICAgICAgPGV4aWY6UGl4ZWxYRGltZW5zaW9uPjQ2MDwvZXhpZjpQaXhlbFhEaW1lbnNpb24+CiAgICAgICAgIDxleGlmOlBpeGVsWURpbWVuc2lvbj4yMTg8L2V4aWY6UGl4ZWxZRGltZW5zaW9uPgogICAgICAgICA8dGlmZjpSZXNvbHV0aW9uVW5pdD4yPC90aWZmOlJlc29sdXRpb25Vbml0PgogICAgICAgICA8dGlmZjpYUmVzb2x1dGlvbj4xNDQvMTwvdGlmZjpYUmVzb2x1dGlvbj4KICAgICAgICAgPHRpZmY6WVJlc29sdXRpb24+MTQ0LzE8L3RpZmY6WVJlc29sdXRpb24+CiAgICAgICAgIDx0aWZmOk9yaWVudGF0aW9uPjE8L3RpZmY6T3JpZW50YXRpb24+CiAgICAgIDwvcmRmOkRlc2NyaXB0aW9uPgogICA8L3JkZjpSREY+CjwveDp4bXBtZXRhPgpYDpe2AABAAElEQVR4Ae19CbwUxbX+EQSUfd/3TdlXCfhAdlRQkQSEiPIgKokSEXwv+WsEEVwIKKIiS1wQhEhM4IEiIIsgQhQJiyKyCbLIvu/IOv/6DlTb3dM9090zc2fm3nPub25XV9WpOvVVd5+uU6eqryOikPoJCQKCgCAgCAgCgkAEBLJFSJMkQUAQEAQEAUFAELiGgChMuRQEAUFAEBAEBAEPCIjC9ACSZBEEBAFBQBAQBERhyjUgCAgCgoAgIAh4QEAUpgeQJIsgIAgIAoKAICAKU64BQUAQEAQEAUHAAwLXe8jjmqVx48bUpUsXx/RnnnnGMV4iBQFBQBAQBASBdETgOiV04HWYL774Ij3++OOO7c6fP79jvEQKAoKAICAICALpiEBMI8w5c+ZQnTp1jHaXLFmSbr75ZuM8Mwaee+45atOmDe3YsYN69erluYlB+TxXIBkFAUFAEBAEEopATCNMu2S/+c1v6L333uPozDTCnDRpErVo0YKKFi1K110HyIguXLjA53zi8i8on0txEi0ICAKCgCCQRARiGmEmUe4Mrfr222+nPHnyWOoMhaJbsoPyWSqSE0FAEBAEBIGUQCClvGQ7d+5MdevWDQTMPffcQ1WrVg3EG40JZuf69evzb/r06ZxdjzQj8Qbli1SmpAkCgoAgIAgkBwFWmFu3bqUTJ07QrFmzXKUoV64cHT9+nPNBscWDmjdvTl999RUdPnyYTp48SVOmTKHly5dzHdOmTXOsAnkhK6hHjx4E2cE7depUWrNmDR06dIigPONJqPPHH3/kn67bywgzKF88ZZeyBAFBQBAQBOKDACvMhQsX8txcq1atXEsdMmQIZcuWjc6fP08fffSRaz6vCVCIc+fOpVq1alHOnDnp4sWLrPjAj9Fbp06daPHixWHFXX/99Zw+Y8YMeuutt6h48eJ05coV5kfmXLlyseINY5QIQUAQEAQEAUEgBgRYYQ4ePJgwYoJChGJ0Ij2q1CZJpzx+4ubPn891LliwgOrVq0dFihShsmXLEpyFtm3bxkVhnWejRo0ci23fvj2dPXuWHnjgASpYsCDzjxo1ivNC4Y4dO9aRTyIFAUFAEBAEBIEgCLDChOkQ5kxQnz59wspBHEZuUKpYHhEPggdpgQIFqGvXrrR9+3ZLkQ0aNDDOO3bsaITNgYMHD1Lt2rXp448/NqKHDh3KZmNE1KhRw4iXgCAgCAgCgoAgECsCrDBRiFaEhQsXppYtW1rKHTBgAJ+vW7eOoKgSQVi/+dhjj9H777/P85i6DjfFB4ULRW+nPXv2cBRMtUKCgCAgCAgCgkC8EDCWlSxdupQdZooVK0bPPvsstW3bluuA52mlSpU4/Pzzz8erXi6nSZMmNHz4cDa7whzsRJjf9EOnT5/m7G7l+SlL8goCgoAgIAgIAhoBi5aaMGECx2PuUBPMnKBjx44R5hvjRf3796dFixbRLbfcwk47X375JQ0bNoxat27N85hHjx6NV1VSjiAgCAgCgoAgEDMCFoX58ssvs7cpnGawTywIi+9BMIHGk6AcQdhiDmbgO+64g1555RVavXp1PKuRsgQBQUAQEAQEgbggYFGYKPHTTz/lgnv27MnrHGESxbINN+9ZsxQHDhwwTu+77z4jbA9g/aU2mbqV69cUa69DzgUBQUAQEAQEgXgiEKYw9We5MOrTo8xly5Z5qhObDmjSjkL6vEKFCjpIW7ZsMcJ2r1ysv9y7dy/lzZvXyCMBQUAQEAQEAUEg2QgYTj9aEJhIN2/eTDfddBPBAQgEJyCvtGnTJv5iCZZ8YGcg/AoVKsRzoBUrVuRi4GkLpVi6dGlq1aoVOxthhx54tuqRJTZIwFKWZBOWvEB+TXpkDNnQNk1wNsI6Uk1B+TS/HAUBQUAQEARSC4GwESbEe+mllwwpodjWrl1rnEcLdOvWjXbv3s3ZoFwwUsWcKH5mwjISvUEBlA+UTY4cOWjnzp3UoUMH1236YB72QpcvX/aSLWoeKHC0Q//MDDoOR7tyD8pnLl/CgoAgIAgIAqmDALRYKBHiQCE2bNiQLl26xJsiYM9XN8JnwU6dOhVXL1y3uiReEBAEBAFBQBAIgkDCFGYQYYRHEBAEBAFBQBBIVQQcTbKpKqzIJQgIAoKAICAIJAsBUZjJQl7qFQQEAUFAEEgrBERhplV3ibCCgCAgCAgCyUJAFGaykJd6BQFBQBAQBNIKAVGYadVdIqwgIAgIAoJAshAQhZks5KVeQUAQEAQEgbRCQBRmWnWXCCsICAKCgCCQLAREYSYLealXEBAEBAFBIK0QEIWZVt0lwgoCgoAgIAgkCwFRmMlCXuoVBAQBQUAQSCsEwr5WklbSi7BZAoHGjRtTly5dHNuqP0fnmCiRgoAgIAjEEQHZSzaOYEpRiUEA32V9/PHHHQvPnz+/Y7xECgKCgCAQbwRkhBlvRNO8vOeee47atGlDO9R3UXv16pUSrZkzZw7VqVPHkKVkyZL8zVUjQgKCgCAgCGQAAjLCzACQU72KSZMmUYsWLaho0aLGd0svXLjA56koOz4H995777FoMsJMxR4SmQSBzImAjDAzZ7/6atXtt99OefLksfCEQgn5TKqlDjkRBAQBQSCdEMg0XrL33HMPVa1a1Rf2nTt3prp163rmufXWW6lcuXKW/LfddhvVrl3bEud2AhnxYe2MotKlSxPqjEYwd9avX59/06dP5+zXXQfjQ+Ykv/1uRiHIdWbml7AgIAikNwIYSqTN7/Dhw6ETJ06wvD169Aht3bo1dPLkSeN36NChkHqoObanefPmoa+++iqEMsw8KG/atGlhPOvWreO6nnjiiRDK1TyTJ08OoSxz3NKlS8P4geurr74a2r59u8GLMlCfUkyO+WPti4YNG3IbDx48aKkT52+++WbUOkePHs18aFusstj50Vdo+6xZs1zLVi8koePHj3M+pdgc8ymTrNE2ex1O5377HWXEcp05ySBx6fOMkb6SvopwDaQXOHiYQunMmDHDeGgi7siRI8a5VqjmRkMhaoWHI/Lv3r3bErd48WLLA1o5vljSUa4uw650Ea+WPlj4oRjM+Tdt2mSpE+WbZYw1jBcFjQ/qhby7du2yxK1cuTJinYlUmOPHj2c8IKNbW9955x3OAwXvlsePwgzS76hX4+j3OnOTWeLT6zkj/SX95XQNpK1Jtn379nT27Fl64IEHqGDBglSkSBEaNWqUaiOx48rYsWM5rP/Nnz+fMC+3YMECqlevHucvW7YswWlk27ZtnA3r/Ro1aqRZLMdHHnmEChQoQFeuXOH4nDlzUrdu3ahWrVpGvo4dOxrhmTNnsrcpIiZMmMAONDDHos5+/fpxvsKFCxsyG4wBA927d6epU6dStmzZ6OLFi9SnTx+Wt3z58ozPyJEjWXY1ygxYQ+xsgwcP5j6AjEOGDHEsEOZSkDYNO2byERlrv/u9znyIJlkFAUEgDRFwfZNXbUm5NP3mD/Oe8uoMkw8jKoyu7KPFaG3RI0H1UDfK1CPM5cuXG3E//PADlz937lwjTo9UZ8+ezXEVKlTgPChz4sSJRj6zDDDrIh285vigYaX0ubyjR4+GYJYNWk4iR5iQacmSJSyn0+haKXlOw8i4ePHirm3wM8KMhoNTv4MnUddZNHkkPfWeOdIn0if6GkhbL1kshVBmUdUOK+3Zs4dHVOqBa02wnWG0h/WGTZs2pcqVKxupNWrUMMI6sH//fh2k06dPU4kSJWjv3r1G3Llz53ikqh1lzOsX3377bapevbqRVweWLVvGu9fky5dPR8V0LFasGPOruVRas2ZNTGUlkhnrPNWLBWF03bJlS4K8mgYMGMBBNXdMyiSro+N69NPvqDjW6yyuwkthgoAgkFQE0lZhuqEGhQaC2c9OTZo0oeHDh7PZ1Skd+WFqjZWqVatmFAGTYCTSSjZSnmhpbdu2NbLMmzfPCKdiAApSORQRFPyzzz5LWnZ4OFeqVIlFfv755+MqeiL6PdJ1FlfhpTBBQBBIGQQyncJ0Q7Z///70wgsvcPKlS5doxYoVtGjRIlImQlq9ejUpEyGPetz4g8YfOHAgIms81jtmz57dqAOj3VQnzOliPhNzxpqGDh3KwWPHjvE8s46P9Zisfo9VbuEXBASB1EMgyyjMYcOGMfpQjH7WXgbpsh9//NFgww46ZpOukRDHwPr1643SOnXqRFOmTDHOUzHw8ssv01NPPUU5cuQg7BOLDdSxeQIIJtB4Ukb2ezzllrIEAUEg9RAIt1umnowxS6TW4RkmWjfvzHiYYrWg8FbVNGbMGB1M2BHzqadOneLy27VrZ5mTTVilMRb86aefcgk9e/YktZ6WTeHwQHbrH3N15lH7fffdZ06yhDO63y2Vy4kgIAhkOgSyhMLcsmWL0XFYbmEmjMigcPLmzWuOjimsPHhJrXfkMjByUp6yYeXB4QXm4HjRiBEjuCgofpib4cxkJizX2LdvH8HZKBVIf5YLzj8YZYK8yqa8lo0maEchHaE8lHWQMrrfjYolIAgIApkSgSxhkoXHJZQitopr1aoVO53A8QSetHpkef78ecqVK1fcOhkjPTj8NGvWjLp27Ur33nsvm2ZRD762ofduhQmyd+/eMdf7xhtvEOYyMRd4ww038Dwg5mrVBg08NwvzJ8i+faDahYgKFSpk1K+doYCFWlphxMPJBWtI40UwjW/evJluuukmdgBCuXAC8kpqEwjeZhDbEkJO/NAOzIFWrFiRi0lGv3uVX/IJAoJA+iGQdiNMvXFANKgvX75syYLlBHqDAigDPPyhRHbu3EkdOnQgtSuPJb/bSaT6oaDMhNElzLN4mF9//fVcZ5UqVVhZ4msgH3zwQVyUpa5TraGkvn378ssB5ESdWAKDdkI2tWsNlSpVSmfnI14YoCT1z5yo43CM58uEruOll17SQZZ57dq1xnm0ADaNUGtYORvkw0gVHsd2r+Og/R6pn82y2a8zc5qEBQFBIHMhcJ1qDhaIZynC56Ew54ddfzKSoJix7hKmx0StMzS3R68xVfvnEkaSmZGgENVGDfxCgPWnMIe7UbL63U0eiRcEBIH0QiBLKsz06qLUkxabMWB7Qa+EL3wk2lPYqyySTxAQBASBoAhkiTnMoOAInzMCWCqD+WCvhL1+RWF6RUvyCQKCQKoiIAozVXsmheXC9nZevwGKjRngoCMkCAgCgkC6IyAm2XTvQZFfEBAEBAFBIEMQSDsv2QxBRSoRBAQBQUAQEARsCIjCtAEip4KAICAICAKCgBMCojCdUJE4QUAQEAQEAUHAhoAoTBsgcioICAKCgCAgCDghIArTCRWJEwQEAUFAEBAEbAiIwrQBIqeCgCAgCAgCgoATAqIwnVCROEFAEBAEBAFBwIZAxI0L7rrrLmrfvj2NHz9eFp/bgBs8eDA1btyYd7zBB6OXLl1K8+bNy7R7ttqan+Gn+BxY7ty5afr06eRnk/YMF1QqFAQEgUyNADZfD/u1bt06dPLkSf6pjcLD0p14skKc2uEmtGfPHgMbjRGOJ06cEJwcrqV4XBfqiy+M+aBBgwTjBGEcj36SMsKfpYJJ5sHEdYRZs2ZN1c9XCd9XTCR9+eWXVKBAAapVq1Yiq4lL2dOmTeMvjqCwhQsX8sgSn9FSLxjk9ZNQcREkyYW8/vrrZP8Yt5NI33zzDd12221OSZRO/e7YgBSLjAeekydPpsqVK9OBAwf4O64p1kQRRxBIKgKuCnPs2LH0wAMP8Md48R3FRBIUJb5jWLRoUTp8+HAiq4qpbHx8uUKFClwGTIO/+93vjPJeffVVI5zVAtgv1o0ifS8yXfrdrW2pFh8rnngJ6tKlCzcLHzoXEgQEASsCrgoT2Zo1a2bNnaAz+0d/E1RNzMWa8Rg3blzM5WWGAvBhany8OQilS78HaVsyeGLBE98K9WIxSEa7pE5BIFUQSJiXLL6BiBFZNKpUqVK0LFHTURc+JByUYH7GA6Nly5YRiyhbtiynw/S6atWqiHmdEjt37kx169Z1SooYh09poY1+KVZc/NbnJ3/QfrePZr1eZ2bZYsXF6/Vir9PL/WDn8XpdB8UT9YEX3zgF7dy5k4/yTxAQBJwRYCcKOKy4/ZRXIudR7GFHZUI1nF169OgRUl+8tzjEHDp0KKQeUBa+1157LQS+o0ePMq92nHGqf/v27RZeLYMygYaQpnm1040ylTrmB9+iRYu4vn79+nGeoUOHhiCfuQzIpOvAUc1Tsqza6UTntcvqJGfz5s1DX331FfNrPi2nmgu11GOuE+GGDRsyLxyuzLw4f/PNN115g+Bir9vLuTLfsVx2vCLxxtLvGv8nnngi1K1bN0/XmVmWILgEuV6C3A9B5YwFT3Od+j7atm1b6LHHHuN+xX1hziPh8GefYJL1MDFMsphryp49u7oGfiFt4smVK9cvkbYQHF6QD/OcWIICwggM5eXIkYPAO2XKFHbq0ayIxw+k69BpXo6zZs2iNm3acNYLFy7wvGfevHkpf/781KFDB9qxYwfPvdrLwoeMUV+pUqX4jbp79+5GlosXL7JMp06dMuIQAI+W1ZIQ5QTOQZ06dTJyofxz586xjJABaYsXLzbaYWRUAYyA3n//fcqW7aoBAKMqpaCZFw5YvXr1oiZNmvDPzBcUF3MZiQzH2u+QTb2UGc5h0a4z3ZaguAS5XoLcD0HljAeec+bMoSJFihBM67fffnsgS4aWX46CQFZAwPVNEqMrjG42bNjgmke/+SPf/v37LaPJIUOGGKMj5UTkWIZa62nkUU4/jnlUJxjxM2fONPKPHDnSiEeeBx980EgbNWqUJQ3pyozK6fv27eMj3qJHjx4dUmYvIy9Gdub6zOGnn36a+byMqnr37s2jWYx4lcnLUiZG7HrU2KhRI0uaUuJG2pEjR0LKVGxJx7IKYK6UpiU+FlzMbfQa1iNMjLQx0nH6YWmSW3l++z3odRYLLkGul2TICYz94gkefT3jWtTX2ZNPPmncG259J/G/PI8EiyyHhXuD/ShMmGKdFN6uXbv4BlSjKceHp58bXXmoGspk4sSJjuUpt3jOs3v37rB0/QDEAwJrKcuUKROWJ9INoB8wXhRmpHKQphWm2gDBIgPMYkhDHZGUt7n8WHExl+U1rBWmbofTUTlGWdpmLttPv4NPKyI/11msuAS5XpIhJ/Dxi6da6mNMh+ClUfeNKEz356HGSI5ZFyPDJKsugpho0qRJjktClGJis2bx4sVjKh/MMEVqgpNC9erV9alxXLZsGbvG58uXz4izB2DihNkTsmUUwXkDZuSmTZvyOjddb40aNXSQj8WKFeMjdg5as2aNJc3tJF64uJUfLd5t5x01fxuN1Xe6n+ssXrgEuV6SIacfMLEsClMD3333HQ0cONAPq+QVBLIsAnFTmG4Inj59mpP0fJxbPi/x1apVM7LNnz/fCDsFIs2Nbty4kVavXu3EFtc4zDMOHz6clNnVmI+0V5AzZ04jqm3btkYY2+x5pXjh4rU+cz7MfUXzLjbnT1TY6TqLFy7xvF4SKadXbNetW0eYC8f8/+9//3vLC5x+YcP9gw0M8LKgnIK8Fi35BIFMjUDCFWai0MNOJJEIN7obRUpz4/Eb379/f3rhhReYDUplxYoVpLwuacmSJays4ZhkX79odrqCg1AQigWXIPWlC08suGTE9aJxjEVOXUak45133kkVK1bkLHhZw+5AToQ07NIEwgYmH3/8sVM2iRMEshQCSVeYZsWAGznSTj/Y5FxTixYtSDkZ6dOUOw4bNoxlgmL0uvZy/fr1RjvgRQvvYi+UTrjo9vjpd83j95guuMRDTq94njlzhtQ8qyuUN954I3u2I4POBx4hQUAQIErYxgVewf3ss8+MrD179jTCToGpU6ca0WPGjDHCqRZQ6y8NE6zyFHYUz2yK1Rn27t1LellLu3btLKYyncfpmC64mGX30+9mPj/hdMElHnJ6xfOLL76g8uXLu/4whQDC1ng6n7lsP/hLXkEgsyGQdIUJQDGXAoIjjp2wy40m5SFJK1eu5FOsGVOesjrJOGI+DWbPZNKWLVuM6u3bjWHkCMWIdaNONGLECI6GQoUZF05CZsJuQWpZDMG5SVO64KLl1Uev/a7z+z2mCy7xkjPRePrFX/ILApkNgZRQmGrnGsYVDgdq7SF77sF7DybXTZs2WTDHyEt7X3bt2pXU8gtS60T5G4lQJLNnz2YnG3gpJovUbjysFFF/q1atSK33ZBlhbsaGBlCWbptbv/HGG6RHpXDMWLBgAbfxhx9+YGxgps2TJ0/YtoPJwgUL9dWSEtcf2u5GfvrdrYxo8cnCJZpc9vR4yJkReNrllnNBICshEFFh6jfWSF+c8PpJq0hlPPfcc6QWmPMOQdi9BF8EwQ8fDMb8CbxNzYTRJcxYmGPBAxt7vFapUoUVCWT+4IMPSG0cYGaxhOGEE4SwW49XwjIStaaSs2O3I8iItmGvTuxGhN1n3Eiti6O+ffuy0gW+aGOJEiWYH7JjVyXsVmSnWHGxlxfpXF8bkfJES/PT77FcZ7Hi4ud6SaacfvCM1jeR7tdovJIuCGRWBK5TDXN3J01Cq6FMMNKEMoQTjJfNoMGDdZcwU2J0l2qEjd0xN4nRYhDSazcxsvbj4p/quJixCNLvZn4/4XTBJRY5MxJPP9hLXkEgnRFIOYWZzmCK7IKAICAICAKZF4GIJtnM22xpmSAgCAgCgoAg4A8BUZj+8JLcgoAgIAgIAlkUAVGYWbTjpdmCgCAgCAgC/hAQhekPL8ktCAgCgoAgkEUREIWZRTtemi0ICAKCgCDgDwFRmP7wktyCgCAgCAgCWRQBUZhZtOOl2YKAICAICAL+EBCF6Q8vyS0ICAKCgCCQRREQhZlFO16aLQgIAoKAIOAPAVGY/vCS3IKAICAICAJZFIGkf0A6HXG/6667qH379jR+/Piwr6kkqz3PPPMMb1Y/ffp0/nJLsuSQegWBZCPQuHFj6tKli6MYuE+EBIFYEMDm6/LziEHr1q1D6nNW/FMbvacMbmqzepZp0KBBKSOTXFdyXyXjGnjxxReNe1Tfq/qYDHmkzsxzH8gIU13NfqhmzZpGdnyv0gt9+eWXVKBAAapVq5aX7JInCgKCZxSAsnjynDlzqE6dOgYKJUuWJHxuLzMTPu3Wpk0b2rFjB/Xq1ctzU4Pyea4gE2aUEYnH0aXqe8ZKfWYrpD5WHVIf7PWE3YkTJ/iNt2jRop7y63r8HLPSCDMj8PSDveRN7RGE+ryeMeLMTH01adKkkPrmbkjfDxhFq4/UR33GBOXLTNgFbYuMMBVyfqlZs2a+WK67Dl9RE4oXAoJnvJCUctIZAXwYPU+ePJYmhELQl5EpKF/kUrNGatp7yd522210zz33pGxvVapUKWbZSpcu7bmN9hsG2FStWtWXDHXr1mWnJj9MqKNdu3Z+WMLywtyNj223bNkyLE1HxANPXZbfY+fOnQnY+CU//WcuOygf+tyvCTLofRSUz9zOVA8H7Xe0K8j95xUPmJ3r16/PPzj7gby8TAbl8ypXZs8XdQivAEipPN26dQspW71hZtET+keOHAnNnTs3VLlyZUNemE5hshgxYoQRh/YoT9cQyqlevbolfu/evZz/0Ucf5Xjwuv3Wrl1r4dU4vfbaa2waOXr0qMVc4lTO9u3bHcto2LBhCKZfOBbp9uGIcydTsDbJPvHEE9yurVu3WvgOHToUUjdvWF0w4UCucuXKhT788MMQMDTXt27dulDx4sXD+HRbP/vsM4uMKOv7778Pde/e3ZVn0aJFXGe/fv04z9ChQ0OQz1wvsNN1xANPXZafY/PmzbkPgJFZNrRx2rRphnxOZfrtP11GUL5XX301hGvJLqd6kLrK6ec+0vLhGJTPXIaXMK5hYD1r1izXNuC6xbWPfEqxOebza5IN0u/6PkK7evToEfJ6/3nBwUue0aNHc9/jPvKSX+cJyqf5s+AxtZRhtA6AMsTNgQcDbhQore+++y7soa3L2bBhA+ddtmyZ5ULSDxY8vHVe5RxgPHDUGzrHa6WHOvVP86JszWs+jh07NiwveDS/+eikMKHYtALUfLt27bLErVy50lK3zg8lq+VDnFkBol6znAhrPnM+vGToeJTl5g1sfmnBA2P37t1G3eBTzgdh9aHOVatWcb4XXngh9Pbbb1t4tBw7d+40eGPF095mL+dQiBpHHCGXvX2LFy82ZDSXGaT/wB+UDwpFy4p+2LRpk0VW9JNZPoT93keaPyif5vdzVMu2uF24Ft343nnnHc7jdo2Cz4/CDNrv+n6ZMWOG0ReI09cz+sfp/nNrl9/4oIovKJ9f+TJR/vRSmFB8uPicbqKmTZuGVqxYYRlNfvDBB5wfI0fdaQ899JBxUe/Zsycs3jy60Tzm48KFC5nfTWGa82Ikqx9mXpx+MDLT+XGz4WY3l4dlI2i7XRnpGxa8+/fvt4wmhwwZYpQJ5WMuz8wHbM0y6ocRyhwzZoyFTytL8ANPXWaZMmVCP/zwg1Gf01u/VphQzCgbb8W4cfVLCsrCSEuXaT76xdPM6yfcu3dvfsBhhKbMwBZZ8JKm+6hRo0aWtKD9F5Rv5syZhiwjR460yPLggw8aaaNGjbKk+b2PNHZB+TS/nyOuRSgZYI1r2IlXWybGjRvnmA4ePwozaL+b7yM/959Tm4LEBVV8QfmCyJhJeNJLYcJEiBsIIy4vHdCnTx/joaHz4yGoH3g46vj333+f41GHjnM6JlJhwusNMkFpuykNJ5n0DQtTkFnp6bzAC+XaR0Waz83EqE3C5heOhx9+2MBPLQR3xAryo75vv/02LF0rTKTjhQVKVssZ7ZhRCjOaHJAdv8GDB1tkD9p/QfgqVKhg9MPEiRMtcmj5J0+ezHkwOtZxOPq9jzRvUD7N7/e4ZMkSlt9plKzvbSjVSNMGfhRmNPnc+l3fR37vv2j1eU0PqviC8nmVK7PlSzunH6yxAhUsWJDUmxypBwV16NCB45z+vffee0a0unE43KBBAz6qERwf1VslHzGBDlqzZg0fk/GvWLFiXO3SpUsDyaFcxkmZ5cJEV4qJ49SDJSwNEWre0TF+8+bNHG/2xvv1r3/NcRcvXiS1SNyRb8GCBRxfsWJFx3REwkFJmSFJy+aaMQUS4ETz2GOPkXqpouXLlxsS1ahRwwgjELT/gvCZ19sp0zap+fiwnxoRsnz58uWzyOn3PtLMQfk0v98j1gmCChcuHOYMNmDAAE5TSpzUix2H4/3Pa7/reoPef5pfjqmNwPWpLV64dE8//TRhITK2vsqdOzd17dqVf3j4qnkvmjJlCr388ssWxrNnz3Letm3bkppj4IfapUuXaPXq1axs77jjDsKFrkY6zKccWSz8GXUC+TTNmzdPB+NyPH36NJeTLZu/dyRgUa9ePfa+g9emGmlSqVKluCw1inSVDS8dHTt2ZD414nVU4hs3buQ+cC0kyQlNmjSh4cOHkzK7khtuOXPmNKQM2n9B+apVq2bUPX/+fCPsFLB7Twa5j1BuUD4nmbzE4cVRmV35nn322WdJYwWvbO0x/fzzz3spynMev/3upeCg95+XsiVPxiHg7+mZcXJFrEmZYniE+be//Y2UqZGuXLnCD2aMZpSJjNTcIplHUsrcxeVhj0k9ysQb6RdffMHxyvRJ4M2RIwefQ+kmg7Jnz25Ue+7cOSOczMDPP/9sVA9lCdLKA7i7EV5INF1/vfN7mX0JjM6fCsf+/fuTcgijW265ha8v7C40bNgwUlsjUv78+cnpZSFo/wXlM+N04MABivSDNcZOfu8jzR+UT/P7PU6YMIFZcP9qUp7VHDx27Bhpa4ZOi+UYpN9jqU940wuBtFSYGuI//elPVLt2bVaeGGlCUYLKli1LyglAZyM87EDly5enTp06cfg///kP6bVLJUqUoDvvvJPjz5w5w8d4/TMrvkjmSdS3fv16o1otpxGRpABGlyA8mDThwQwqUqSIjgo7aj4oRaeHdRiDxwg/eHos0jEblCNIzZ2xORBWiFdeeSXiiDho/wXl+/HHHw3ZW7RoQRhxuv1grnUjr/eRnT8on72caOewGMH8j1GyngLA4nsQLEPxpCD9Hs/6pazURiCtFaYZWrxlKi9ZHnEiXj+wEVZrM3FgsyzygDAXgxETFCRuROXIwvF6NMoncfhnNu/27NkzYomQ59SpU5wHmwAoF/6I+TMiUT+Y1FIFo7qPPvqIwzBH4o3ciZRzDkfHe37SD55OcnmJU+vwjFG08s50ZDGbYnWGoP0XlG/q1Km6alJezEY4lkCk+yhSuUH5IpVpTvv000/5FPeQWudIwB8WDrf+MfPqFzzE3XfffeYkSzhov1sKkZNMjUBaKUzMocEUpjzRDNOquXeU1yCphcwchfkxTcrTjh1McI7RJ+gf//gHH3U+PR/09ddfc3w8/124cIGLg4OLndAmM6kNFvgUDwS1RIZfAszp2HVELccg7cxhToslPHDgQFIbCViKUOtbSZtT1RITI00tTTEUO5wytJlbZ1CesYZ5W7+x67R4HP3gGaS+LVu2GGwwP5oJI38ouLx585qjjXDQ/gvCh/tArcfluvFiAwc4O2HXJFz/Zgp6HwXlM9cdNKw/ywXnHz3K9HoPmJ20tKOQlgPPDE2x9LsuQ46ZH4GQamJa/O6//37LgnqsU4Qb97///W/Lzj9wM8duHeZ2abd9uIWbF8VjWYR2FcdRjewsfOYydNjPshLwKKVi1AGZsdECflivhTp1ufqolJeRH+lYooG1jeDVsmINo86Po3Zrd/u8l5vMmk+Xi4XvcOHX698Qr5wqLHWhPiwFwZIQzYcwNmEw8z3++ONhfODVy0qwyYK5DV7DfvH0Wq45Hxb/67ZhrR/W3AIbcxzCTjvpBOk/1B2UTzn8GHLhWoGsWCuq17lCTmW6NLAOeh8F5TPjGktYTaMY7USblLe70aZo5WKjD913uOb1NY6jmTdov+v7yO/9Z67bTxj3GurUP902HHUcjvblREH5/MiWmfOm1QhTbULA85VqCzc2pcJJB8492BsRb54gjL5atWplcf1HPEZLmsxzRv/61790NI9C4egRjfQI5/Lly9GycjpGYWqBOZuQIDPeavGDly9MwvDKM5NaG0V9+/blkQzMThjlYZ4VvHCmgaev9lTVfJEccHQeHN1kxnIJzDViZAssYaaGZx8cLuBIZSeYWuEQA1MtZMKyBcxpgg/LdTC/Fc1MaHYMspcf6dwvnpHKckvDcgJtns+VKxdbJoA/PLGxjEntruPGSkH6D4UF5cPoEuZZ9YDkawVWlCpVqvDG3LhWcd/opVOoJ+h9FJQPdcaDXnrpJaMYjPLVS4FxHi2gtvMjpTw4G5zW9DWO69VMQfs91vvPLIOXMO5TtEP/zDw6Dkdcu2YKymcuIyuHcbXgDSttCfMOWA4C8xSWiaQ64WGLNXd4uEFx4wEcjTDvivlMNSIj9YYYLbuvdMiBGwvLJ/CD2Q1fY4FZFZh6JfCAF8o8IykInn7lg8kZc8tBvTGD9l9QPmCCFxiYLL2uTwx6HwXl89sH8coPhQiveLysYelTpGs81n6Pl8xSTuogkPYKM3WgTE9JtMJU26qR2ts1PRshUgsCgoAgkAEIpJVJNgPwkCoEAUFAEBAEBAFHBERhOsIikYKAICAICAKCgBUBUZhWPLLcGTYCgMOCeUefLAeCNFgQEAQEAQ8IyBymB5AkiyAgCAgCgoAgICNMuQYEAUFAEBAEBAEPCIjC9ACSZBEEBAFBQBAQBERhyjUgCAgCgoAgIAh4QEAUpgeQJIsgIAgIAoKAICAKU64BQUAQEAQEAUHAAwKiMD2AJFkEAUFAEBAEBIHrI0GAbxq2b9+exo8fz5tsR8qb1dKwITm+AI/9U/Eh36VLl9K8efPivtdrZsIVeHXp0sWxSfrzTY6JEikICAKCQAog4LoOs3Xr1qQ/FIxF7fgqiBBR7dq1SX1OiTe3tuMRCoWoQIEC9mg5v4YAvmOoPvnliEf+/Pkd4yVSEBAEBIFUQcB1hFmzZk1DxhtuuMEIJyLw5ZdfsqKpVatWIoqPa5nTpk0zlKX6xiSPLPH5LbxgeP3ET1wFSkJh6pt7XCs+s/bII4+4SqC+jcmf+/rb3/7Gn/uaM2cOf4pNM5QsWZLw9Yh0IHxSrE2bNqS+n0i9evXyLHJQPs8VSEZBQBDIUAQsH1BVNRvn+MAvPkL75ptvGnHm9HiF9UeHixYtmtB6YpW3atWqxkdo1dftU1rWWNsaiV99mZ5xwMdo3fI9/PDDBlZ169Z1zKc+n2TkcSsnmfGT1EeX8eFxfX3i47z4iHQ0mYLyRStX0n95NgkWgkUyrgHXEaYShr+LiGOiyf4R10TXF7R8fPNR07hx43Qwyx0/+eQTUgqRPxiNUSI+PG2nHj16cBS+I7lu3Tp7clqc48PMefLkscgKs3s0CsoXrVxJFwQEgeQikDAv2XvuuYfUiCxq6ypVqhQ1T7QMqCsW0x7Mz/hYbMuWLSNWhS/Zg2B6XbVqVcS8TomdO3cmNdpySooYB8citNEvxYqLW31jxowxkqA4nah+/foc/cUXXzglxyUuKJ6o3Mv1WadOHUI78Js+fTrL7OXlLihfXECRQgQBQSChCLCJCWYnt9/atWtdzVAwUYFPSRhSo4qQ+oK5YWaDCevQoUMh9XCy8L/22mts2jp69KjF3OVUv5vZ79VXXw0hDXXoH/jVg81SF+TSv0WLFnF9/fr147ihQ4eyfJofR8ik8+Oo5ilZVvWhZaMe5LPL6iSn+hp9CGZtYGSuA7xqLtRSj7lOhNVX4Zn34MGDFl6cRzKRB8HFXreXczWXx3KtXr06rB1ot26vegkJS9fl+zXJBsEzyPWp5TMfR48ezW3C9WyOjxYOyhetXEn/5b4WLASLjLoGjBHm5cuXVZ1Wwts0frly5bImmM7g8II8M2bMoLfeeou9aTECu3jxIucC75QpU0wcRDly5OBf9uzZmdeS6OFk1qxZhknwwoULtHfvXlIPaC6rQ4cOpB7mjqUULFiQ85QqVYrefvttGjhwoNE2LS9MiGYCD+T1MrIw88E5aO7cuQRHppw5czIekBGEsjp16kSLFy82sxhhjH6QBl44XMEMqBQ2j2xxDqeTlStXGvl1ICgumt/PEQ5PICcrwkMPPcRp58+fZ6coPonxX1A8g1yfMYoq7IKAIJCJEXB9Y8boCiOFDRs2uOYxj7zUXJZlNDlkyBBjpDF27FjHMtRaTyOPF6efmTNnGvlHjhxpKfPBBx800kaNGmVJU/0XUmZUTocjE9qF0QJGAMqca+TFyA55nX5PP/0089lHoU55e/fuzaNQjHiV2dlSHkbsqB+/Ro0aWdK6d+9upB05ciSEUZi5/EGDBoWAuVKalvhYcDGX7zXcoEEDQ87777/fIose+c+ePdsSby/bzwgzKJ6xXp9a5qAjxaB8ul45Ot+LgovgkqRrwB14PwoTplgnhbdr1y5+sKoRk+PD04/CrFChgvGQdvNSnTx5MufZvXt3WH1aYUJR7dmzJ1SmTJmwPJE6wY/CjFQO0rTCVBsgWGSAVybSoJQjKW9z+bHiYi7LT1iN7FlWtVzEaINyAjLapjYpMOKdyvWjMJ34zXFueGqFGfT61HUEVXxB+XS9cnR/Pgk2gk1GXwMRvWSVMJ5JudKTmi8Ky68UE8GsGY+ND8zr32BSrV69elh9y5Yt491k8uXLF5amI2DihNkTsmUUwSkJ6/iaNm1KlStXNqqtUaOGEUagWLFifI6dg9asWWNJczuJFy5u5bvFw6GnY8eOdMsttxhZtBPQpUuXSI16jfh4B7ziqevNiOtT1yVHQUAQyJwIxE1husFz+vRpTsqWzZgudcsaNb5atWpGHuy2E4kizTlu3LiRlLNKJPa4pDVp0oSGDx9OyuxKbu3H/Kamtm3b6iBvs2ecRAnEC5co1YQlY8tEKEzMqyoTLSlTM2E7RdA333wTlj/WCL94eqkvntenl/okjyAgCKQvAglXmImC5sCBAxGLjrReLlJaxEJ9JPbv359eeOEF5sBoa8WKFaS8dGnJkiWsrOGYVLhwYUuJcILSdO7cOR30dYwFF18VqcwYBcOxB45dao6RFaYe9f/973/3W1zE/EHwjFigJAoCgoAg4BOBpCtMs2KoWLGio1lXtwmbnGtq0aKF44J5nZ7s47Bhw1gEKEavay/Xr19viA0vWrt3sZFoCyQTF7wIYP0qFuvfeeedBK9UvJC8++67NiljOw2CZ2w1CrcgIAgIAlYEYreTWsvzffbZZ58ZPD179jTCToGpU6ca0ebF80ZkigTUekHDBKs8hR2lMptidQYsj9HLWtq1a2eZ69R5nI7JxEU5X7FI2Fzh0Ucf5bDaOs9JzLA482j4vvvuC0vXEUHx1PxyFAQEAUEgHggkXWGiEVhLCYIjjp3wINakPB2N9YcY0eiHtU7HEaMdmD2TSWaF0adPH4soGDlCMebNm9cSr09GjBjBQShUjN7gJGQm7G6jlsUQnJs0JRMXOPbA5Axq1aoVH7Epuxdavny5kW3AgAFGGAHl+Wucx4KnUYgEBAFBQBCIEYGkm2Qhv9q5hp588kn2EFVrD1mhIB4eo7lz5ybzp58w8oLDD/Z17dq1K917771smsVcGvY11Xt/wisS82rJILUbD7cByh5KRK335B88hfXIUs/92eV74403CHOZahcidqZZsGABKyTggjlPbKIAsm8YkExc4OCDb11qeuWVV3Qw6nHTpk28rSE+m6aWgPCvUKFCdOzYMYKJHhQLnlxAgH9qLSlBDk3aaQvztZBTE5yG9JaJiAvKp8uToyAgCKQuAhFHmHrk57QLkG6S109aRSoDn0DCSAVlQSFgdIEflOWZM2cI3pFmwugSZkg8uDBnhgdWlSpVWFlC5g8++CCistQjInOZXsJ6NyAvebHsQa2p5Kx4yEJGtG3nzp2E3YiwK48bqbV71LdvX1a6wARtLFGiBPNDduyqhN2K7BQrLvbyvJ6///77Rla0zw9169aN1JpZZoFSwksBPJztXs5B8Qx6feLFBvLon7lNOg5H9K2ZgvKZy5CwICAIpCYC1ymxsLg8ZQjKBCNLKEM4wXh5AIMH6y5hpsRoJNVILdDnuUmMFoOQXrup9qXlEYzXMlIdF3M7oBDVRg08msb6U5iZ3ShWPN3KlXhBQBAQBCIhkHIKM5KwkiYICAKCgCAgCCQLgYgm2WQJJfUKAoKAICAICAKphoAozFTrEZFHEBAEBAFBICUREIWZkt0iQgkCgoAgIAikGgKiMFOtR0QeQUAQEAQEgZREQBRmSnaLCCUICAKCgCCQagiIwky1HhF5BAFBQBAQBFISAVGYKdktIpQgIAgIAoJAqiEgCjPVekTkEQQEAUFAEEhJBERhpmS3iFCCgCAgCAgCqYaAKMxU6xGRRxAQBAQBQSAlEUiJr5WkJDJRhBo8eDB/oQNfJMEHnJcuXUrz5s3ztddrlCok2QMC0g8eQJIsgoAgEBcEZC9ZnzDiM1T4vBg2e7dTKBSiAgUK2KPlPAEISD8kAFQpUhAQBCIiICPMiPCEJ06bNs1QlgsXLuSRJT6/1bp1a/48WThHcmLwybQ2bdrQjh07qFevXskRIoG1pks/JBACKVoQEASSgAA+7yU/DxiojzaHTp48yb+JEyemHGbqo9kh9Q3O0IkTJww5Dx8+nHJyxnq9pXo/xNo+4ZfnkVwDqXkNyAhTXZleqVmzZkbWcePGGeFUCeAD0nny5LGIAzNxZqNU74fMhre0RxAQBK4iIF6yCoeaNWsSPkrcsmXLiNdF2bJlOf3KlSu0atWqiHnjmQjHonvuuSdqkXXq1KH69evzb/r06Zz/uuswTZ0elOr9kB4oipSCgCCQSATSxmS3detWNjfOmjXLVeZy5cqFjh8/zvk6d+5sybdo0SKO79evH8cPHTo0dOjQIcN8CXPr0aNHLTxqnjIEsybK1OZYHGH2NP+2b99u4VMdFtN5w4YNQ1999VXo4MGDlnpx/uabb0Yte/To0cyH9sUqi50/K/WDve1yHtt1LfgJful8DaTVCBNONhgxtWrVSmHuTEOGDKFs2bLR+fPn6aOPPrJkKliwIPOXKlWK3n77bRo4cCDlypWL81y8eJGPp06dCuPJkSMH81kSEniC0eTixYupVq1adMMNNxDMqkphs1MRzuHEs3LlygRKELnorNIPkVGQVEFAEMiKCMR9BKJATEiZRYsW5VEdRnhKMTrWoUeMao4xLF2ZUXnUtW/fPmP0hZHYzTffbOTFyM5N/qeffpr57KNQt/xB4rt37851oI1HjhwJKVOxRZ5BgwbxaFcpTUu8va5EjjCzQj/Y8ZTzxNzTgqvgmmbXQHp12JIlS1ihqOUSYQqjT58+nAZTafHixcPStcKEMtqzZ0+oTJkyYXkidV5GKEx4uUI+KOVIyjuSnEhLpMJE+Zm9H6LhK+np9dyQ/pL+isc1kFYmWdVgwvpCUOHChcOcdAYMGMBp69atIzXXx2GnfzBxwuyplKZTclLjihUrxvVj56A1a9YkVZZIlWf2fojUdkkTBASBrIlA2ilMKBJlduXeevbZZ41eU2vzqFKlSnz+/PPPG/FOgY0bN9Lq1audkpIa17ZtW6N+bLOXypSZ+yGVcRfZBAFBIHkIpJ3CBFQTJkxgxBo3bmwgpzxeOXzs2DFasGCBEe8USNW1idmzZzfEPXfunBFO1UBm7YdUxVvkEgQEgeQikJYK8+WXXyZ4tcJj9sUXX2QEsWgfpHa74WM6/lu/fr0hdqdOnYxwqgYyaz+kKt4ilyAgCCQXgbRUmIDs008/ZeR69uxJPXr0oJw5c/KyCywrSVfau3cv6WUt7dq1o8qVK6d8UzJjP6Q86CKgICAIJAWBtFWYzzzzDAMG5x89yly2bFlSQIxnpSNGjODi8AKwYsUKatq0qaV4tRkDqWUxlCptzaz9YAFdTgQBQUAQUAik7V6y+ArH5s2b6aabbiLtWWp2AkrX3n3jjTcIc5mYk8UmBZiPvXTpEqk1mewZjE0UQHByMpPaaYgKFSpkRGHzBhA2ZsCmB5pOnz5Neos/HRfLMbP2QyyYCK8gIAhkTgTSdoSJ7njppZeMXoE5c+3atcZ5pAAUUBDSuwEF4fXDo9ZQUt++fQltwr61+HxYiRIlCMoSss+YMYOwW5GZMCKFktQ/c5qOw1HvbGROjzWcWfshVlyEXxAQBDIXAvIB6TToT5hlMZ+p9pYljCSFBAFBQBAQBDIeAVGYGY95ytSI/XTr1avnWR5s9rB//37P+SWjICAICAKZCYG0ncPMTJ2QrLa0aNGC8Okwr4TN60VhekVL8gkCgkBmQ0AUZmbrUR/twfZ2tWvX9sSBzR42bdrkKa9kEgQEAUEgMyIgJtnM2KvSJkFAEBAEBIG4I5DWXrJxR0MKFAQEAUFAEBAEXBAQhekCjEQLAoKAICAICAJmBERhmtGQsCAgCAgCgoAg4IKAKEwXYCRaEBAEBAFBQBAwIyAK04yGhAUBQUAQEAQEARcERGG6ACPRgoAgIAgIAoKAGQFRmGY0JCwICAKCgCAgCLggkF3FP+eSljbRd911F/Xr14/w5YzDhw+njdxBBH3yyScJ7T148CD/vJYRlM9r+ZJPEBAEsi4CAwcOpObNm9OXX36Z6UEIqRam7a9169ahkydP8k8pkbRth9c+OHHiBLdVKUBfbQ3K51UuyZe+95D0nfRdLNeA2mOan0l4xsRSTjrwpv3WeDVr1lQ4XyV8P1JIEEgEAndUbkqNSt5Me04doknfzYlaxV1V/otuKVWD6havSj9fvkBbjuyif2xcRBuP7HDlLZa7ELUq34AalriJahatRKcvnqMdx/cy33eHtrnyxSPBb/tQZ4MS1alDpSZUo2hFKpQrP209/hNtOLSDZmz+nI6fP+Uo1s2Fy9OdVW6l2kUrU4k8hWnv6cO0XrXtjdX/cswfr8gg7UPdQfn8yB203wf/V5+I1Zw8f5ZeX/VhxDw68b/rdKTy+UvQ4bMnaPza/9PRno4DBgzgfN98841jfjyjH3vsMWrWrBmVL1+ezp8/T/v27aORI0fSv/7lr98nT57MX246cOAAde3a1bG+REamvcIcO3YsPfDAA1SxYkX+TmQiwZKysxYCeIi0KFuPqhQqS9dnw+wF0YmfT0dVmG/d8RQrETNaZfMVpzYVG9OU9Z/SW9/MMidxGPUMu62vUQ8iC9+Ynx9itykl+s+Nn9GYOCuVoO2DbE807k5db26NoEFNbqxFTUrVot/W6kDPL3+Xlv5kfYDiJeL/NXvQyI9AgRvyMlZdbmpFv5vzIm0/sdeSHstJ0PYF5Qsia9B+L5mniHpZ+VXEKs9fvuhJYf7mptb0cL17uKyj5076VpiNGjVi3ldffTVMnieeeIKGDRtG112HXVivEr7Jmz9/fnr33XfpwQcfJHwFyQu9/vrr1KVLF84KpZsMSnuFCdDw5iIkCMQbgbur/pcaBRWxFHs5dMVybj95986/UPUi5en0hbP04peTafnub6lM3mLUvWY76lK9JT1Y+w41qjpEn2z9t8HapnwjGnrbI3y+Yu96+uSH5bTu4I9ULHcBeqRBZ2paujbdV6Mt/WffRkJ6vChI+1D3n3/Vk+6u1oLF+GLXWlqyaw1tOfoTVSpQkvrUu4uqFCxL5y5dsIhZ+IYChrKcsWkJzfrhC9pxYh+1q3gLPVTvbsILxUut/kC//ehZC18sJ0HbF5TPr6yx9Hv+nLmN6l5dOc0ImwPnLkVXKrWUJWPALd3NbL7CTz/9NCvDs2fP0kcffWTh/fOf/0yDBg3iOHzHd9KkSZynWrVq9Ne//pWqVKlCrVq1oj/84Q80YcIEC6/95De/+Q316RN5RG3nScR5plCYQYGpW7culShRghYuXBi0CF98nTt35g9Ar1u3zjNf+/bt6aeffvL9pZCgfGbBYEqpUaMGO1ItXbrUnOQYxpvili1bfMl62223ET4b9vHHHzuW6RYZlM+tPKf4rjOfYVMj0u6qdiv1rX8vZb/O3bEcpjUoS9AfF4yibcf3cHiPUpB4qJ2/dJF6KMU54JYeFoW5eNdq6rD7V6wQZ2xewjz4d+z8SfrT4jfpvY7PUNXC5ahTlWZxVZh+2weZoPy1shyxYoqlHbtO7udRZbn8JeknFTZTi3J1+XTj4R30mslMuGjHf2j/mSM0/vY/s9I088QaDtI+1BmUz6+8sfR7/lx5uLpzl36mmVui35tOshXMlY9Gt3uCk1apl7HGagrBL2klNm/evDBWmFx79OhBy5YtI4w0Nf344480f/58dtIsXLgw9e7dO6LCrFSpEuHbvaCdO3dShQoVdFEZfkw7hakmll1BQkc0aNDAMR3eszly5ODPWb3yyivUrl07PteZ4WGLOHifxovgNfbyyy8T3qhy5sxpFItPZc2dO5d++9vfGnHmwM0330zvv/8+Va9enbJlu/qAvnjxIkHuy5cv0/XXO3dbUL5FixbRLbfcQn/5y18IJu6hQ4fynANMJ5ouXbpEuLjtBDMMzCRFivwyEkP78BLiNsfQrVs3xsVeHtr49ddf0x//+EdCX9opKJ+9HD/nUFqgMxd+5mOkEeatZa5+Km3b8d2GsmSma//GrpnOZsxc2XNQc2WCxehT01Ofj9PBsONnO1exwoTSjDf5aR/qfqzhr1mEbw/8YFGWZrnsyhJpRW8syFkuKDOhndYf+pFgPgQulQqUjqtZ1m/7tGxB+TS/12PQfi9wTWEeU1MEQWlUm8fpxutvoM1HdtK/Ni32rTDxvClZsiRX/+KLLzqK0bBhQ8d4ROIZ0b17dypXLvJ1vXjxYn7mHTp0iMaPH8+jU9dCE5zg/rqc4IqDFg+FYSfYx/EzP+DteaBkkAcT03feeScraJSCkwAAD95JREFUyzNnztCVK1dNbBUrVqT16+Nn7po2bRorxVq1arGyhDJQ3rwsFuTo1KkT4UKwU5kyZejzzz8nXIxQllA+MHdA2cP84aYsg/KhfozwIFOpUqX4TQ4u4hpLyA06dSrciWPWrFn08MMPs7K8cOEC7d27l9uIsjp06MBvkMxs+le5cmV65513WPkC+23btvFb488//8xtxEvG2rVrTRxXg0H5wgpKYESpPEW59J8vWs2R5io3HN7Op42VA5FXwkMNdObCOa8sCcvXsORNXLZ5JOylssU7V3O2eiWqUeWCZSwsGLVCWWJ+OJ5zmJZK0vAkUr/nz5WXW3T0nPsAIlKTB6g5aFhDMEL985JxlOPaHH0kHnsaXrBBuO+3bt1qT456jnlMEO59N5ozZw4/X/DCfvvtt1OyHTvTTmFiVFKgQAHLD6MSrwTF8+2337KnFRQElMU///lPZkdnjBkzxmtREfPB5ABlt2DBAqpXrx53etmyZXmyG0oC1LhxY9IT5rowrGPKnfvq/MTw4cO5nXiLq1+/Pu3evVtnCzsG5TMX9NBDD/EbHybUMSHfpEkTlhsXtp5s1/lnzpxJbdq04VPMPxQtWpSVPNqINbEg9NWoUaM4rP/Byw0KFcoS2MMiUKdOHSpevDgr2Q0bNjiaZ4Ly6Xoz4vjjiasm2MqFSrtWVzT31ZFWsWtH14ymhNsrN+Gzbw/6fyiZiolLMO+1uTPMW4JalqtPA5WJ+Zlbe1PPWre7mlWhCOENC5p812D6Xd27OYx/I9v8kcMfblpkxEmAKFK/a5NslUJl2GS/6LdjaMn9YxW2z9JTTR+kigVKuULYTjmf/eaaw9aTn71BR38OpnTvuOMOrgNzk0EI0yqg77//3pEdA4QWLVpw2iOPPBJIKTsWHEOks20vhgJTnRVvLHZTKEZJmH+DwsTk8uOPPx5zM3ARuV1IUBJ6tNmxY0davfrq23fTpk2pUKFCXDcUFhSmJpgoMacIkzQUjpmC8pnLQDhPnjw8koSi3LPn6sNf51mz5uoDEueYQ2jbti0nTZ8+nTC5b6YpU6aweRtKFiaX//mf/zGS8bID0u03ElRgxYoVhLY4UVA+p7ISFbfu4FWFgJHBkOYP0VDlKaoJSzBeavkH0gqnwLURgk53O95dtbnhePSh8pRNJsExB3TpymVqVa4hDWreh0eGZpn+0KALvbduDk1cN9sczeFH579ME9RcZa1ilalP3U7806ZYeAHDg1joKgLR+r1AzqtzmLjWYKrH6PyGHLnU6L00/25Xy6D+8vl4+srmJAZF+sytfbiS0Sv/oV5iwqc+vPQBnpN4XuLFFw48fmnEiBH8vAGfHqmay4AyfeqppzgKz8IZM2aYk5MWznIK0+1tZvPmzTwShNJIBMHEihEZFALMi5rgVKPJPIqDWdQrBeWzl48RMV4c7MrSnq9Xr15GFCbjMddqJ0z0Q658+fJZkvDCghEoRpf79+9ns/U//vEPHolbMtpOgvLZiknoKZxXsGQEzkHw/mxVviE7tGAJAJalQNEcUHngeXvEgymtijJd/rnpAyzza//5kA6ePZpQ+aMVXjpvEc6Ctjzfsi9hCcL7m+fSNwd/UHNhuei3yqGpUckarAhherZ79D7a4NesLIED1l9i3R9MsaAqalRePHfhpLeRhUnyPy/9/i/lHFZSrWNdtX8z/d+Wzw2JaxSpSM8rj2tcYxi5t5j6ByMNgdFtn+BrEc5WZj5LJg8neu2l+UXaAxtnga/Io48+yuGJEyc6ToXhRRwDg++++478PAu9yhA0X5ZTmG5AffbZZ6ww0UmlS5dmu7xbXq/xGKlhlAizq3besfOanYEwfwc6etTfgzEon12WjRs3GqNde5r5HE5MmmB6jkT20TDMLDAxQ5nC9AzHIPygrOEBh9EpHKXsFJTPXk6izzFK2np0N/2+4b1UIX8pNlEeOnOM/rN/A739zWx6tGEXtX6uCO1WGyBEIszrjb/jT5xl4fav1WYAv3jPRuJLZNpFpeg0rVPm4X4LXtGnfPx67/c0tsP/8mYNDyjzrFlhwkzYSS3TgaJ8ctHrBM/hUnmL0n03t2VHKCjayXcNovs/eo69gy0FZ6ETr/2+T+H4ly/+FoYMNsZ4bP4o+vDe51kxtq3QiD67Nn88qu3jhCkBjEbHr5lpeICjkHzXnIjgBY5NKELqz23zCeTHCgOQ073KCS7/8CzUU2BYLaAVrzk74jF6hV/E73//e8sAo1ixYpwVzxUMPPDcwJKVjCJRmNeQNk88YxI7Vurfvz+98MILXAwmrGFuhDfqkiVLWCnBK9fuJarnLs2yeJEjKJ+9bFx8fgk7bkQipzLhio4fbjY4YGHeEy8UFZXj1eDBgzkN67PsHstB+SLJl4g0mMHspjBdD3bwAf10yh03KJJ3Oj7NHow71VrFYf9+T7Mn9Xjs51NG/XZlqRNmqtEOdjcyz6HB8xXKEjRg4Wjap0bZIDz0sRPNdOWhOfnuZ9lc/Xu17vSvarlKVqR49TssET+odbHYgelXpWuxwqxeqBxvKgFcsVnEjF+/5Agx0j7uNpLT+s77q+POVEOGDOHRH5wmnZaTOBasIuExC58OOC4eP36c956158XzAM8BEAYTbnvTIk3vLISNa/wuS+MKAvwThXkNNDjmgI4dO3YtJrYDdrcAQTHqt7FoJWK9JRbzwlzph4Ly+anDnNe85AOT8jCtBqE//elPhB8IXrXADPO0UKDjxo1zXZYSlC+IjPHkwTpNPQ+ILe+cCOY4jCwxN7Xr5AF6YPZQp2xJicNGA5oaKW/Z1cocaKfT15bfYD5NU5NSNTmI7QG1stRpOGK0OVtt1oCdg+BFmxUp3v2eJ+eNDGOu7Dn5eOHKJcLLlxvlU3Oi2FkKpPNhftmJsDsP6JNPPnFKdoyDGRYjSyhL+C+4bTYDJQxl6kY33nij4cGv84Eno0gU5jWk4bIM2rRp07WY4AeYSLUJFm9jTmQ2xep01I2RFUaMMFnCE9VMcLaxmziRHpTPXLaf8NSpUwlfPwHBqxjrI2MlvHnih6U92G9Sv8BEKzcoX7RyE5H+pPImBW1Vb/+bju4KqwIjs9fbDWRTGvL0mftiWJ5IEXWKVaGhzR+mQurBBycav3uCRipbp63ev5HnKXvX6eSoMKFIQVgIrwlLF0C5c96go8KOh89dfUheiWDlyIj2hQkWIMKvnEH6HcuSVu13flbB7Ir5YdD2a0oSLzuRXr7g7fyCckrDvHSkfLVr12aPdpTttvYSaWaC499bb73Fzy5MN2F1gNtXpb744gu+/8385jCeO8899xzvR4vnREZTtoyuMNn1YQJZL3vQsmBiWa9vxBrBWAm73WjSO2Hoc6y/hMk3b96r66h0PI7wNtXrQrFA17wJA0Zg2pvWzBMLn70cr+dYc7Vy5UrOjhcNTNzbqWXLlmx+Nsdjbhg3DPjhZWcnvBDoRcyYT9UUlE/zZ+QRSyueUx6ydvqfJr+l5uWuWjFeWfmBPZluLVOH5//gUPO98lz0qyxRYN/6nalYnkKscO9X+7liRBtvmrju6qiivvL6hdI0U0MV16Nme45a/tO3RtLHW5dzGKPrR+p1NuJ1oLzaGei/69zJp0uuzbfpNPMxI9pnri9o2I+cQfr9IbUkZ3S7AYQ5yVK2rRsrKCwndRxkiP6xGrnHk5555hkubteuXY7rrO114VkLx0C86GP6BuZWN2Vp503F8yw3wsQ6TDjiYDeb06dP8zIOPWrD5r5+d8936lTMvUEp4kGPESN2qMAPaw31yBJrHfXmAOYy8CaGvRUxysR2dNgwADJjEhyEOUEtbzz4zGX4CcPEAocfmFbgtHPvvfeyaRbtglOP9jbG0hpsfQUCFhh5A4f33nuP3zphAseNhI0X9Jwu2ohttTQF5dP8QY7YE7ZCwV/WsmlvTpitsOZN04EzR6nnx1etCPCGxbIKUFvlJYsdf2AS02ZYxMMp6PtrmxfgHARFM6J1v6sn6v9NRSrQsgcmGOfmABxpsF2eExW+sYAluqBy5Dh09pglTp8EaR94sXRm2vcLeIN17AHbWe0pi9FLnhw3GhvOf75zDX2y7d+6Kj5OUktNequlJL2UYuyotvhbue97dS2rfaDVi4I2BcKDONI2bxnRvqC4mBvrVc6g/X5AzVHC0xgb3f+zy4u8+cC2Y3uotHIU01gi/X8XB19jaW6POYwtN0FOL8nmfAjDdGteGof73mk5GfJibbp5gIC4VKRMMcKENxXIaRcgO+jYcg5zblBceEBD+UBxYvE9HE7iRVhGojcogGLEvBwUHzxBMVrELjlOpDcs1iNNLMuAsoTixPpRPX9o360/KJ9ZBjgn+SGMLmGexVwCRuhoI+ZgoSzRJx988IGhLFEuzjE/++GHHxLmHYAHbiJsXKCVJT77AwW5fPkvb8ZB+fy0xZ4X5kMoSf0zp+s4HPMqRaEJy0p6zR7GW40hDpuQa2V5+OxxGrjoNccvlVSwLTLXX0bR5ZqP2dT16kZT1s8zkrBn6w/Hdhvn9kCQ9ukyxqnPP2EfWXhbwvyHPUjhYIIN56FMBy97S2c1ju+qdZl/VooeShE8HdWXS+AIhAc85srgCYw9XCMtt8mI9sWCi26sVzmD9js27u8+azBh43uYuzHfXVuZ44ElFCX6/kF1HTrNMWsZ3Y6XTZ7Q9jzYFxbPTTybnL5MYs+PzVbM5PSir9OzZ8+ug56OXp71ngoKkEm952X+D6iqhzp/5FQtT+D2qtFfSJkFQ1WrVk14+1GPUpK+61HzeCE1PxhSZkpfvEH5Yr0O0Ea0VSlBz/Kq+d6QmuMIKXdzzzyQMyhfrG30w688E0NqXZyvdvkp3ymv2lA7VLVgmQyrU5lTQ2qkFFIenr7qhIzqSxkhtYTBF19Gt88JYy9xGSmn+q5oqEmpGqFqhcr6wtJLO8x5lMcqP0OV30BC6zHXmYLhzK8sAbpWmOpzM1m5s6XtWeDlMAUfMnLdZYLrTu0yxgpTTcdk2f7MFCZZ9YAQEgQEAUFAEEgQAlhTrqevsJ48q5IozKza89JuQUAQEAQ8IoAtPeE3AZ+FrExZxkv23LlzhEWvfnfRycoXh7RdEBAEBAEgAK94ISK43MEeLSQICAKCgCAgCAgCERAQk2wEcCRJEBAEBAFBQBDQCGQZk6xusBwFAUFAEEhXBO6+++5Aos+ePTsQnzBZEZARphUPORMEBAFBQBAQBBwREIXpCItECgKCgCAgCAgCVgREYVrxkDNBQBAQBAQBQcARAVGYjrBIpCAgCAgCgoAgYEVAnH6seFjO8N02fJfSifRnbpzSEhmH78EVKVKEpk2bxt+OTGRdGVk2Nr4H3vjCCzaYx5da8DX37du3Z6QYaVcXNvLHp9Q2bNhAf//739NO/kgCJ+L+k+ssEuKSFg2B/w/RhYPFpsAdjQAAAABJRU5ErkJggg==;" vertex="1" parent="1">
          <mxGeometry x="-50" y="290" width="270.09" height="128" as="geometry" />
        </mxCell>
        <mxCell id="DUj9_0CVN8MQ_FfbOPjA-9" value="" style="shape=image;verticalLabelPosition=bottom;labelBackgroundColor=default;verticalAlign=top;aspect=fixed;imageAspect=0;image=data:image/png,iVBORw0KGgoAAAANSUhEUgAAAeAAAADcCAYAAACoG3L3AAAMTGlDQ1BJQ0MgUHJvZmlsZQAASImVVwdck0cbv3dkkhAgEAEZYS9BREYAGSGsALKHICohCRBGjAlBxY0WFaxbRHCiVRCLVisgxYVbKYrbOooDhUot1uJWvgsBtPQbv+/yu/f++d9z/3ue5+4dBwCjQyCT5aJaAORJ8+WxIQHsSckpbFIXoMEfHbAAUSBUyLjR0REAlqH27+X1TYCo2muOKq1/9v/Xoi0SK4QAINEQp4sUwjyIfwQAbxbK5PkAEGWQt5iZL1Ph9RDryqGDEFercKYaN6twuhpfGbCJj+VB/AQAMk0gkGcCoNkLeXaBMBPqMGC0wFkqkkgh9ofYNy9vugjihRDbQhs4J0Olz0n/Sifzb5rpw5oCQeYwVscyUMiBEoUsVzD7/0zH/y55ucqhOWxgpWXJQ2NVMcO8PcmZHq7CNIjfStMjoyDWAQDFJaIBexVmZSlDE9T2qK1QwYM5g6sM0AmK3Dj+IB8rEgSGQ2wEcYY0NzJi0KYoQxKssoH5Q8sl+fx4iPUhrhYrguIGbU7Ip8cOzXszQ87jDvJdAvmADyr9z8qcBK5aH9PJEvMH9TGnwqz4JIipEAcWSBIjIdaEOFKRExc+aJNamMWLHLKRK2NVsVhCLBdLQwLU+lhZhjw4dtB+b55iKHbsRJaEHzmIr+ZnxYeqc4U9EQoG/IexYL1iKTdhSEesmBQxFItIHBikjh0ni6UJcWoe15flB8Sqx+L2stzoQXs8QJwbouLNIY5XFMQNjS3Ih5tTrY8Xy/Kj49V+4hXZgrBotT/4ARABeCAQsIES1nQwHWQDSVtPQw/8p+4JBgIgB5lADBwHmaERSQM9UniNA4Xgd4jEQDE8LmCgVwwKIP9pBKviJMOc+uoIMgb7VCo54CnEeSAc5ML/ygEl6bAHieAJZCT/8EgAqxDGkAurqv/f80PsF4YLmYhBRjk0I5sxZEkMIgYSQ4nBRDvcEPfFvfEIePWH1QXn4J5DcXyxJzwltBMeEW4QOgh3pkmK5CO8nAg6oH7wYH7Sv84Pbg013fAA3AeqQ2WchRsCR9wVzsPF/eDMbpDlDfqtygp7hPbfIvhqhQbtKM4UlDKK4k+xHTlS017TbVhFleuv86P2NX0437zhnpHz877Kvgi24SMtsWXYIewcdhK7gDVjDYCNHccasVbsqAoP77gnAztuaLbYAX9yoM7IPfNlZVWZVDjXOnc7f1T35Ytn5atuRt502Wy5JDMrn82Fbwwxmy8VOo1huzi7uAKgev+oH2+vYgbeKwir9Qu3+FcAfI739/f/9IULOw7ADx7wkXDkC2fLga8WDQDOHxEq5QVqDlddCPDJwYB3nwEwARbAFsbjAtyBN/AHQSAMRIF4kAymQu+z4D6Xg5lgLlgEikEpWA02gAqwDewE1eB7cBA0gGZwEpwFl8AVcAPchbunEzwHveA1+IAgCAmhI0zEADFFrBAHxAXhIL5IEBKBxCLJSBqSiUgRJTIXWYyUImuRCmQHUoP8gBxBTiIXkHbkDvIQ6Ub+RN6jGEpDdVFj1Bodi3JQLhqOxqNT0Ex0BlqILkFXouVoFboPrUdPopfQG2gH+hztwwCmgbEwM8wR42A8LApLwTIwOTYfK8HKsCqsDmuC63wN68B6sHc4EWfibNwR7uBQPAEX4jPw+fgKvAKvxuvx0/g1/CHei38m0AlGBAeCF4FPmETIJMwkFBPKCLsJhwln4L3USXhNJBJZRBuiB7wXk4nZxDnEFcQtxP3EE8R24mNiH4lEMiA5kHxIUSQBKZ9UTNpE2kc6TrpK6iS9JWuQTcku5GByCllKLiKXkfeSj5Gvkp+RP1C0KFYUL0oURUSZTVlF2UVpolymdFI+ULWpNlQfajw1m7qIWk6to56h3qO+0tDQMNfw1IjRkGgs1CjXOKBxXuOhxjuaDs2exqOl0pS0lbQ9tBO0O7RXdDrdmu5PT6Hn01fSa+in6A/obzWZmk6afE2R5gLNSs16zauaLxgUhhWDy5jKKGSUMQ4xLjN6tCha1lo8LYHWfK1KrSNat7T6tJna47SjtPO0V2jv1b6g3aVD0rHWCdIR6SzR2alzSucxE2NaMHlMIXMxcxfzDLNTl6hro8vXzdYt1f1et023V09Hz1UvUW+WXqXeUb0OFsayZvFZuaxVrIOsm6z3o4xHcUeJRy0fVTfq6qg3+qP1/fXF+iX6+/Vv6L83YBsEGeQYrDFoMLhviBvaG8YYzjTcanjGsGe07mjv0cLRJaMPjv7FCDWyN4o1mmO006jVqM/YxDjEWGa8yfiUcY8Jy8TfJNtkvckxk25TpqmvqcR0velx09/YemwuO5ddzj7N7jUzMgs1U5rtMGsz+2BuY55gXmS+3/y+BdWCY5Fhsd6ixaLX0tRyouVcy1rLX6woVhyrLKuNVues3ljbWCdZL7VusO6y0bfh2xTa1Nrcs6Xb+tnOsK2yvW5HtOPY5dhtsbtij9q72WfZV9pfdkAd3B0kDlsc2scQxniOkY6pGnPLkebIdSxwrHV86MRyinAqcmpwejHWcmzK2DVjz4397OzmnOu8y/nuOJ1xYeOKxjWN+9PF3kXoUulyfTx9fPD4BeMbx790dXAVu251ve3GdJvottStxe2Tu4e73L3OvdvD0iPNY7PHLY4uJ5qzgnPek+AZ4LnAs9nznZe7V77XQa8/vB29c7z3endNsJkgnrBrwmMfcx+Bzw6fDl+2b5rvdt8OPzM/gV+V3yN/C3+R/27/Z1w7bjZ3H/dFgHOAPOBwwBueF28e70QgFhgSWBLYFqQTlBBUEfQg2Dw4M7g2uDfELWROyIlQQmh46JrQW3xjvpBfw+8N8wibF3Y6nBYeF14R/ijCPkIe0TQRnRg2cd3Ee5FWkdLIhigQxY9aF3U/2iZ6RvRPMcSY6JjKmKex42Lnxp6LY8ZNi9sb9zo+IH5V/N0E2wRlQksiIzE1sSbxTVJg0tqkjkljJ82bdCnZMFmS3JhCSklM2Z3SNzlo8obJnaluqcWpN6fYTJk15cJUw6m5U49OY0wTTDuURkhLStub9lEQJagS9KXz0zen9wp5wo3C5yJ/0XpRt9hHvFb8LMMnY21GV6ZP5rrM7iy/rLKsHglPUiF5mR2avS37TU5Uzp6c/tyk3P155Ly0vCNSHWmO9PR0k+mzprfLHGTFso4ZXjM2zOiVh8t3KxDFFEVjvi780G9V2iq/UT4s8C2oLHg7M3HmoVnas6SzWmfbz14++1lhcOF3c/A5wjktc83mLpr7cB533o75yPz0+S0LLBYsWdC5MGRh9SLqopxFPxc5F60t+mtx0uKmJcZLFi55/E3IN7XFmsXy4ltLvZduW4YvkyxrWz5++abln0tEJRdLnUvLSj+uEK64+O24b8u/7V+ZsbJtlfuqrauJq6Wrb67xW1O9Vntt4drH6yauq1/PXl+y/q8N0zZcKHMt27aRulG5saM8orxxk+Wm1Zs+VmRV3KgMqNy/2Wjz8s1vtoi2XN3qv7Vum/G20m3vt0u2394RsqO+yrqqbCdxZ8HOp7sSd537jvNdzW7D3aW7P+2R7umojq0+XeNRU7PXaO+qWrRWWdu9L3Xfle8Dv2+sc6zbsZ+1v/QAOKA88NsPaT/cPBh+sOUQ51Ddj1Y/bj7MPFxSj9TPru9tyGroaExubD8SdqSlybvp8E9OP+1pNmuuPKp3dNUx6rElx/qPFx7vOyE70XMy8+Tjlmktd09NOnX9dMzptjPhZ86fDT576hz33PHzPuebL3hdOHKRc7Hhkvul+la31sM/u/18uM29rf6yx+XGK55XmtontB+76nf15LXAa2ev869fuhF5o/1mws3bt1JvddwW3e66k3vn5S8Fv3y4u/Ae4V7Jfa37ZQ+MHlT9avfr/g73jqMPAx+2Pop7dPex8PHzJ4onHzuXPKU/LXtm+qymy6WruTu4+8pvk3/rfC57/qGn+Hft3ze/sH3x4x/+f7T2TurtfCl/2f/nilcGr/b85fpXS19034PXea8/vCl5a/C2+h3n3bn3Se+ffZj5kfSx/JPdp6bP4Z/v9ef198sEcsHApwAGVEebDAD+3AMAPRkAJjw3Uierz4cDBVGfaQcQ+E9YfYYcKO4A1MFv+pge+HVzC4ADuwCwhvqMVACi6QDEewJ0/PjhOnSWGzh3qgoRng22R35Kz0sH/6aoz6Rf+T2yBSpVVzCy/ReRgoLx60iPSQAAAJZlWElmTU0AKgAAAAgABQESAAMAAAABAAEAAAEaAAUAAAABAAAASgEbAAUAAAABAAAAUgEoAAMAAAABAAIAAIdpAAQAAAABAAAAWgAAAAAAAACQAAAAAQAAAJAAAAABAAOShgAHAAAAEgAAAISgAgAEAAAAAQAAAeCgAwAEAAAAAQAAANwAAAAAQVNDSUkAAABTY3JlZW5zaG90mM0srgAAAAlwSFlzAAAWJQAAFiUBSVIk8AAAAttpVFh0WE1MOmNvbS5hZG9iZS54bXAAAAAAADx4OnhtcG1ldGEgeG1sbnM6eD0iYWRvYmU6bnM6bWV0YS8iIHg6eG1wdGs9IlhNUCBDb3JlIDYuMC4wIj4KICAgPHJkZjpSREYgeG1sbnM6cmRmPSJodHRwOi8vd3d3LnczLm9yZy8xOTk5LzAyLzIyLXJkZi1zeW50YXgtbnMjIj4KICAgICAgPHJkZjpEZXNjcmlwdGlvbiByZGY6YWJvdXQ9IiIKICAgICAgICAgICAgeG1sbnM6ZXhpZj0iaHR0cDovL25zLmFkb2JlLmNvbS9leGlmLzEuMC8iCiAgICAgICAgICAgIHhtbG5zOnRpZmY9Imh0dHA6Ly9ucy5hZG9iZS5jb20vdGlmZi8xLjAvIj4KICAgICAgICAgPGV4aWY6VXNlckNvbW1lbnQ+U2NyZWVuc2hvdDwvZXhpZjpVc2VyQ29tbWVudD4KICAgICAgICAgPGV4aWY6UGl4ZWxYRGltZW5zaW9uPjQ4MDwvZXhpZjpQaXhlbFhEaW1lbnNpb24+CiAgICAgICAgIDxleGlmOlBpeGVsWURpbWVuc2lvbj4yMjA8L2V4aWY6UGl4ZWxZRGltZW5zaW9uPgogICAgICAgICA8dGlmZjpSZXNvbHV0aW9uVW5pdD4yPC90aWZmOlJlc29sdXRpb25Vbml0PgogICAgICAgICA8dGlmZjpYUmVzb2x1dGlvbj4xNDQvMTwvdGlmZjpYUmVzb2x1dGlvbj4KICAgICAgICAgPHRpZmY6WVJlc29sdXRpb24+MTQ0LzE8L3RpZmY6WVJlc29sdXRpb24+CiAgICAgICAgIDx0aWZmOk9yaWVudGF0aW9uPjE8L3RpZmY6T3JpZW50YXRpb24+CiAgICAgIDwvcmRmOkRlc2NyaXB0aW9uPgogICA8L3JkZjpSREY+CjwveDp4bXBtZXRhPgo8HPmoAABAAElEQVR4Ae19B7wURbb+ESQjOeesZARkwUeOAgqygqAgD1aFFVYE3tO/rCCCKAuKiEhYA5JWDPAAEVBAkLCKLElAkmTJOSNx/vUVVNvd0z3T3dNzJ9xz7m9uV1c89VV3n6pTp6ruIqKA+DExAowAI8AIMAKMQBQQOHr0KGXOnJmeffZZ+vzzz7US0mgudjACjAAjwAgwAoxAiiHAAjjFoOaCGAFGgBFgBFIzAteuXTNU/y5xxypoAyR8wwgwAowAI8AIRB8BHgFHH2MugRFgBBgBRoARCEKABXAQJOzBCDACjAAjwAhEHwEWwNHHmEtgBBgBRoARYASCEGABHAQJezACjAAjwAgwAtFHgAVw9DHmEhgBRoARYAQYgSAE7g7y8cGjZs2a1K5dO8ucXnnlFUt/9mQEGAFGgBFgBFITAlFZhvTGG2/Q888/b4ljtmzZLP3ZkxFgBBgBRoARSE0IRGUEPH/+fKpcubKGY4ECBei+++7T7pPZMWXKFCpVqhQdO3aM2rdvH7aqr732GjVu3Jj27dtHXbt2DRufIzACjAAjwAgkDwLYiCOqv8ceeyxw/vx5+Yt2WbHMf8yYMVo9T5w4YYvp5MmTA7t37w6cO3dOi3/y5Enb+LGsE5cd3XeD8WV8+RlIvc9AVEbA4oFKdSQ6GdS9e3dH9W7RogVlyZLFEDcQgPxlYgQYAUaAEUgtCCSEFXTbtm2pSpUqntqkTZs2VKZMGU9pnSYqWbIkffjhhzL6/v37wyaDer5atWryN3PmTBn/rrswHc/ECDACjAAjkFoQCCmAd+3aRUJNSnPmzLHFo2jRonT27FkZD4LSD6pbty79+OOPJNSyJFTXNG3aNFq1apUsY8aMGZZFIC54BXXq1InAO9JOnz6d1q9fT0IlTBDG0aClS5fS3XffLcuYMGFC2CLA6549e+RP8cwj4LCwcQRGgBFgBJIKgZACePHixYSRWcOGDW0rPXjwYEqTJg1dvXqV5s6daxvPaQAE7IIFC6hixYqUPn16un79uhSkSA9eWrduTRB4ZoIARPisWbPogw8+oHz58tGtW7dkesTNkCGDFOTmdJHew+Asd+7cdOPGDYJqOWPGjJFmyekZAUaAEWAEUgECIQXwoEGDCCMzCFgIWitSo16lSrWK48bv22+/lWUuWrSIqlatKoVbkSJFCMuXhOGSzArrjGvUqGGZbbNmzejy5cvUpUsXypEjh0w/atQoGRcCety4cZbpvHgOGDCA6tWrJ5PioGWMupkYAUaAEWAEGAGnCIS0vl22bJm01BXLZILiCaMjGQZrXjHiDAoXDEg/P62glTW16BwYyhNqcMmLEIKBPHnyGMLAx4EDB2S4GD0HhSk+3Vzr16+vWTGPHj1ay7N///6ynFBW0PpykBZ1chpfn5bdqdd6ktue256fgcR/BkKOgEUDE9apgnLlykUNGjSQbvWvb9++0rlp0yY6fvy48vb1ivXDvXr1oqlTp8p5YJV5+fLlldNwFUt85NyxwVPcHDp0SHpBNe0HYcSPEfXmzZupX79+fmTJeTACjAAjwAikIgTCLkNavny5NC7Kmzcvvfrqq9SkSRMJDyyLYf0Lev311+XVr3+1atWi4cOHSzUz1N9WhPlhN3Tx4kUZ3S4/N3mhw4G53mvXrlHPnj3lxhsqPXACQThjQw6o8Pfu3auC+coIMAKMACPACEgEwgpgxJo4cSJhPhhzr4qGDBkinWfOnCHM1/pFffr0oWHDhsnsYNi0evVqWrJkCQlVOK1bt07uGIXReKyoZcuWVKJECVk8OgE//PCDJSsI27hxowzDfPRXX31lGY89GQFGgBFgBFInAo4E8FtvvUUvv/wypUuXjrDPMw5UgMUvCCpfP2no0KEyO2zN6HXtr5/8mPO6dOmSXHZl9lf3mTJlkhbXuMfyLBDSMDECjAAjwAgwAnoEHAlgJPjmm2/okUceoc6dO8t5T4zwsMzHzjpaXwj2RVb0+OOP0xdffKFuDVes/1UqYrt8UW4sacWKFVSsWDFbFoQRlpw3x7KsUPFsM+AARoARYAQYgVSBgPUEq0XV1TGCUP9iFAxauXKlRcxgL2yioUgZbqn74sWLKyft3LlTc5u3dcT638OHD1PWrFm1OOxgBBgBRoARYAQSFQHHI2CohHfs2EH33nsvKUMjGGU5pe3bt8sTkSpVqiRVs1DP5syZkzCHrOZUYUkNIVuoUCFq2LChNP7CDlawXFYjX4wssalGohIMslBvRWrEjzoplTXCYDSG9c9MjAAjwAgwAsmJgOMRMKr/5ptvaihAUG7YsEG7D+fo0KEDHTx4UEaD0MFIGpbC+OkJy47UhhsQShBCmHvGHsvNmze33RYT6nAndPPmTSfRIo5jVw46Eqi/+ukLUn64JnInQ18ndjMCjAAjwAhYIwDph00kUowgYKtXry63bsQezaF2j8IJQxcuXPDVyjrFKsoFMQKMACPACDACIRBIcQEcghcOYgQYAUaAEWAEUg0CrlTQqQYVrigjwAgwAowAIxBlBFgARxlgzp4RYAQYAUaAEbBCgAWwFSrsxwgwAowAI8AIRBkBFsBRBpizZwQYAUaAEWAErBBgAWyFCvsxAowAI8AIMAJRRoAFcJQB5uwZAUaAEWAEGAErBFgAW6HCfowAI8AIMAKMQJQRYAEcZYA5e0aAEWAEGAFGwAoBFsBWqLAfI8AIMAKMACMQZQRYAEcZYM6eEWAEGAFGgBGwQsDxaUhWidmPEYglAjVr1qR27dpZsqCOz7QMZE9GgBFgBOIAAd4LOg4agVnwhgDOpX7++ectE2fLls3Snz0ZAUaAEYgXBHgEHC8tEed8vPbaa9S4cWPaJ86F7tq1a1xwO3/+fKpcubLGS4ECBeSZ05oHOxgBRoARiGMEeAQcx40Ta9YmT55M9erVozx58mjnNl+7dk3ex5o3q/JxfOUnn3wig3gEbIUQ+zECjEA8IcAj4HhqjTjjpUWLFpQlSxYDV4FAih4fbSibbxgBRoARSCYEkt4Kuk2bNlSmTBlXbda2bVuqUqWK4zQPPvggFS1a1BC/fv36VKlSJYOf3Q14vO++++yCffcvVKgQocxwBPVutWrV5G/mzJky+l13QWmSnOS23fUoeHnO9OnZzQgwAqkTAQxpEv538uTJwLlz52Q9OnXqFNi1a1fg/Pnz2u/EiRMB8ZG0rGfdunUDP/74YwB56NMgvxkzZgSl2bRpkyzrhRdeCCBflWbKlCkB5KX3W758eVB64P3OO+8E9u7dq6VFHihPCDrL+JG2UfXq1WUdjx8/bigT9++//37YMkePHi3ToW6R8mJOj7ZC3efMmWObt+jgBM6ePSvjCUFpGU+ooLW6mcuwunfb7sgjkufMigf2S/xvD7cht2EEz0BygIePM4TYrFmztI8w/E6dOqXdKwGtBwsCVglQXBH/4MGDBr+lS5caPvjCEMkQjnxVHmYhDn+xVMaQHoJGH3/79u2GMpG/nsdI3eh4KHxQLvg9cOCAwW/NmjUhy4ymAJ4wYYLEAzza1fWjjz6ScdBhsIvjRgB7aXeUq3B0+5zZ8cz+yfH94XbkdvTyDCSdCrpZs2Z0+fJl6tKlC+XIkYNy585No0aNEtiQNCQaN26cdKt/3377LWFec9GiRVS1alUZv0iRIgQjnt27d8toWG9ao0YNlcRwffbZZyl79ux069Yt6Z8+fXrq0KEDVaxYUYvXqlUrzT179mxpTQyPiRMnSoMmqJ9RZu/evWW8XLlyaTxrCT06OnbsSNOnT6c0adLQ9evXqXv37pLfYsWKSXxGjhwpeRejYI8lRJ5s0KBBsg3A4+DBgy0zhHoYpFThlpFceEba7m6fMxescVRGgBFIRQjYjigEBgkTpkYmUGcKq90gvjHiw+jPPJoNV0c1UhVCQstTjYBXrVql+f36668y/wULFmh+aiQ9b9486Ve8eHEZB3lOmjRJi6fnAWpshCOt3t+rW3QiZH6nT58OQA3tNZ9ojoDB07JlyySfVqN/0WmQYRi558uXz7YObkbA4XCwanekidZzFo4fDk+cbxG3FbeV02cg6aygsXRGqIFF/Y106NAhOeITH3BjgOkOo1Gsd61duzaVKlVKCy1fvrzmVo6jR48qJ128eJHy589Phw8f1vyuXLkiR9LKcEm/fvbDDz+kcuXKaXGVY+XKlXJ3p3vuuUd5RXTNmzevTC/momn9+vUR5RXNxFhnLDoqhNF/gwYNCPwq6tu3r3SKuXcSKmjl7evVTbuj4EifM1+Z58wYAUYgIRFIOgFs1woQkCCoOc1Uq1YtGj58uFQzW4UjPlTLkVLZsmW1LKACDUVKaIeKEy6sSZMmWpSFCxdq7nh0QOAKAy9Ch+HVV18lxTss2EuWLClZfv31131lPRrtHuo585V5zowRYAQSHoFUI4DtWqpPnz40bNgwGXzjxg1avXo1LVmyhIRKlNatW0dCJSpHZXbpvfofO3YsZFI/1tumTZtWKwOj8XgnzIljPhhz7oqGDBkinWfOnJHz9Mo/0mus2j1Svjk9I8AIJA8CqV4ADx06VLYmBK2btb9eHoE9e/ZoybDDlF6FrQX46NiyZYuWW+vWrWnatGnafTw63nrrLXr55ZcpXbp0hH2ecaACNgMBQeXrJ6Vku/vJN+fFCDACyYNAsD42eeoWtiZiHaimkrazvvVD9awYgTWyorFjxypn1K6Yj75w4YLMv2nTpoY57agVGmHG33zzjcyhc+fOJNZzS9U/LMzt2kdfnF6r8Pjjj+uDDO6UbndD4XzDCDACjMAdBFK1AN65c6f2IGB5jp4wYoQAy5o1q947Irew0Cax3lbmgZGdsIQOyg8GSFB/+0UjRoyQWaEjAfU6jMv0hOU9R44cIRh/xQOpYwRhjIVRMMgpb8IqXauCMtxSHsICXTkppdtdK5gdjAAjwAjoEEjVKmhY1ELIYmvGhg0bSiMgGALBUlqNfK9evUoZMmTQQRaZEyNRGGDVqVOH2rdvT48++qhURaMcnOaj9l6GyrVbt26RFSZSv/fee4S5YMylZsyYUc6jYq5bbDgi57ah7gWZt+sUu3RRzpw5ZRj+KeM0YCGW4mj+MDrCGma/CFMBO3bsoHvvvVcaZCFfGGU5JbGpidzWE9uAgk/8UA/MIZcoUUJmE4t2d8o/x2MEGIHUg0DSjIDVRhjhmu7mzZuGKFh+ojbcgHCBMIFQ2r9/PzVv3pzErlWG+HY3ocqHwNMTRr9QR0M43H333bLM0qVLS+GL04Y+/fRTX4SvKlOs4aUePXrIzgb4RJlYMoV6gjexqxMVLFhQRZdXdEAgdNVPH6j8cPWzc6LKePPNN5VT8rxhwwbtPpwDm6CINdQyGvjDSBoW5Warcq/tHqqd9byZnzN9GLsZAUaAEQACd4kfNjZgEgjgODvMmWJXrJQkCHqs+4WqNVrrXPX1UWucxf7XhJFuMhIErNh4RHYwsP4Z6n87ilW72/HD/owAI5A6EGABnDraOUVqic1FsJ2nU8IJQtG2BHfKC8djBBgBRiClEUjVc8ApDXayl4elVZhPd0rYq5sFsFO0OB4jwAgkGwIsgJOtRWNYH2wn6fQMZGw0AoMpJkaAEWAEUisCrIJOrS3P9WYEGAFGgBGIKQJJYwUdUxS5cEaAEWAEGAFGwCUCLIBdAsbRGQFGgBFgBBgBPxBgAewHipwHI8AIMAKMACPgEgEWwC4B4+iMACPACDACjIAfCLAA9gNFzoMRYAQYAUaAEXCJAAtgl4BxdEaAEWAEGAFGwA8EWAD7gSLnwQgwAowAI8AIuETA00YcDz/8MDVr1owmTJjAmymYAB80aBDVrFlT7gi1Z88eWr58OS1cuDBp91w2VT/Fb3F8YebMmWnmzJnk5tCGFGeUC2QEGAFGwISA6404GjVqRHPnzpXZ/P777/LoPlOeqfIWO0DhmEEcqmAm7PqUPXt2szff+4AATpTCqUcjR46kYcOG+ZAjZ8EIMAKMQMog4HoEXKFCBY0znC8bTfrhhx+k4KpYsWI0i/El7xkzZmjCd/HixXLki2P/0GFxeoSdL4zEOJMxY8ZQ9+7dw3KxceNGql+/vmW8RGp3ywrEmacfeE6ZMoVKlSpFx44dk+dYx1kVmR1GICERcC2Ax40bR126dJGHm+Mc2WgSBC/Occ2TJw+dPHkymkVFlDcOsy9evLjMA6rQv/zlL1p+77zzjuZObQ6M/O0o1Hm5idLudnWLN/9I8USnql27drJaV69ejbfqMT+MQMIi4FoAo6Z16tRJkQqbD1FPkUI9FKLHY/z48R5ySL4kN27coFy5cnmqWKK0u6fKxSBRJHjirGQnGo0YVIuLZAQSHoEUt4LGGbAYMYajkiVLhosSNhxl4WB2rwR1Oz5ADRo0CJlFkSJFZDhUzWvXrg0Z1yqwbdu2VKVKFaugkH44+g91dEuR4uK2PDfxvba7ebTt9DnT8xYpLk6fF3OZTt4Hcxqnz7VXPFEe0uKMZ9D+/fvllf8xAoyAvwhAT2j7O3fuXMDuJ6xObdMJlbFMh7w7deoU2LVrV+D8+fPa78SJEwHxwTOkf/fddwNId/r0aZlWxbcqf+/evYa0qg5C5RtAmEqLK9IL1bBlfKRbsmSJjNO7d28ZZ8iQIQHwp88DPKkycBXzvJJXYQRkiGfm1YrPunXrBn788UeZXl8G0oq5ZEM5+jLhrl69ukx7/PhxQ7m4f//9923TesHFXLaTe6GulHyZ8QqVNpJ2V/i/8MILgQ4dOjh6zvS8eMHFy/Pi5X3wymckeOrLVO/R7t27A7169ZLtivdCH4fd9t9OxoaxCfcMhFVBY64ubdq0Ip8/SKm0MmTI8IenyQUDJMTDPDGWLIEwQkR+6dKlI6SdNm2awToY/viBVBnyxuG/OXPmUOPGjWXsa9euyXnjrFmzUrZs2ah58+a0b98+OXdtzg4Hw6O8ggULyh5/x44dtSjXr1+XPF24cEHzgwNpFK+GgDA3MNZq3bq1Fgv5X7lyRfIIHhC2dOlSrR5aROHACG3q1KnS6hf+GPUJoS3TwiCua9euVKtWLfnTp/OKiz6PaLojbXfwJjp5pIz1wj1nqi5ecfHyvHh5H7zy6Qee8+fPp9y5cxOmElq0aOFJ06L45ysjwAjYI+C6R4vRH0ZuW7dutU2rRiaId/ToUcNod/DgwdroTRh1WeYh1hprcYQRlmUcUSXNf/bs2Vp8sSRF80ecp556SgsbNWqUIQzhQm0sw48cOSKv6OWPHj06INR8WlyMPPXl6d0DBgyQ6ZyM+rp166aNyIWKz5AnNApqRFyjRg1DmOgUaGGnTp0KCNW4IXzgwIEBYC6EsME/Elz0dXTqViNgjOYxErP6CctwA4/6vN22u9fnLBJcvDwvseATuLrFE2nU84xnUT1n/fv3194NfXux+49vEGPBWHh4BtyD5kYAQ/VsJUAPHDggX2gx2rP8GLv5cAgLZE04TZo0yTI/sYxCxjl48GBQuPqg4oNz6NChQOHChYPihAJWfbCcCOBQ+SBMCWCxoYeBB6gBEYYyQnUG9PlHios+L6duJYBVPayuwlDNUDd93m7aHemUYHPznEWKi5fnJRZ8Ah+3eIqlYdr0Dzqhqm1YALv/Tirs+MrY2T0DYVXQImFENHnyZMslRELQSTVuvnz5IsofiaF6VQSjkXLlyqlb7bpy5Uq5lMJqowwVCSpdqHnBW0oRjGmgNq9du7ZcZ6nKLV++vHLKa968eeUVO2utX7/eEGZ34xcudvmH87fbmUrMf4dL6jrczXPmFy5enpdY8OkGTCyjw1TI5s2bqV+/fm6SclxGgBFwiUDUBbAdPxcvXpRB2MUoUipbtqyWBXajCkWh5pa3bdtG69atC5XclzDM0w4fPpyEmlmbzzVnnD59es2rSZMmmhvbWjolv3BxWp4+HuYOw1mP6+NHy231nPmFi5/PSzT5dIrtpk2bCLYEsJ/o2bOnoUOoOoB4f7AhBzofwkjLadYcjxFgBCwQiJkAtuDFFy/s1BOK8OGwo1Bhdmnc+vfp00fbMhFCavXq1SSsamnZsmVS+MNQzLx+Vm8EB4MtLxQJLl7KS5Q0keCSEs+LwjESPlUeoa4tW7akEiVKyCjo/GH3LCtCGHYxA2FDnq+++soqGvsxAoyAAwTiVgDrBQ0+DKF2wsKhB4rq1atHwuhL3cbddejQoZInCFqna3+3bNmi1QNW0rAed0KJhIuqj5t2V2ncXhMFFz/4dIrnpUuXSMxT20KZKVMmuXIBEVQ8pGFiBBgB7whErv/1XnbIlN99950W3rlzZ81t5Zg+fbrmPXbsWM0dbw6x/ldTOQtLcEv29KpnFeHw4cOklkE1bdrUoBpUcayuiYKLnnc37a5P58adKLj4wadTPFesWEHFihWz/WHKBIStKFU8fd5u8Oe4jAAjcBuBuBXAYA9zUSAYRpkJu0ApEhawtGbNGnmLNYvCEloFaVfMR0LNG0vauXOnVrx5ez+MbCFosW7ZikaMGCG9IaChtobRlp6wm5ZYRkUwNlOUKLgoftXVabur+G6viYKLX3xGG0+3+HN8RoARuI1AXAtgsbOT5BIGIGLtq7TMhHUmVMzbt283tCFGhsq6tn379iSW65BYpyzPiIVgmjdvnjR6ghVqrEjsViWFLMpv2LAhifXGkkeo17FBB4Sv3Wb37733HqlRMwxlFi1aJOv466+/Smygls6SJUvQNp+xwgUbT4glSLY/1N2O3LS7XR7h/GOFSzi+zOF+8JkSeJr55ntGgBEIj4AnAax61KFOtHF6BF+oPF577TUSGybIHbSwuw9OHMIPB7Bj/gnWxHrC6BdqO8xRQQBgj+bSpUtLwQSeP/30UxIbYeiTGNwwivJC2M3KKWHZkVjTK6NjNzDwiLphr13s1oXdmexIrMukHj16SCEOfFHH/Pnzy/TgHbuOYTcvM0WKizm/UPfq2QgVJ1yYm3aP5DmLFBc3z0ss+XSDZ7i2CfW+hkvL4YwAI2BE4C5xa28WbIwb0zsIJ4yEIVxhlORkc3ikwbpfqGUx+ow3wkEPmNvFaNYLqbXDGPm7WRIS77josfDS7vr0btyJgkskfKYknm6w57iMQGpEIGEEcGpsHK4zI8AIMAKMQPIi4EkFnbxwcM0YAUaAEWAEGIGUQYAFcMrgzKUwAowAI8AIMAIGBFgAG+DgG0aAEWAEGAFGIGUQYAGcMjhzKYwAI8AIMAKMgAEBFsAGOPiGEWAEGAFGgBFIGQRYAKcMzlwKI8AIMAKMACNgQIAFsAEOvmEEGAFGgBFgBFIGARbAKYMzl8IIMAKMACPACBgQYAFsgINvGAFGgBFgBBiBlEGABXDK4MylMAKMACPACDACBgTuNtzxTUQIPPzww9SsWTOaMGFC0GlNEWUcQeJXXnlFHl4xc+ZMeTJUBFlxUkYgoRGoWbMmtWvXzrIOeE+YGIFYIIDDGPgXIQaNGjUKiOP35E8c/BA3eIrDKyRPAwcOjBue+Hnj9y0Wz8Abb7yhvaPqXVXXWPDDZfJ7wCNg8Rb4QRUqVNCywXm9TuiHH36g7NmzU8WKFZ1E5zhhEGA8wwCUyoPnz59PlStX1lAoUKAA4XjQ1EBTpkyhUqVK0bFjxwjnpYcjHGHZuHFj2rdvH3Xt2jVcdA6PAAEeGUU4+hXYSwzFsYCBI0eOBMQB6I4wPXfunOyR58mTx1F8VY6ba2oaAacEnm6w57jxPcIRx4FqI+JkbqsxY8Zo9Txx4oTtt2by5MkBcVZ5QL1H0A6cPHnSNn4yY5ZSdeMRsEDaL6pTp46rrO66C6dBMvmFAOPpF5KcT7IggDPHu3fv7qg6LVq0oCxZshjiBgKQv0zRQiBpraDr169Pbdq0iRZuEedbsmTJiPMoVKiQ4zqaXyRgU6ZMGVc8VKlSRRqZuUmEMpo2beomSVBcqPfxIWnQoEFQmPLwA0+Vl9tr27ZtCdi4JTftp8/bazq0uVuVq9f3yGs6fT3j3e213VEvL++fWzzwTnz44Ycy2f79+8Mmh3q+WrVq8gejTRB3asPCFnGEpFExdOjQISDmLDR1izKwOHXqVGDBggUBMQei1RWqYqhaRowYofkJJAPCkjmAfMqVK2fwP3z4sIz/3HPPSX+ktftt2LDBkBb54vfuu+9Klc7p06cNah6rfPbu3WuZR/Xq1QNQdcPQS9UPV9xbqb6VCvqFF16Q9dq1a5chHVRS4mMQVBZUT+CraNGigc8//zwADPXlbdq0KZAvX76gdKqu3333nYFH5PXLL78EOnbsaJtmyZIlsszevXvLOEOGDAmAP325wE6V4QeeKi8317p168o2AEZ63lDHGTNmaPxZ5em2/VQeXtO98847ATxLZj7FB9aWTzfvkeIPV6/p9Hk4ceMZBtZz5syxrQOeWzz7iCcEpWU8typoL+2u3iPUq1OnTgGn758THMLFUe0OtXKvXr3kMxBKBa3Pb/To0a7i69Oy29XUi6vIlg9yPAAO4YqXDR8avHgQgps3bw4SAorXrVu3yrgrV6401El9qCAMVFxhrCHjIkyMIKS/EqIoU/1UWuSt0uqv48aNC4qLNCq9/molgCEolUBV6Q4cOGDwW7NmjaFsFR9CW/EHP71ARbl6PuFW6fTx0GlR/sjLztpb3wnCB+jgwYNa2UgnjDqCykOZa9eulfGGDRsWED13QxrFh+jJa2kjxdNcZyf3ELAKR1zBl7l+S5cu1XjU5+ml/ZDeazoIKMUr2mH79u0GXtFOev7gdvseqfRe06n0bq5imZ+sF55Fu3QfffSRjGP3jCKdGwHstd3V+zJr1iytLeCnnme0j9X7Z1cvp/7C4EyWh++U0EIF+vfvL+9ZAMedvIs7hmxfqlAPHwQpHmarl7J27dqB1atXG0a7n376qYyPka3K9+mnn5Z+yOfQoUNB/vrRl0qjvy5evFimtxPA+rgYaauPoxMjLIwcVXy8vPh46PPDMiPU3Szc1AcAaY8ePWoY7Q4ePFjLE8JMn58+HbDV86g+bshz7NixhnRK+CI98FR5Fi5cOPDrr79q5VmNSpQAhqBH3vhYoCeuOj3ICyNBlaf+6hZPfVo37m7duskPJkaQQsVn4AWdPtVGNWrUMIR5bT+v6WbPnq3xMnLkSAMvTz31lBY2atQoQ5jb90hh5zWdSu/mimcRQgtY4xm2Sqs0J+PHj7cMRxo3Athru+vfIzfvn1WdnPoNGDBAa1/1nWABHLdyLm4Zs31xrB5EqETxQmJEaBVu9hOGCdpDqsLwUVUfUFyV/9SpU6U/ylB+VtdoCmCokcATOgF2QsiKJ/UBgOpLL0RVXOCFfM2jNpXOTqWqVOD6Dswzzzyj4Sc2NrDECvyjvJ9//jkoXAlghKMDBKGt+Ax3TSkBHI4P8I7foEGDDLx7bT8v6YoXL661w6RJkwx8KP7FshQZB6N35Yer2/dIpfWaTqV3e122bJnk32oUr95tCOlQ0yRuBHA4/uzaXb1Hbt+/cOXZhYu5d61zgs6riscCOD7lXNIYYWGNHyhHjhwkepokPjzUvHlz6Wf175NPPtG8xYso3ffff7+8ihGmvIper7zCMAG0fv16eY3Fv7x588pily9f7okPscSAhBoyiHUh6KSf+FAFhcFDzNta+u/YsUP6660m//znP0u/69evk9j0wDLdokWLpH+JEiUsw+EJgzGhdiXFm23EOAiAUZOYXyPRSaNVq1ZpHJUvX15zw+G1/byk06/bhBGOsGcI+okRq+TvnnvuMfDp9j1Sib2mU+ndXrFOFZQrV64g47y+ffvKMNEpINFRlG6//zltd1Wu1/dPpXd6hfEUDKfE9Bv169fPaTKOFyME7o5Rub4XK9QuhIX12Gouc+bMcrE5FpzjYw4LwGnTptFbb71lKPfy5csybpMmTUjM0ciP5I0bN2jdunVSeD/00EOEF0eMxGQ6YVhkSJ9SN+BP0cKFC5XTl+vFixdlPmnSuOuLAYuqVavKlx1WuWIkTAULFpR5iVGuLW/oxLRq1UqmEyNyy07Btm3bZBvYZhLjgFq1atHw4cNJqJnJDrf06dNrXHptP6/pypYtq5X97bffam4rh9nK1ct7hHy9prPiyYkfOqJCzSzf2VdffZUUVrC6Vxbxr7/+upOsHMdx2+5OMvb6/lnljQ4HNgG6du0a9ezZU268oeKpjhzaW8zXy++isDNRwXyNEQLuvroxYtJpsVjvhhHwP//5TxKqVbp165b80GO0JVSCJOZmST/SE+o9mTX2iFWjYPSYV6xYIf2FqpeQNl26dPIeQjwWlDZtWq3YK1euaO5YOn7//XeteAhfkBJGwN2O0MFRdPfd1v0/85IpFT8ern369CFhoEcPPPCAfL6w+9bQoUNJbEVK2bJlI6vOh9f285pOjxN2Pgr1g7bITG7fI5XeazqV3u114sSJMgneX0XCcl46z5w5Q0rbosIiuXpp90jKc5u2ZcuW8luFdOj84bncuHGj9hMrC2SWCIO/mAJyvITRLS8c3zkCSSWAVbVffPFFqlSpkhTGGAVD8IKKFClCwihDRZMPKW6KFStGrVu3lv7/+c9/CGocUP78+QkPNujSpUvy6tc/vSCFkA9FW7Zs0YIVn5pHjBwY/YLwoVOEDz0od+7cyivoqtJByFp9/IMSOPRwg6fDLC2jQdiCxNyjVH9CS/L222+HHLF7bT+v6fbs2aPxXq9ePcKI2O4H9bQdOX2PzOm9pjPnE+4eGi1Md2BUp6Y8sJkECJorP8lLu/tZfri88H0S8822v6tXr2pZqHh+f9O0AtjhGIGkFMD62qMXLKyg5YgY/koAwC3WBuMi1dCIA8JcFkZ0eDjxYgvDIumvRsvyxod/enV2586dQ+YIfi5cuCDjYFMLqJBiTepDJ5a2aKzMnTtXutHLxojBioSxlPT2e37XDZ5WfDnxE+tAtVG+sL61TIK6m8lr+3lNN336dI0FYaWuuSNxhHqPQuXrNV2oPPVh33zzjbzFOyTW2crRHzQwdu2jT6s6jPB7/PHH9UEGt9d2N2QS5Rto7TCQsPthygQEQazi6N+ZKLPH2dsgkBQCGHOQUP0JS0NNlayvr7AKJbEwX3phflGRsKSUcyG4x+gY9Nlnn8mriqfm03766Sfp7+c/zNWAYHBkJtRJT2LDEHmLD7xYUiU7Ffpw7Mojlu+QMq7Rh0XihiGHUl+pfGDgodTHYkmS8iaxlEnrKMBIRqn1VQSovZQ6X40oVJgfVzd4eilv586dWjKoW/UEzQQEZtasWfXemttr+3lJh/dArAeXZaOjBINEM2FXMTz/evL6HnlNpy/bq1sdIwhjLDUKdvoO6I3mlOGW4gPfDEWRtLvKg6+MgB0CARGQ0L8nn3zSsEEE1snC7P/f//63YWcsLEvAbjb6+qplHlhGoN/kActo1NICXMXI05BOn4dyu1mGhDRCSGllgGdsHIIf1guiTJWvugphqMVHOJb0YG0t0ipesYZWxcdVLYOwO47QjmeVTuWLjRyw5EOtv4S/MHIxlIXysHQIS4hUOrixqYg+3fPPPx+UDmnVMiRsGqKvg1O3Wzyd5quPh80sVN2w1hRrvoGN3g9uLGnTp4PbS/tFkk4YYGl84VkBr1irrNZZg0+hqtX49PoeeU1nxsfrvZg20uqJOonVDFqdwuWJjWtU2+GZV884rvq0XttdvUdu3z992X64wy1DwjsKXtVPYYKr8sPVvGzND95Scx5JMQIWm2rI+V6xZaJUHWOUBWMr7G2KnjEIo8OGDRsalorAH6M5Rfo5ty+//FJ5y1EyDG/CkRqB3bx5M1xUGY5RotgwQRrzgGf0uvGDFTdU4LC61JNY10c9evSQIy2o2TAKxTw10sK4CZbcyhJZpQtlEKXi4GrHM5bXYK4WI29gCbU8LDdhAAPDNjNBtQwDJaimwROWuWBOGOmwvAvzg+HUonpDLXP+oe7d4hkqL7swLD9R0xEZMmSQmhPgD0t7LHsTu0/ZJSUv7YfMvKbD6BfqaPHhlM8KtDylS5eWG+7jWcV7o5baoRyv75HXdCjTD3rzzTe1bKCFEJ0M7T6cQ2yfSUKoyGgwIlTPOJ5XPXlt90jfPz0Pfrjt3nO836i/+unLUn644pln8g8BPGXo6SUdYd4Gy4egjsOyongnfLyxVAAfS3QE8EEPR5i3xnywGDGS30sKwAdeOMwd4Qc1I057ghoZmDolpEFadA5Skrzg6ZY/qNgxN+/V2tZr+3lNB0zQIYKK1un6WK/vkdd0btvAr/gQsFj1gM4flsqFesYjbXe/eOZ8Eh+BpBXAid80sa2BEsBiG0MSezPHlhkunRFgBBiBJEQgKVTQSdguXCVGgBFgBBiBJEeABXCSNzBXjxFgBBgBRiA+EWABHJ/tEnOusLEFDEj0O17FnClmgBFgBBiBJEKA54CTqDG5KowAI8AIMAKJgwCPgBOnrZhTRoARYAQYgSRCgAVwEjUmV4URYAQYAUYgcRBgAZw4bcWcMgKMACPACCQRAiyAk6gxuSqMACPACDACiYMAC+DEaSvmlBFgBBgBRiCJEGABnESNyVVhBBgBRoARSBwE7vbCKs50bdasGU2YMEFuuu8lj2RNgwMKatasKfc/xsHoy5cvp4ULF/q+V3My4Qe82rVrZ1klddycZSB7MgKMACOQwAi4XgfcqFEjUgevY5MGnDrERFSpUiUSx7/Jze7NeAQCAcqePbvZm+/vIIBzXMURhZZ4ZMuWzdKfPRkBRoARSHQEXI+AK1SooNU5Y8aMmjsajh9++EEKrooVK0Yje1/znDFjhiZ8xRm7cuSL4wLRYXF6JJmvDMUgM3F2qCwVx0I+++yzthyIs4Hl8YT//Oc/5fGE8+fPl0dHqgQFChQgnE6TSDRlyhR5MtWxY8eoffv2YVnH0YmNGzcmce4sde3aNWx8jsAIMALJiYDh4GlRxbD3ODAdh3q///77YeM6yc8ujjrEPU+ePFEtx658p/5lypTRDvWeNGlSXPPqtE5e4u3cuVPigMO97dI/88wzGlZVqlSxjCeOe9Pi2OUTT/5jxozR+D1x4oRlncDv5MmTA+Is4YB6rnHY+cmTJ23jx1MdmZfw30XGiDFy+wy4HgGLAuS5sLhGm8yHYke7PK/548xbRePHj1fOVHf9+uuvSQhYyp07N2EUe/To0SAMOnXqJP1wju6mTZuCwhPNA2fDdu/e3RHbLVq0oCxZshjiYnqCiRFgBFInAiluBd2mTRsSI8awaJcsWTJsnHARUFYkqkyo2/GBbdCgQciiihQpIsOhal67dm3IuFaBbdu2JTEatAoK6YeD7lFHtxQpLnbljR07VguCILaiatWqSe8VK1ZYBfvi5xVPFO70+URcPKMffvghnLR//355DfWvcuXKhPrjN3PmTBk1UTqZoerFYYwAI+AdgZAqMKjL7H4bNmywTQvVGtIJtgJi1BPYtWuXpqaD6g2qOvGxM6R/9913pUru9OnTBjWdVfl2as533nkngDCUoX5ILz54hrLAl/otWbJElte7d2/pN2TIEMmfSo8reFLxcRXzvJJXcXC9Vg7imXm14rNu3boBqPGBkb4MpBVzyYZy9GXCXb16dZn2+PHjhrS4DzUl4AUXc9lO7sWcpuRr3bp1QfVAvVV9RacmKFzl71YF7QVPL8+n4k9d1XMGtXKvXr1k3UKpoFU6XEePHu0qvj4tu/94dxkLxiKRn4GwI+CbN2+K+hkJvXb8MmTIYAzQ3cEACXFmzZpFH3zwgbSWxgjx+vXrMhbSTps2TZeCKF26dPKXNm1amdYQ6OBmzpw5mgr02rVrdPjwYRIffJlX8+bNSQgHy1xy5Mgh4xQsWFCOaPr166fVTfELlamekAb8uh3BwFhrwYIFBMOy9OnTSzzAIwh5tW7dmpYuXaovSnNjdIYwpIUBHNSXogMgjbxwD2OeNWvWaPGVwysuKr2bKwzQQFZajqefflqGXb16VRqpyZsI/3nF08vzqWcVhmNQtd+4cYOgWo62QaK+bHYzAoxA8iBgOxIRVbQMw+gPI5mtW7dahiOdfmQo5gINo93BgwdrI6Fx48ZZ5iHWGmtxnBhhzZ49W4s/cuRIQ55PPfWUFjZq1ChDGHgVamMZDsMy1AujGIxQhPpai4uRpx0eAwYMkOnMo2Sr+N26dZOjZIzIhQrTkCc0Cigfvxo1ahjCOnbsqIWdOnUqgFGiPv+BAwdKzIUQNvhHgos+f6fu+++/X+PzySefNPCiRozz5s0z+JvzdjMC9opnJM+nam+0k2qH/v37y3rzCNj6m2FuY75nnPgZkM+A+wfBjQCG6tlKgB44cEB+sMSIzvJj7EYAFy9eXPvo21khi2UiMs7BgweDylMCGB/UQ4cOBQoXLhwUJ9TDoj7ITgRwqHwQpgSw2NDDwAPUnAhDGaE6A/r8I8VFn5cbt9A8SF7FKFGrgzDK0uomNt3Q/K3ydSOArdLr/ezwVALY7fNZv359bXoEnTRVFgtg998RhR1fGbvU+gx4soIWYDkmsfSCxHxbUHwh6AhqXD828tCvo4RRTLly5YLKW7lypdxt6Z577gkKUx5Q6ULNC95SimAkhvWgtWvXlutIVbnly5dXTnnNmzevvGJnrfXr1xvC7G78wsUufzt/GFi1atWKHnjgAS2KMsqCylaMyjV/vx1O8VTlun0+YTyFqYLNmzcTpiqYGAFGgBHwikDUBbAdYxcvXpRBadKEnYa2y0LzL1u2rObGblShKNSc7bZt20gYD4VK7ktYrVq1aPjw4STUzGRXf8wPK2rSpIlyym0ttZswDr9wCVNMUDC2KIUAxryoUEmTUK0Tti8Fbdy4MSh+pB5u8XRSntXziWVTqBPsC3r27GnoMKkOEp6vUqVKyfl5oXJ3UhTHYQQYgVSKQMwEcLTwxk5EoSjUustQYaHydBPWp08fGjZsmEyC0eDq1atJWGHTsmXLpPCHoViuXLkMWcIoTdGVK1eU09U1ElxcFSQiY5QOQysY2ok5WimAlVbiX//6l9vsQsb3gmfIDG0CW7ZsSSVKlJCh6BxhlzYrQpjqZHTp0oW++uorq2jsxwgwAowAxa0A1gsafPis1Niq/XDogaJ69epZbgChwmN9HTp0qGQBgtbp2t8tW7ZobMNK2mw9rgWaHLHEBR0LrJ+GhTCEF6yO0cH5+OOPTVxGdusFTy8lXrp0SVqc26XNlCmTZjkPy3QQ0jAxAowAI2CHQOT6X7ucI/T/7rvvtBw6d+6sua0c06dP17z1m0FonnHiEOtVNZWzsAS35EqvelYRsJxKLYNq2rSpQfWp4lhdY4mLMIaTLGGzkOeee066xVaVVmwG+elH648//nhQuPLwiqdK7+aKee1ixYrZ/jClAMLIX8XTP8NuyuK4jAAjkDoQiFsBDPgx1waCYZSZ8GFXJCxZtfWvGHGpj78KxxWjMah5Y0l6AWTevhAjWwjarFmzWrI4YsQI6Q8BjdEljLb0hN2fxDIqgrGZoljiAkMrqNhBDRs2lFcc0uCEVq1apUXr27ev5oZDWHZr95HgqWXCDkaAEWAEYoRA3KqggYfY2YnE8g6CgYtY+yoFFPxxnzlzZtIfVYeRIQywsC8zTqN59NFHpSoaIxLsS6z24IXVK+YlY0FitypZB3QeIJTEmlH5gyW4GvmquVMzf++99x5hLljs0iUNgRYtWiQFHHDBnDE2BQGZN8CIJS6YC8VZv4refvtt5Qx73b59u9xGFMc8QqWLX86cOenMmTPaXGwkeIZlwOcIMMgC/4qU8R3myZXKGmEw/lJbm6q4fGUEGIHkRMDTCFiNTK12yVIwOT2CL1QeOLINIynkBQGD0Q9+EL6YX4P1q54w+oXaFR80zDniQ1a6dGkpfMHzp59+GlL4qhGbPk8nbrVblpO4WCYj1vTKqPj4gkfUDXsJY7cu7FplR2LdKfXo0UMKcWCCOubPn1+mB+/YdQy7eZkpUlzM+Tm9nzp1qhbVyV7JWmTh6NChA4k129ILwgqdDFgYm63YveLpx/Op51e57Z5ndLBQD/VT8XFVfrjimWBiBBiB1IHAXaKagUSoKoQTRr4QrjBKcvJBRxqs+4VaFqOleCOx4YSc28Vo1guptcNiX2lys+Ql3nHRYwEBKzYekaN9rH+GWt2OIsXTLl/2ZwQYAUYgGggkjACORuU5T0aAEWAEGAFGIFYIeFJBx4pZLpcRYAQYAUaAEUgWBFgAJ0tLcj0YAUaAEWAEEgoBFsAJ1VzMLCPACDACjECyIMACOFlakuvBCDACjAAjkFAIsABOqOZiZhkBRoARYASSBQEWwMnSklwPRoARYAQYgYRCgAVwQjUXM8sIMAKMACOQLAiwAE6WluR6MAKMACPACCQUAiyAE6q5mFlGgBFgBBiBZEGABXCytCTXgxFgBBgBRiChEIjr05ASCsk7zA4aNEieAIQTj/bs2UPLly+nhQsXutqrORHrHW88czvEW4swP4wAI2BGgPeCNiPi8R7H5uE4RBz+YKZAIEDZs2c3e/N9FBDgdogCqJwlI8AIRAUBHgH7BOuMGTM04bt48WI58sVxgY0aNZLHKfpUTMTZ4IjHxo0b0759+6hr164R5xdvGSRKO8QbbswPI8AIxAYBHEfIvwgwKFOmTOD8+fPyN2nSpLjDcvLkyQFxBnHg3LlzGp8nT56MOz4jfQ7jvR0irR+n5+8UPwPJ9QzwCFg80ZFSnTp1tCzGjx+vuePF0aJFC8qSJYuBHajFk43ivR2SDW+uDyPACESGAFtBh8CvQoUKhEPeGzRoECIWUZEiRWT4rVu3aO3atSHj+hkIQ682bdqEzbJy5cpUrVo1+Zs5c6aMf9ddmP5PDIr3dkgMFJlLRoARiEcEEl4VuWvXLqlenTNnjm1dihYtGjh79qyM17ZtW0O8JUuWSP/evXtL/yFDhgROnDihqWuhXj59+rQhjZjnDUCNizyV+hlXqHn1v7179xrSiQcgovvq1asHfvzxx8Dx48cN5eL+/fffD5v36NGjZTrUL1JezOlTUzuY6873kT3XjB/jlxqfgaQYAcPoCSO6hg0bija0psGDB1OaNGno6tWrNHfuXEOkHDlyyPQFCxakDz/8kPr160cZMmSQca5fvy6vFy5cCEqTLl06mc4QEMUbjHaXLl1KFStWpIwZMxLUyKIDII28cA+jqjVr1kSRg9BZp5Z2CI0ChzICjAAj4BwB30dCougUzTNPnjxy1IkRqBC0lmWrEa2Yow0KF2pjOSo8cuSINjrESPG+++7T4mLkaVevAQMGyHTmUbJdfC/+HTt2lGWgjqdOnQoI1biBn4EDB8rRuBDCBn9zWdEcAaeGdjDjyfcp+64z3ox3kj0DydGgy5YtkwJKLK8JEkDdu3eXYVAN58uXLyhcCWAIt0OHDgUKFy4cFCdUo6eEAIYVM/iDkA/VGQjFJ8KiKYCRf7K3Qzh8OTw5vifcjtyOKfEMJIUKWgBFWN8KypUrV5DRVN++fWXYpk2bSMyVSrfVP6h0oeYVQtgqOKZ+efPmleVjZ63169fHlJdQhSd7O4SqO4cxAowAI+AGgaQRwBBMQs0s6/7qq69qGIi1oVSyZEl5//rrr2v+Vo5t27bRunXrrIJi6tekSROtfGxrGc+UzO0Qz7gzb4wAI5B4CCSNAAb0EydOlC1Qs2ZNrSWERbN0nzlzhhYtWqT5WznidW1s2rRpNXavXLmiuePVkaztEK94M1+MACOQmAgklQB+6623CFbLsIh+4403ZItgEwqQ2A1KXhPx35YtWzS2W7durbnj1ZGs7RCveDNfjAAjkJgIJJUARhN88803siU6d+5MnTp1ovTp08tlOliGlKh0+PBhUsugmjZtSqVKlYr7qiRjO8Q96MwgI8AIJBQCSSeAX3nlFdkAMMZSo+CVK1cmVKNYMTtixAjpjQ7F6tWrqXbt2oZoYnMREsuoKF7qmqztYACdbxgBRoARiACBpNsLGqf87Nixg+69915SlsN6o6wIsIpp0vfee48wF4w5bWy6gfnsGzdukFgTLC2/sSkICEZnehI7cVHOnDk1L2xGAsJGI9jEQ9HFixe1LTWVXyTXZG2HSDDhtIwAI8AI6BFIuhEwKvfmm29qdYT6dsOGDdp9KAcEmhdSu2V5SesmjVjDSz169CDUCftO47jD/PnzE4QveJ81axZhNy89YcQMoat++jDlh6va+UsfHqk7WdshUlw4PSPACDACQAA78mPTCaYERABqaMwHi72hCSNdJkaAEWAEGIHEQYAFcOK0VYpxiv2wq1at6rg8bF5y9OhRx/E5IiPACDACjABR0s0Bc6NGjkC9evUIRx06JRxmwQLYKVocjxFgBBiB2wiwAOYnIQgBbCdZqVKlIH8rD2xesn37dqsg9mMEGAFGgBEIgQCroEOAw0GMACPACDACjEC0EEhKK+hogcX5MgKMACPACDACfiHAAtgvJDkfRoARYAQYAUbABQIsgF2AxVEZAUaAEWAEGAG/EGAB7BeSnA8jwAgwAowAI+ACARbALsDiqIwAI8AIMAKMgF8IsAD2C0nOhxFgBBgBRoARcIEAC2AXYHFURoARYAQYAUbALwTSioxe8yuzeMvn4Ycfpt69exNO5jl58mS8secrP/379yfU9/jx4/LnNHOv6Zzmz/EYAUYg9SLQr18/qlu3Lv3www+pF4QwNcdhDEn3a9SoUeD8+fPyJ4RS0tXP3Gbnzp2TdRUC1VVdvaYzl8/3yfcOcZtym0byDIg94uU3Cd+YSPJJ5rRJuxVlhQoVRLvdJpyfy8QIRAOBh0rVphoF7qNDF07Q5M3zwxbxcOn/ogcKlqcq+crQ7zev0c5TB+izbUto26l9tmnzZs5JDYvdT9Xz30sV8pSki9ev0L6zh2W6zSd226bzI8Bt/VDm/fnLUfOStah8nhKUM0M22nX2N9p6Yh/N2vE9nb16wZKt+3IVo5alH6RKeUpR/iy56PDFk7RF1O29dV9axvfb878rt6Ji2fLTycvnaMKG/wubvRdcwmZqiuC13Qf9V3dTTsbb81cv05i1nxs9be7c4qLPpm/fvvJ248aNem/NjW90r169qE6dOlSsWDG6evUqHTlyhEaOHElffumu3adMmSJPhjt27Bi1b99eKyPeHUkrgMeNG0ddunShEiVKyHNy470hmL/EQQAfpXpFqlLpnEXo7jSYxSE69/vFsAL4g4delkJJX9Mi9+SjxiVq0rQt39AHG+fog6Qb5Qyt30MrB565MmWTwqK+EMpfbPuOxvospLzWD7y9ULMjtb+vEZwa1cpUkWoVrEhPVGxOr6/6mJb/Zvwgo1Py/+o8pcWHI3vGrBKrdvc2pL/Mf4P2njtsCPfz5rF7G9EzVdvILE9fOW8rgCPBxS2/Xtu9QJbcovPzp5DFXb153ZEAdoqLXWE1atSQQe+8805QlBdeeIGGDh1Kd92F3ZBvE84kz5YtG3388cf01FNPEU5Zc0Jjxoyhdu3ayagQ4olESSuA0QjoWTExAn4j8EiZ/xKjtNyGbG8GbhnuzTcft/w7lctdjC5eu0xv/DCFVh38mQpnzUsdKzSlduUa0FOVHhKjvhP09a5/a0kbF6tBQ+o/K+9XH95CX/+6ijYd30N5M2enZ+9vS7ULVaLHyzeh/xzZRgj3i7zUD2W/9KfO9EjZepKNFQc20LID62nn6d+oZPYC1L3qw1Q6RxG6cuOagc1cGbNrwnfW9mU059cVtO/cEWpa4gF6uuojhA7Kmw3/Sk/MfdWQzq+bikKj0PeBjo6y84qLo8x1kSJp92zpM2s5vbNmhubWO67cCC+k3OCiz1u5BwwYIIXr5cuXae7cucpbXl966SUaOHCgdOMc88mTJ8s4ZcuWpX/84x9UunRpatiwIf31r3+liRMnGtKabx577DHq3j30Cf+s9gAAExRJREFUiN+cJp7uk1oAewW6SpUqlD9/flq8eLHXLFyla9u2LeFB3LRpk+N0zZo1o99++831SURe0+kZg+qofPny0rBt+fLl+iBLN3qyO3fudMVr/fr1CcccfvXVV5Z52nl6TWeXn5V/+9mvSNUqwh4u+yD1qPYopb3LfkEBVIkQvqC/LRpFu88eku5DQuDiI3n1xnXqJARx3wc6GQTw0gPrqPnBP0kBO2vHMpkG/85cPU8vLn2fPmn1CpXJVZRal67jqwB2Wz/whM6EEr4jVk8z1OPA+aNy1Fs0WwH6Tbj1VK9oFXm77eQ+elenFl2y7z909NIpmtDiJSmE9Wn8cufIcA+NbvqCzG6t6MTUFFMDocgLLqHyswuLpN2zZcgis71y43eavTP8u2nFg1tcrPJQQnHhwoVBwVAxd+rUiVauXEkYCSvas2cPffvtt9JoNleuXNStW7eQArhkyZKEs8tB+/fvp+LFi6usEuaaNAJYTPTbgo6Gvf/++y3DYR2dLl06efze22+/TU2bNpX3KjIsqOEH62K/CFaBb731FqHHlz59ei1bHO23YMECeuKJJzQ/veO+++6jqVOnUrly5ShNmtsf/OvXrxP4vnnzJt19t3Vzek23ZMkSeuCBB+jvf/87QaU/ZMgQOWcDVZGiGzduEF4WM0HtBLVQ7tx/jBRRP3Rq7OZoOnToIHEx54c6/vTTT/S3v/2N0JZm8prOnI+bewhB0KVrv8trqBHwg4VvH+24++xBTfjKRHf+jVs/U6ptM6RNR3WFyhmjY0Uvfz9eOYOu3+1fKwUwhLDf5KZ+KLtX9T9LFn4+9qtB+Or5MgtfhOXJlENGuSbUombacmIPQV0KXEpmL+S7GnpU4+cp090Zacep/fTl9qVhBTD4c4uLuU5O7722e/Y7AviMmBLxSl5w0ZeF702BAgWk1xtvvKEP0tzVq1fX3GYHvhEdO3akokVDP9dLly6V37wTJ07QhAkT5OjZnFe839t32+OdcxN/EEBmwvwCfnqBYY4DoYU4MBRo2bKlFL6XLl2iW7duqxRLlChBW7b4p96bMWOGFLIVK1aUwhfCRVhrS7bAR+vWrQkPlpkKFy5M33//PeHhhvCFMIN6B50HqHvshK/XdCgfI1DwVLBgQdnTxJIChSX4Bl24EGxUM2fOHHrmmWek8L127RodPnxY1hF5NW/eXPZwZWLdv1KlStFHH30khTmw3717t+zV/v7777KO6LRs2LBBl+K202u6oIyi6FEwSx6Z++/XjepXfZFbT+6VtzWFQZdTgvAAXbp2xWmSqMWrXuBembd+pO6ksKX718loVfOXpVI5ChuSYFQN4Yv5db/ngPuKuWpoJTBSfGnZeEp3Zy7fwECc3oRq92wZskquT1+xH5CEqpYfuKDDDsJ7v2vXrlDFWYZhHhiEd9+O5s+fL78vGAC0aNGCEtXQNmkEMEZN2bNnN/wwanJKEGQ///yztKSDwIHw+eKLL2RyNO7YsWOdZhUyHlQsEJ6LFi2iqlWryoeoSJEi0vgAQgdUs2ZNUgYMKjOso8uc+fb8zvDhw2U90cusVq0aHTx4UEULunpNp8/o6aeflj1SGDjAQKJWrVqSb7woyvhBxZ89ezY1btxY3mL+Jk+ePLLTgDpiTTYIbTVq1CjpVv9gxQgBDeEL7KGxqFy5MuXLl08K7a1bt1qqo7ymU+WmxHXPudsq51I5C9kWlyfz7ZFg3jtX24i6gBalasm7n4+7/8jpsvHFmfXO3CPmfUENilajfkKl/sqD3ahzxRa2amQIVlg7g6Y8PIj+UuUR6ca/kY3/Jt2fb1+i+fnhaCqM3h67YyjW/7v36PTv3oSVH7x4ySNUuysVdOmcheUUxZInxtKyJ8cJbF+ll2s/RSWyF7Qt0i9cHnroIVkG5na9EKaRQL/88otlcgw46tWrJ8OeffZZT0LeMuMYeFrrLGPASKyLRI/KrPrFKA7zlxDAmOx//vnnI2YTD6Xdgwmho0bDrVq1onXrbo8OateuTTlz5pRlQwBCACuCShZzslDBQ4DpyWs6fR5wZ8mSRY50IXgPHbotTFSc9etvf3BxjzmYJk2ayKCZM2cSjC30NG3aNKnOh9CGiul//ud/tGB0nkCq/lqAcKxevZpQFyvyms4qr2j5bTp+W8Bg5DK47tM0RFgCK8KSnTcb/JWUAMt+ZwSjwu2uj5SpqxmCfS4soWNJMJQC3bh1kxoWrU4D63aXI1c9T3+9vx19smk+Tdo0T+8t3c99+xZNFHO9FfOWou5VWsufUj3DyhsW4n4RBNArD3aX2Y1e85kQ/sFTGn6VFY18wrV79vS354DxrGFqAtqDjOkyCO1CIflrIZbN/f37CfSjyWjPL1zwncT3Eh1pGFS5pREjRsjvDdKpkbQ+Dwjnl19+WXrhWzhr1ix9cMK5WQDfaTK73taOHTvkSBVCKBoElTJGjBAwUKcqgpGTIv0oE2pgp+Q1nTl/jNjRETELX3O8rl27al4wjsBctZlgeAG+7rnnHkMQOkAYIWP0e/ToUamm/+yzz6SmwBDRdOM1nSmbqN7CmAhLjGCsBevehsWqSwMjLBnBMiYIrmMiDiyrTzlQHZYWqtqXaneRPL/7n8/p+OXTUeU/XOaFsuaWUVCX1xv0ICzlmbpjAW08/quYY81ATwgDsxoFykvBClW72WL7ufv/LIUvcMD6X6zHheoZVFpoDfJlzuVbHUc3eUFiDiOv/9v5vSwjUf45afcvhbFeAbGOeu3RHYb6lc9dgl4XFvV4xqBZqDf9r4Zq+4WLWvur75gbCgpxA1ub5557TsaYNGmS5dQfOvYYaGzevJncfAtDFBvTIBbAYeD/7rvvpABGoxcqVEjOa4RJEjYYI0mMYqFmVsZU5kR64yzMf4JOn3b3ofWazszLtm3btNG4OUx/D6MyRVC1hyLzaB1qJajUIZyhaoehFn4Q/rBwxOgZhmtm8prOnE+07zGK23X6IPWs/igVz1ZQqmRPXDpD/zm6lT7cOI+eq95OrN/MTQfFhh6hCPOiEx56UUZZvPcnsbnFH9bRodJFM+y6EJyKNgl1eO9Fb6tbef3p8C80rvn/ys1Hugh1tF4AQy3aWizrguDtv2QMwTK8YNY89Ph9TaRhGgT3lIcH0pNzX9MMoAyZu7gZ1eR5gqofo8IJ62drluzI4p47xkuwZsfmIQHxZ7dpiIsifYvqtN2PCBz/vuKfQeVio5de346izx99XXZAmhSvQd/dmX/3ExesIAFZvatBTOk88C1UU35YDaIEuS6KXCWC0TXsSnr27GkYsOTNm1dGxXcFAxl8N7CyJN6JBXCYFtIbAsCoIFLq06cPDRs2TGYDAwKoV2FtvGzZMinkYHVttgJWc796Xpzw4TWdOW88zG4JO9KEIqs8sXQBP7y8MIjDvDE6KCWEIdygQYNkGNYHmi3SvaYLxV80wqD2M6v+VDnY4Qr02wV73CCYPmo1QFru7hdrZYf++xOVPKbXM79f0Mo3C18VMFuMNrH7l34OEpbNEL6gvotH0xGhBQBBiGCnppnCMnnKI69K9XxPse75H2J5k1cql7Oo3AwE6bHJx6w/v2mZFcK+6jBShvVY+I+QO5RZZhAFT7/aHZqSX8W6bOxQ9qdCFaUA9hOXwYMHy9EpjFitlh/ZQQOLaNjEwJD07Nmzcu9oc1x8D/AdAGFwYre3NMLUzlvYiMntMkZZQAr+YwEcBmwYSoHOnDkTJqazYOz+AoKgVb3FcCmx3heL06GedUNe07kpQx9Xv0QIRhJQJXuhF198kfADwWoamGGeGwJ5/PjxtsuYvKbzwqOfabBOWM2jYotJK4L6ESNfzO0dOH+MuswbYhUtJn7YOENRDWENvU6oP8108c5yLcxHKqpVsIJ0YjtOJXxVGK4YDc8Tm49gZy1YSUdC127dIHRa7OgeMXeKHcZAKh7moWNNfrd7lvSZZJUypE0vr37igt2rQF9//bW8OvkHtTNGvhC+sP+w2zwJQh3C2Y4yZcqkrdBQ8ZAm3okFcJgWgok7aPv27WFihg+GSlipnNFbtCK96lmFo2yM/DCihYoWlsZ6gvGTWaWLcK/p9Hm7cU+fPp1wuhIIVuNYnxspoWeMH5aCYb9Y1SEKl6/XdOHyjUZ4f2EtDNolRifbTx8IKgIjxzFN+0nVIeJ0X/BGUJxQHpXzlqYhdZ+hnELAwKjJyV7HofKzClt3dJuc5+1WubWlAIZgBmHDC0VYAgTKnD6j8gq6nrxy+6N7K4QWxkn90EkI1WmB1fYwYQyH+etQ8YIYdOHhhE99dl7aHcvY1h61/lZB/Y75ddDeO50Rv3CpVKmSXLGAvO3W/iJMTzDE/OCDD+S3C9NrWP1hd2rdihUr5PuvT69347vz2muvyf2k8Z1IFEqTKIxGm09M6KtlMqosTPSr9bVYoxopYTcoRWqnGHWP9b9QcWfNensdn/LHFdbEal0yFpzrNxXBCFFZS+vTRJLOnI/Te6z5W7NmjYyOjgsMKczUoEEDqW7X+2NuHS8g0sOK0kzoYKhF+ZiPVuQ1nUqfklcsxXlNWECb6X9qPUF1i97Wsry95lNzMD1YuLKcP4WB0y/CYtet8EWGPaq1pbxZckoB/qTYjxkjbr9p0qbbo55qwqobQlhP1YVfpwrNpNeq337Wgr7atUq6Mfp/tmpbzV85iomds/67ckt5u+zOfKUK019Ton768ry63fDppd2fFku4RjftS5jTLWjaKrW4wHJyq4Ea618JzYKf9Morr8jsDhw4YLnO31wWvrUw1MTAAdNVUC/bCV9z2mS65xHwndbEOmAYRmG3p4sXL8plP2pUic2+3Z7OYfWQYO4SQhaCAyNa7OCCH9a6qpEv1tqqzS70eaCniL1RMQrG9o/YAAM8wygBhDlVxa8f6fR5uHFDpQQDLKiSYET16KOPSlU06gUjK2VNjqVY2GoOBCygGQAOn3zyiewVQ+WPFxMbiag5cdQR29gp8ppOpfdyxZ7OxXP8sZZSWetCfYk1l4qOXTpNnb+6reWAtTOW4YCaCCto7IgFFaBSO8MfRlq/3NmMA/cgCK4RjXrfvhH/781dnFZ2majd6x0wbML2lFaUK1N2g3cOYXB04vIZg5+68VI/pMVSqxm/LJIHLmAP57ZiT2iMrrKky6QdQPH9/vX09e5/q6LkdbJYmtRNLD3qKgRtK7Gl5pojv4hnWezjLjoeSiUMC/FQ2yq6qZ+hcBc3XnHRF+GUT6/tfkzM8cKSHAdffNHuDbnJyO4zh6iQMNxTWCL8f5f6v/YZW9yCrDrdegzghqpav5QS773V8kPExd4I+gEH/JKJknoEDGs5kNUuWeZGxBaPmLOEIMQHH8IMghibScAAyC/CsiO14QYELeY1IUhh6YvRLHaRsiK1gbkaCWMZD4QvBDHWL6v5V/NpIF7T6XmAsZgbwugX6mjMxUCDgDpiDhvCF23y6aefasIX+eIe89uff/45Yd4GeOClxEYcSvjimDII3FWr/ui5e03npi7muFCXQuiqnz5c+eGaVQgeRViG1HXeULnlIfxwKIESvicvn6V+S961PAmpuGnTBHXykspXf00jnlc7mrZloRaEPZd/PXNQuzc7vNRP5TFeHOOHfaBhZQx1J/ZWhsEPDqCAcB608gMVVbt+LNYFvyQ6DhCySNNKnIwEwywIDMzBwtIbezCHWp7lpn5awTaOmzqLbn2USHBR+Tjl02u74yCPjnMGEQ7CgHof9gKVxPQDsITgRds/JZ5Dqzl6xaPd1Q4XxMe+zvhu4ttkdfKROU9sHqQnq4GDCk+bNq1yOro6+dY7yigFI4n+Zuo9eFoICXlotFjOInEQo9OAUIMGypQpE3VcUI4Quq7LEfOgATG/GhBqWVdpvaaL9PlAHVFXIVQd8yvmywNijigglic4TgM+vaaLtI5u0gvL04BYl+mqXm7yt4orNtgPlMlROMXKFOrjgBjJBYQFr6sywaM4iScglgK5SpfS9bPC2IlfSvIpzlUO1CpYPlA2ZxFXWDqphz6OsEiW31BhdxHVcvRlJpE79QpfNKISwOJ4LH54UnFHLIleaH6O+TlO0WdA7MInBbCYfkrRcpPhnU1qFbRoICZGgBFgBBiBKCGAPQ3UdB32M2ByhwALYHd4cWxGgBFgBBiBOwhgC13YncDmg8k9AqneCvrKlSuERdxud5lyDzWnYAQYAUYguRDAqgcm7wjAdBJ6eyZGgBFgBBgBRoARSEEEWAWdgmBzUYwAI8AIMAKMgEIg1augFRB8ZQQYAUYgURF45JFHPLE+b948T+k4kT8I8AjYHxw5F0aAEWAEGAFGwBUCLIBdwcWRGQFGgBFgBBgBfxBgAewPjpwLI8AIMAKMACPgCgEWwK7g4siMACPACDACjIA/CLARlgcccW4lzuW1InUsl1VYNP1wHmbu3LlpxowZ8uzcaJaVknnjIAzgjROkcOAEToJauHAh7d27NyXZSLiycLAHjn7cunUr/etf/0o4/kMxHI33j5+zUIhzWLQQ+P8ihYsNAs+2XAAAAABJRU5ErkJggg==;" vertex="1" parent="1">
          <mxGeometry x="1429.55" y="290" width="305.45" height="140" as="geometry" />
        </mxCell>
        <mxCell id="DUj9_0CVN8MQ_FfbOPjA-7" value="" style="endArrow=none;dashed=1;html=1;rounded=0;edgeStyle=orthogonalEdgeStyle;curved=1;exitX=0.5;exitY=0.07;exitDx=0;exitDy=0;exitPerimeter=0;entryX=0.5;entryY=0.07;entryDx=0;entryDy=0;entryPerimeter=0;fillColor=#e51400;strokeColor=#B20000;strokeWidth=2;" edge="1" parent="1" source="DUj9_0CVN8MQ_FfbOPjA-4" target="DUj9_0CVN8MQ_FfbOPjA-1">
          <mxGeometry width="50" height="50" relative="1" as="geometry">
            <mxPoint x="450" y="310" as="sourcePoint" />
            <mxPoint x="640" y="230" as="targetPoint" />
            <Array as="points">
              <mxPoint x="1980" y="-740" />
              <mxPoint x="280" y="-740" />
            </Array>
          </mxGeometry>
        </mxCell>
        <mxCell id="TpHYWn0pxvChTnbQkmgb-33" style="rounded=0;orthogonalLoop=1;jettySize=auto;html=1;exitX=0.5;exitY=1;exitDx=0;exitDy=0;exitPerimeter=0;entryX=0.5;entryY=0;entryDx=0;entryDy=0;entryPerimeter=0;endArrow=none;endFill=0;fillColor=#008a00;strokeColor=#005700;jumpStyle=arc;" parent="1" source="MWJ0W-gvaDlnfUPghBey-2" target="MWJ0W-gvaDlnfUPghBey-3" edge="1">
          <mxGeometry relative="1" as="geometry">
            <mxPoint x="1754" y="-600" as="sourcePoint" />
            <mxPoint x="1034" y="-70" as="targetPoint" />
          </mxGeometry>
        </mxCell>
        <mxCell id="TpHYWn0pxvChTnbQkmgb-65" value="Ethernet 1&lt;div&gt;10.16.2.100/31&lt;/div&gt;" style="edgeLabel;html=1;align=center;verticalAlign=middle;resizable=0;points=[];labelBorderColor=default;" parent="TpHYWn0pxvChTnbQkmgb-33" vertex="1" connectable="0">
          <mxGeometry x="-0.1446" y="-3" relative="1" as="geometry">
            <mxPoint x="16" y="-2" as="offset" />
          </mxGeometry>
        </mxCell>
        <mxCell id="TpHYWn0pxvChTnbQkmgb-45" value="Ethernet 2&lt;div&gt;10.16.2.101/31&lt;/div&gt;" style="edgeLabel;html=1;align=center;verticalAlign=middle;resizable=0;points=[];labelBorderColor=default;" parent="TpHYWn0pxvChTnbQkmgb-33" vertex="1" connectable="0">
          <mxGeometry x="0.7534" y="-2" relative="1" as="geometry">
            <mxPoint as="offset" />
          </mxGeometry>
        </mxCell>
        <mxCell id="TpHYWn0pxvChTnbQkmgb-32" style="rounded=0;orthogonalLoop=1;jettySize=auto;html=1;exitX=0.5;exitY=1;exitDx=0;exitDy=0;exitPerimeter=0;entryX=0.5;entryY=0;entryDx=0;entryDy=0;entryPerimeter=0;endArrow=none;endFill=0;fillColor=#008a00;strokeColor=#005700;jumpStyle=arc;" parent="1" source="MWJ0W-gvaDlnfUPghBey-2" target="MWJ0W-gvaDlnfUPghBey-5" edge="1">
          <mxGeometry relative="1" as="geometry">
            <mxPoint x="1650" as="sourcePoint" />
            <mxPoint x="930" y="530" as="targetPoint" />
          </mxGeometry>
        </mxCell>
        <mxCell id="TpHYWn0pxvChTnbQkmgb-53" value="Ethernet 2&lt;div&gt;10.16.2.109/31&lt;/div&gt;" style="edgeLabel;html=1;align=center;verticalAlign=middle;resizable=0;points=[];labelBorderColor=default;" parent="TpHYWn0pxvChTnbQkmgb-32" vertex="1" connectable="0">
          <mxGeometry x="0.7398" y="-1" relative="1" as="geometry">
            <mxPoint as="offset" />
          </mxGeometry>
        </mxCell>
        <mxCell id="TpHYWn0pxvChTnbQkmgb-69" value="Ethernet 5&lt;div&gt;10.16.2.108/31&lt;/div&gt;" style="edgeLabel;html=1;align=center;verticalAlign=middle;resizable=0;points=[];labelBorderColor=default;" parent="TpHYWn0pxvChTnbQkmgb-32" vertex="1" connectable="0">
          <mxGeometry x="-0.142" y="-2" relative="1" as="geometry">
            <mxPoint y="-6" as="offset" />
          </mxGeometry>
        </mxCell>
        <mxCell id="DUj9_0CVN8MQ_FfbOPjA-2" style="rounded=0;orthogonalLoop=1;jettySize=auto;html=1;exitX=0.5;exitY=1;exitDx=0;exitDy=0;exitPerimeter=0;endArrow=none;endFill=0;fillColor=#e51400;strokeColor=#B20000;" edge="1" parent="1" source="MWJ0W-gvaDlnfUPghBey-3" target="DUj9_0CVN8MQ_FfbOPjA-1">
          <mxGeometry relative="1" as="geometry">
            <mxPoint x="165" y="140" as="sourcePoint" />
            <mxPoint x="345" y="370" as="targetPoint" />
          </mxGeometry>
        </mxCell>
        <mxCell id="DUj9_0CVN8MQ_FfbOPjA-3" value="Ethernet 4&lt;div&gt;access vlan 11&lt;/div&gt;" style="edgeLabel;html=1;align=center;verticalAlign=middle;resizable=0;points=[];labelBorderColor=#B20000;fontColor=#B20000;" vertex="1" connectable="0" parent="DUj9_0CVN8MQ_FfbOPjA-2">
          <mxGeometry x="-0.3405" y="-1" relative="1" as="geometry">
            <mxPoint x="1" y="22" as="offset" />
          </mxGeometry>
        </mxCell>
        <mxCell id="DUj9_0CVN8MQ_FfbOPjA-5" style="rounded=0;orthogonalLoop=1;jettySize=auto;html=1;entryX=0.5;entryY=1;entryDx=0;entryDy=0;entryPerimeter=0;endArrow=none;endFill=0;exitX=0.5;exitY=0.07;exitDx=0;exitDy=0;exitPerimeter=0;fillColor=#e51400;strokeColor=#B20000;" edge="1" parent="1" source="DUj9_0CVN8MQ_FfbOPjA-4" target="MWJ0W-gvaDlnfUPghBey-5">
          <mxGeometry relative="1" as="geometry">
            <mxPoint x="2103.75" y="455" as="sourcePoint" />
            <mxPoint x="2103.75" y="230" as="targetPoint" />
          </mxGeometry>
        </mxCell>
        <mxCell id="DUj9_0CVN8MQ_FfbOPjA-6" value="Ethernet 4&lt;div&gt;access vlan 41&lt;/div&gt;" style="edgeLabel;html=1;align=center;verticalAlign=middle;resizable=0;points=[];labelBorderColor=#B20000;fontColor=#B20000;" vertex="1" connectable="0" parent="DUj9_0CVN8MQ_FfbOPjA-5">
          <mxGeometry x="-0.1179" y="-4" relative="1" as="geometry">
            <mxPoint x="9" y="4" as="offset" />
          </mxGeometry>
        </mxCell>
        <mxCell id="DUj9_0CVN8MQ_FfbOPjA-14" value="Customer Segment L1&lt;div&gt;192.168.11.0/24&lt;/div&gt;" style="whiteSpace=wrap;html=1;resizable=0;autosize=1;fillColor=#e51400;fontColor=#ffffff;strokeColor=#B20000;" vertex="1" parent="1">
          <mxGeometry x="-990" y="-260" width="140" height="40" as="geometry" />
        </mxCell>
        <mxCell id="DUj9_0CVN8MQ_FfbOPjA-16" value="Customer Segment L4&lt;div&gt;192.168.41.0/24&lt;/div&gt;" style="whiteSpace=wrap;html=1;resizable=0;autosize=1;fillColor=#e51400;fontColor=#ffffff;strokeColor=#B20000;" vertex="1" parent="1">
          <mxGeometry x="-610" y="-260" width="140" height="40" as="geometry" />
        </mxCell>
        <mxCell id="DUj9_0CVN8MQ_FfbOPjA-20" value="&lt;div&gt;ens3&lt;/div&gt;&lt;div&gt;192.168.41.1/24&lt;/div&gt;" style="edgeLabel;html=1;align=center;verticalAlign=middle;resizable=0;points=[];labelBorderColor=#B20000;fontColor=#B20000;" vertex="1" connectable="0" parent="1">
          <mxGeometry x="1954.9984922671854" y="-0.004687476147391845" as="geometry">
            <mxPoint x="14" y="34" as="offset" />
          </mxGeometry>
        </mxCell>
        <mxCell id="DUj9_0CVN8MQ_FfbOPjA-21" value="ens3&lt;div&gt;192.168.11.1/24&lt;/div&gt;" style="edgeLabel;html=1;align=center;verticalAlign=middle;resizable=0;points=[];labelBorderColor=#B20000;fontColor=#B20000;" vertex="1" connectable="0" parent="1">
          <mxGeometry x="280" y="89.99777777777781" as="geometry" />
        </mxCell>
        <mxCell id="MWJ0W-gvaDlnfUPghBey-38" value="&lt;div&gt;&lt;span style=&quot;background-color: initial;&quot;&gt;Lo: 10.16.1.5/32&lt;/span&gt;&lt;br&gt;&lt;/div&gt;&lt;div&gt;VTEP: 10.16.4.5/32&lt;/div&gt;&lt;div&gt;&lt;font color=&quot;#b20000&quot;&gt;Vlan41: 192.168.41.254/24&lt;/font&gt;&lt;/div&gt;" style="text;html=1;align=center;verticalAlign=middle;resizable=0;points=[];autosize=1;strokeColor=none;fillColor=none;labelBorderColor=default;fontSize=11;" parent="1" vertex="1">
          <mxGeometry x="1635" y="-110.23000000000002" width="160" height="50" as="geometry" />
        </mxCell>
      </root>
    </mxGraphModel>
  </diagram>
</mxfile>
